<?xml version="1.0" encoding="utf-8"?>
<!-- Generator: Adobe Illustrator 19.0.0, SVG Export Plug-In . SVG Version: 6.00 Build 0)  -->
<svg version="1.1"
	 id="svg2" xmlns:dc="http://purl.org/dc/elements/1.1/" xmlns:rdf="http://www.w3.org/1999/02/22-rdf-syntax-ns#" xmlns:cc="http://creativecommons.org/ns#" xmlns:svg="http://www.w3.org/2000/svg"
	 xmlns="http://www.w3.org/2000/svg" xmlns:xlink="http://www.w3.org/1999/xlink" x="0px" y="0px" viewBox="158 -25.4 150 150"
	 style="enable-background:new 158 -25.4 150 150;" xml:space="preserve">
<style type="text/css">
	.st0{fill:#FFFFFF;stroke:#000000;stroke-miterlimit:10;}
	.st1{fill:#F7EE09;}
	.st2{fill:#1B1819;}
	.st3{fill:#A79448;}
</style>
<polygon class="st0" points="266.5,-18.8 184.3,51.7 182.4,60.5 180.5,69.9 180.5,75.3 182,81.1 182.1,86.2 186.5,87.7 189.5,89.2 
	285.6,5 "/>
<g id="g10" transform="matrix(1.3333333,0,0,-1.3333333,0,708.82667)">
	<g id="g12" transform="scale(0.1)">
		<path id="path14" class="st1" d="M1946.2,4578.6c-86-45.9-169.7-106.4-198.3-127.6c-28.6,21.2-112.3,81.7-198.3,127.6
			c-47.7,25.5-83.7,45.9-110.6,64.6l664,580.3c-11.5-27.1-21.6-62.4-21.7-104c-0.2-88.9,17.9-178.1,31.1-243.2
			c5.4-26.6,10.1-49.6,12-65.5C2138,4696.5,2118,4670.4,1946.2,4578.6"/>
		<path id="path16" class="st2" d="M1950.4,4580.4c-2-0.6-2.6-1.2-3.7-1.8c-36.7-19.6-72.9-41.9-105.1-62.6v478.6l106.8,94.4
			L1950.4,4580.4"/>
		<path id="path18" class="st2" d="M1746.9,4912.9V4451c-18.1,13.5-58.4,43-106.8,74.5v293L1746.9,4912.9"/>
		<path id="path20" class="st2" d="M1545.4,4736.7v-156.2c-44.3,24.6-80.9,44.5-107,62.7L1545.4,4736.7"/>
		<path id="path22" class="st2" d="M2042.3,4633.6l-0.2,536.6l60.9,53.2c-11.5-27.1-21.6-62.4-21.7-104
			c-0.2-88.9,17.9-178.1,31.1-243.2c5.4-26.6,10.1-49.6,12-65.5C2134.9,4722.8,2125.5,4687.2,2042.3,4633.6"/>
		<path id="path24" class="st2" d="M1397.4,4948.5c9.3,52.3,17.2,111.6,17.1,170.9c-0.2,77.6-35,133.3-49.8,154.5l135.3,169.1
			c22.5-10.5,78.6-31.9,125.9-39.9c61.5-10.4,121-10.8,123-10.8v0c4,0,61.3,0.5,121.8,10.8c21.4,3.6,44.2,10,65.2,16.8
			L1397.4,4948.5"/>
		<path id="path26" class="st3" d="M1578.5,4850.1l-77.3,88.3c-0.5,0.6-1.3,0.9-2.3,0.9c-0.7,0-1.4-0.2-1.9-0.7l-15.9-13.9
			c-1.2-1.1-1.3-3-0.3-4.2l29.7-33.9l-38.8-33.9l-29.7,33.9c-0.5,0.6-1.4,1-2.2,1c-0.7,0-1.4-0.3-1.9-0.7l-15.9-13.9
			c-1.2-1-1.3-3-0.3-4.2l77.3-88.3c1-1.1,3.1-1.2,4.2-0.3l15.9,13.9c1.2,1.1,1.3,3,0.3,4.2l-31,35.4l38.8,33.9l31-35.4
			c1-1.2,3-1.4,4.2-0.3l15.9,13.9C1579.4,4847,1579.5,4848.9,1578.5,4850.1"/>
		<path id="path28" class="st3" d="M1602.3,4922.5l-9.5,31.6l0.5,0.5l30.2-13.5L1602.3,4922.5z M1683.9,4940.1
			c-0.1,0.9-0.8,1.7-1.8,2.2l-120.4,53.2c-0.3,0.1-0.7,0.2-1.2,0.2c-0.7,0-1.5-0.2-2-0.7l-1.3-1.2c-0.8-0.7-1.1-2-0.9-3l36.8-126.3
			c0.4-1.3,1.4-2.1,2.6-2.1c0.7,0,1.4,0.3,2.1,0.8l14.7,12.9c2.8,2.5,2.4,5.4,1.9,7l-4.6,15.1l36.7,32.1l14.3-6.4
			c1.5-0.7,2.6-1,3.6-1c1.2,0,2.3,0.5,3.6,1.7l14.8,12.9C1683.7,4938.2,1684.1,4939.2,1683.9,4940.1"/>
		<path id="path30" class="st3" d="M1759.3,5030.3l-20.1,2c-0.1,0-0.2,0-0.3,0c-1.3,0-2.7-1.2-2.9-2.6c-1.1-8.2-5.8-16.5-12.4-22.3
			c-6.5-5.7-14.4-8.8-22.9-8.8c-10.4,0-20.5,4.6-27.6,12.7c-13.6,15.6-12.7,37.7,2.1,50.7c0.1,0.1,0.2,0.1,0.3,0.2
			c0.4,0.3,0.8,0.7,1.2,1c0,0,0,0,0,0c0.3,0.3,0.7,0.5,1,0.8c6.2,4.6,13.9,7.2,21.7,7.2c1-0.1,1.9,0.3,2.5,1c0.3,0.4,0.4,1,0.5,1.5
			l0.9,20.4c0.1,0.9-0.2,1.7-0.8,2.3c-0.5,0.6-1.3,0.9-2.2,0.9c-0.6,0-1.1,0-1.7,0c-16,0-28.8-4.9-41.2-15.8
			c-26.4-23.1-29.1-63.3-6-89.7c12-13.7,29.3-21.6,47.5-21.6c15.4,0,30.3,5.6,42.1,15.9c12.4,10.8,19.6,25,20.9,41
			C1762,5028.6,1760.7,5030.2,1759.3,5030.3"/>
		<path id="path32" class="st3" d="M1699.4,5070.5h0.2c0.1,0,0.1,0,0.1,0C1699.7,5070.5,1699.6,5070.5,1699.4,5070.5"/>
		<path id="path34" class="st3" d="M1867.2,5101.8c-0.3,1.4-1.5,2.4-2.9,2.7l-73.1,14.6v0.3l-3,66.4c-0.2,2.1-2.1,3.4-3.8,3.4
			c-0.9,0-1.6-0.3-2.3-0.9l-16.8-14.7c-0.7-0.6-1.3-2.2-1.2-3.2l2.8-64l-31.4,35.9c-0.7,0.8-1.8,1.3-2.9,1.3c-0.9,0-1.8-0.3-2.5-0.9
			l-15.6-13.7c-1.6-1.4-1.8-3.8-0.4-5.4l76.1-87c0.7-0.8,1.8-1.3,2.9-1.3c0.9,0,1.8,0.3,2.5,1l15.6,13.7c0.7,0.7,1.2,1.6,1.3,2.7
			c0.1,1-0.3,2-0.9,2.8l-35.6,40.7l68.7-15.2c0,0,0.1,0,0.2,0c0.7,0,2,0.5,2.7,1.1l18.4,16.1
			C1867.1,5099,1867.6,5100.4,1867.2,5101.8"/>
		<path id="path36" class="st3" d="M1944.1,5170l-12.7,14.5c-1,1.2-3,1.3-4.2,0.3l-37.3-32.6l-16.3,18.6l30.7,26.9
			c1.2,1.1,1.3,3,0.3,4.2l-12.7,14.5c-0.5,0.6-1.4,1-2.3,1c-0.7,0-1.4-0.2-1.9-0.7l-30.7-26.9l-15,17.1l37.3,32.6
			c0.6,0.5,0.9,1.2,1,2c0,0.8-0.2,1.6-0.7,2.2l-12.7,14.5c-0.6,0.6-1.4,1-2.3,1c-0.7,0-1.4-0.3-1.9-0.7l-55.2-48.3
			c-1.2-1.1-1.3-3-0.3-4.2l77.3-88.3c1-1.2,3-1.3,4.2-0.3l55.2,48.3c0.6,0.5,1,1.3,1,2.1C1944.8,5168.7,1944.6,5169.5,1944.1,5170"
			/>
		<path id="path38" class="st3" d="M2049.9,5260l-78.6,89.8c-1,1.1-3.1,1.2-4.2,0.3l-16-14c-1.2-1.1-1.4-2.9-0.3-4.1l41.7-47.7
			l-0.6-0.4h-0.2l-97.9,4.6l-3.2-2.9c-1.2-1-1.4-2.9-0.4-4l78.7-89.6c0.5-0.6,1.3-1,2.3-1c0.7,0,1.4,0.2,1.9,0.7l15.9,13.9
			c1.2,1.1,1.3,3,0.3,4.2l-43.8,50.1l0.6,0.5l0.2,0l99.1-6.8c0.4,0,1.7,0.5,2,0.8l2.1,1.9c0.6,0.5,1,1.3,1,2.1
			C2050.6,5258.8,2050.4,5259.5,2049.9,5260"/>
		<path id="path40" class="st3" d="M1531.1,4994.9c-3.3,0-6.4-1.2-8.9-3.4c-5.6-4.9-6.1-13.1-1.2-18.6c2.6-2.9,6.3-4.6,10.1-4.6
			c3.2,0,6.2,1.2,8.6,3.2c2.7,2.3,4.3,5.6,4.5,9.2c0.2,3.6-0.9,7-3.3,9.7C1538.5,4993.3,1534.9,4994.9,1531.1,4994.9"/>
		<path id="path42" class="st3" d="M1584.9,5028.9c-2.5,2.8-6.1,4.5-9.9,4.5c-3.3,0-6.4-1.2-8.9-3.4c-5.6-4.9-6.1-13.1-1.2-18.7
			c2.6-2.9,6.3-4.6,10.1-4.6c3.2,0,6.2,1.2,8.6,3.2c2.7,2.3,4.3,5.6,4.5,9.2C1588.4,5022.8,1587.3,5026.2,1584.9,5028.9"/>
		<path id="path44" class="st3" d="M1520.8,5256c6.4,0,11.5,5,11.5,11.6c0,6.4-6.4,11.1-13,11.1h-13.9V5256H1520.8z M1519.1,5292.7
			c6.5,0,11,5.1,11,11.5c0,6.4-4.5,10.8-11,10.8h-13.6v-22.3H1519.1z M1489,5327.7c0,1.3,1,2.4,2.4,2.4h29.2
			c15.2,0,26.9-10.2,26.9-23.6c0-9.8-8-17.5-14-20.3c6.8-2.2,16.6-9,16.6-20.8c0-14.3-12.2-24.6-27.8-24.6h-30.8
			c-1.4,0-2.4,1.1-2.4,2.4V5327.7"/>
		<path id="path46" class="st3" d="M1568.2,5283.1c0,6.7,5.5,12.2,11.9,12.2c6.7,0,12.2-5.5,12.2-12.2c0-6.4-5.5-11.9-12.2-11.9
			C1573.7,5271.3,1568.2,5276.7,1568.2,5283.1"/>
		<path id="path48" class="st3" d="M1614.4,5327.7c0,1.7,0.7,2.5,2.5,2.5h12.4c1.7,0,2.5-0.8,2.5-2.5v-35l32.1,36.2
			c0.5,0.6,1.3,1.3,2.4,1.3h14.5c2.4,0,3.1-1.5,1.4-3.4l-34.4-38.6l36.9-43.9c1.3-1.6,0.8-3.3-1.7-3.3h-15.6c-1.3,0-2,0.5-2.3,0.9
			l-33.3,41v-39.5c0-1.7-0.8-2.5-2.5-2.5h-12.4c-1.8,0-2.5,0.8-2.5,2.5V5327.7"/>
		<path id="path50" class="st3" d="M2112.5,4876.3c5.4-26.6,10.1-49.7,12-65.5c13.5-114.3-6.5-140.3-178.3-232.1
			c-86-45.9-169.7-106.4-198.3-127.6c-28.6,21.2-112.3,81.7-198.3,127.6c-47.7,25.5-83.7,45.9-110.6,64.6l664,580.2
			c-11.6-27.1-21.6-62.4-21.7-104C2081.2,5030.5,2099.3,4941.4,2112.5,4876.3L2112.5,4876.3z M1371.3,4810.7
			c1.9,15.9,6.6,38.9,12,65.5c1.9,9.5,3.9,19.4,6,29.8l609.2,533.6l128.2-160.2l-709.4-619.9
			C1367.7,4700.7,1362.7,4737.7,1371.3,4810.7z M1364.7,5274l135.4,169.1c22.5-10.5,77.6-31.9,124.9-39.9
			c61.5-10.4,119.9-10.8,122-10.8v0c4,0,62.3,0.5,122.8,10.8c21.4,3.6,44.7,10,65.7,16.9l-538.2-471.5
			c9.3,52.3,17.3,111.6,17.2,170.9C1414.1,5197.1,1379.5,5252.7,1364.7,5274z M2165,5276.3l-160.5,203.6l-9.7-4.8
			c-0.7-0.4-74.2-36.2-129.5-45.6c-59.3-10.1-118.4-10.4-118.4-10.4v0c-4,0-59.5,0.6-117.4,10.4c-55.3,9.4-128.1,45.3-128.8,45.6
			l-9.6,4.8l-160.4-203.6l6.9-8.3c0.5-0.6,49.9-61.9,50.1-148.6c0.2-86.2-17.6-173.8-30.6-237.8c-5.5-27.2-10.3-50.8-12.9-67.7
			c-8.5-56.8-7.8-105.1,21.8-144.2c28.3-37.3,83.2-71.9,170.4-118.5c103.6-55.4,209-139.5,211.4-142.4l0,0l0,0
			c2.4,2.9,107.8,87,211.4,142.4c87.2,46.6,142.1,81.2,170.4,118.5c29.6,39.1,30.3,87.5,21.8,144.2c-2.5,16.9-7.4,40.5-12.9,67.7
			c-13,64-30.8,151.6-30.6,237.8c0.2,86.8,49.6,148.1,50.1,148.6L2165,5276.3"/>
	</g>
</g>
</svg>
