<?xml version="1.0" encoding="utf-8"?>
<!-- Generator: Adobe Illustrator 19.0.0, SVG Export Plug-In . SVG Version: 6.00 Build 0)  -->
<svg version="1.1" id="Camada_1" xmlns="http://www.w3.org/2000/svg" xmlns:xlink="http://www.w3.org/1999/xlink" x="0px" y="0px"
	 viewBox="-244 -25 150 150" style="enable-background:new -244 -25 150 150;" xml:space="preserve">
<style type="text/css">
	.st0{fill:#FFFFFF;}
	.st1{fill:#BF0411;}
	.st2{fill:#EBCC70;}
</style>
<polygon class="st0" points="-215,11.3 -120.7,11.3 -123.1,51.7 -130.7,79.2 -150.9,94.7 -175.6,102 -200.7,83.7 -213.1,53.3 "/>
<rect x="-219.5" y="-13.3" class="st0" width="102.8" height="20"/>
<g>
	<path class="st1" d="M-219.5,8.4h100.7l-0.1,40.5c0,5.9-1.2,11.9-3.1,17.6c-2,5.8-4.8,11.5-8.8,16.7s-9,10-15.4,14.6
		c-6.4,4.5-14.1,8.8-22.2,12.2c-8.1-3.1-15.8-7.3-22.2-12c-6.4-4.7-11.6-9.9-15.9-15.5c-4.3-5.6-7.7-11.6-9.8-17.7
		c-2.2-6.1-3-12.2-3-18.3L-219.5,8.4L-219.5,8.4z M-177.2,21.2c-0.2-0.7-0.6-1.4-1-2s-0.8-1.1-1.3-1.6c-0.5-0.4-1-0.7-1.5-1
		c-0.6-0.3-1.3-0.5-2.2-0.6c-0.9-0.2-2.1-0.2-3.3-0.2h-9.2v16.3c-3.2,3.4-5.8,7.5-7.5,11.7c-1.7,4.3-2.5,8.8-2.5,13.3
		s0.9,9.1,2.6,13.3c1.7,4.2,4.1,8.1,7.2,11.4c3.1,3.3,6.8,6,10.9,8s8.6,3.2,13.1,3.5s9-0.2,13.2-1.5v2.9h5.5v-5.1
		c3.7-1.8,7.2-4.3,10.1-7.3s5.3-6.5,7-10.4s2.8-8.1,3.1-12.3c0.3-4.3-0.1-8.6-1.2-12.7c-1.1-4.1-3-8-5.4-11.5l5.6-5.6l6.4,6.6
		l0.1-21.2h-21.1l6,5.7l-5.7,5.7c-4.5-2.3-9.1-4.5-13.9-5.4C-167,20.2-172.1,20.7-177.2,21.2L-177.2,21.2z"/>
	<path class="st1" d="M-151.2,76.3h-2v-7.9h7.8c-0.9,1.5-1.7,3-2.7,4.3C-149,74-150.1,75.2-151.2,76.3L-151.2,76.3z"/>
	<path class="st1" d="M-193.7,46.8h5.9c1.5,0,3,0,4.1-0.2c1.1-0.1,1.9-0.4,2.6-0.6c0.6-0.3,1.2-0.6,1.6-1c0.5-0.4,0.9-0.9,1.2-1.5
		c0.6-1.3,1.2-2.6,1.5-4.6s0.4-4.7,0.5-7.4c4.8-1.1,9.5-1.3,14,0c2.2,0.6,4.4,1.6,6.4,2.7c2,1.2,3.8,2.6,5.4,4.2
		c1.6,1.6,3,3.5,4.1,5.5c2.3,4.1,3.5,8.7,3.5,13.2c0,2.3-0.3,4.5-0.9,6.7h-14.9v17.6c-2.7,1.2-5.7,2-8.7,2.2s-6.1-0.1-9.1-0.9
		c-2.9-0.8-5.7-2.1-8.2-3.9s-4.6-3.9-6.4-6.5c-1.7-2.5-3.1-5.4-3.9-8.3c-0.8-3-1.1-6-0.9-8.9C-195.6,52-194.9,49.3-193.7,46.8
		L-193.7,46.8z M-171.9,72.7h5.5V41.8h-5.5V72.7L-171.9,72.7z"/>
	<path class="st1" d="M-182.7,22.8c-1.4,0.6-2.8,1.2-4,1.9c-1.3,0.7-2.5,1.6-3.6,2.4v-7h2.7c0.7,0,1.4,0,2,0.1
		c0.5,0.1,0.9,0.2,1.2,0.4c0.7,0.4,1,0.9,1.3,1.3C-183,22.1-182.8,22.5-182.7,22.8L-182.7,22.8z"/>
	<path class="st1" d="M-181.9,33.7c-0.1,1.7-0.1,3.4-0.4,4.7c-0.3,1.3-0.7,2.1-1.1,2.9c-0.2,0.2-0.4,0.5-0.6,0.6
		c-0.7,0.6-1.8,0.7-2.8,0.7c-1.2,0-2.4,0-3.6,0v-1.8c1.3-1.4,2.6-2.8,4-4C-184.9,35.6-183.4,34.6-181.9,33.7L-181.9,33.7z"/>
	<path class="st2" d="M-168.3,115c-8.8-3.7-17.2-8.3-24.1-13.3c-7-4.9-12.5-10.1-17-16.1c-4.5-5.9-7.9-12.6-10.2-18.7
		c-2.3-6.2-3.7-11.8-3.7-17.5V-15h108.8v64.4c0,6.3-1.7,12.4-3.9,18.6c-2.2,6.2-5.2,12.4-9.4,18.1c-4.2,5.6-9.4,10.7-16.3,15.6
		C-151,106.5-159.5,111.2-168.3,115L-168.3,115z M-119.2-10.3h-99.6V4.9h99.5v-15.2H-119.2z M-168.3,109.5
		c8.1-3.5,15.9-7.9,22.2-12.5c6.3-4.5,11.1-9.2,14.9-14.3c3.8-5.1,6.5-10.7,8.4-16.4c1.9-5.7,3.4-11.6,3.4-17.5l0.1-39.8h-99.3v40
		c0,5.3,1.3,10.5,3.4,16.2c2.1,5.7,5.2,11.7,9.4,17.2c4.1,5.5,9.2,10.3,15.5,14.8C-184,101.8-176.4,106.1-168.3,109.5L-168.3,109.5z
		"/>
	<path class="st2" d="M-215,2.6V-7.6h4.1c0.9,0,1.8,0.2,2.8,1.5c0.2,0.3,0.4,0.7,0.6,1.2c0.3,0.9,0.5,2.2,0.3,3.3
		c-0.1,0.6-0.2,1.1-0.3,1.6c-0.2,0.5-0.4,0.9-0.6,1.2c-0.9,1.2-1.8,1.5-2.8,1.5h-4.1V2.6z M-213.1-5.8v6.6h1.9c0.5,0,1-0.1,1.5-0.7
		c0.1-0.2,0.2-0.4,0.3-0.6c0.2-0.5,0.3-1.3,0.3-2c0-0.4,0-0.8-0.1-1.2c-0.1-0.3-0.1-0.6-0.2-0.9c-0.2-0.4-0.3-0.7-0.7-1
		c-0.3-0.2-0.7-0.3-1.1-0.3h-1.9V-5.8z"/>
	<polygon class="st2" points="-197.3,-7.6 -197.3,-5.8 -202.3,-5.8 -202.3,-3.6 -197.7,-3.6 -197.7,-1.8 -202.3,-1.8 -202.3,0.8 
		-197.1,0.8 -197.1,2.6 -204.3,2.6 -204.3,-7.6 	"/>
	<path class="st2" d="M-187.7-4.5c-0.1-0.5-0.6-1.2-1.1-1.4c-0.9-0.3-2-0.6-3,0.9c-0.6,0.9-0.6,1.8-0.6,3c0,0.4,0.1,0.7,0.2,1
		c0.1,0.3,0.2,0.6,0.3,0.8c0.9,1.4,1.9,1.4,3.1,1.1c0.4-0.2,0.7-0.4,1.1-0.8c0.3-0.4,0.4-0.8,0.4-1.2h-2.2v-1.8h4.1v5.5h-1.4
		l-0.2-1.2c-0.2,0.3-0.4,0.6-0.7,0.8c-1.3,1-3,1.1-4.8-0.1c-0.4-0.3-0.7-0.6-1-1c-0.3-0.4-0.5-0.9-0.7-1.4c-0.3-1-0.4-2.4-0.2-3.6
		c0.1-0.6,0.3-1.1,0.5-1.6s0.5-0.9,0.8-1.2c0.3-0.3,0.7-0.6,1.1-0.8c0.8-0.4,1.8-0.5,2.8-0.4c0.5,0.1,1,0.2,1.4,0.4
		c0.4,0.2,0.8,0.4,1,0.7c0.6,0.6,0.9,1.4,1,2.2h-1.9V-4.5z"/>
	<polygon class="st2" points="-175.8,-7.6 -175.8,-5.8 -180.8,-5.8 -180.8,-3.6 -176.3,-3.6 -176.3,-1.8 -180.8,-1.8 -180.8,0.8 
		-175.6,0.8 -175.6,2.6 -182.9,2.6 -182.9,-7.6 	"/>
	<path class="st2" d="M-166.6-2.3c0.3,0.1,0.6,0.2,0.9,0.8c0.1,0.2,0.2,0.5,0.2,0.8c0,0.4,0,0.8,0,1s0,0.3,0,0.4
		c0,0.2,0,0.7,0.1,1.1c0.1,0.2,0.1,0.3,0.3,0.3v0.3h-2.1c-0.2-0.5-0.2-1.2-0.2-1.9c0-0.5,0.1-1.2-0.4-1.8c-0.4-0.3-0.7-0.3-1.1-0.3
		h-2v4.1h-1.9V-7.6h4.7c0.4,0,0.7,0,1.1,0.1c0.3,0.1,0.6,0.2,0.8,0.4c0.6,0.4,0.8,0.9,1,1.5c0.2,0.8,0.3,1.8-0.6,2.7
		C-166.1-2.6-166.3-2.4-166.6-2.3L-166.6-2.3z M-170.9-3.2h2.4c0.4,0,0.7,0,1-0.4c0.3-0.5,0.5-1.2,0-1.9c-0.3-0.4-0.6-0.4-1-0.4
		h-2.4V-3.2L-170.9-3.2z"/>
	<polygon class="st2" points="-155.5,-7.6 -155.5,-5.8 -160.3,-5.8 -160.3,-3.4 -156.1,-3.4 -156.1,-1.6 -160.3,-1.6 -160.3,2.6 
		-162.3,2.6 -162.3,-7.6 	"/>
	<path class="st2" d="M-147.5-7.8c0.5,0.1,0.9,0.3,1.3,0.5s0.8,0.5,1.1,0.9c0.3,0.4,0.6,0.8,0.8,1.4c0.4,1,0.6,2.4,0.4,3.7
		c-0.1,0.6-0.3,1.2-0.5,1.7s-0.5,0.9-0.9,1.3c-1.2,1.2-2.5,1.4-3.9,1.2c-0.5-0.1-0.9-0.3-1.3-0.5s-0.8-0.5-1.1-0.9
		c-0.3-0.4-0.6-0.8-0.8-1.4c-0.4-1-0.6-2.4-0.4-3.7c0.1-0.6,0.3-1.2,0.5-1.7s0.5-0.9,0.9-1.3C-150.2-7.8-148.9-8.1-147.5-7.8
		L-147.5-7.8z M-147.7-6c-0.8-0.2-1.7-0.3-2.6,1c-0.5,0.9-0.7,2-0.6,3.2c0,0.4,0.1,0.8,0.3,1.1c0.1,0.3,0.3,0.6,0.4,0.8
		c0.8,1,1.6,1.1,2.6,0.8c0.4-0.1,0.8-0.4,1.1-1c0.6-0.9,0.7-2,0.6-3.2c-0.1-0.4-0.1-0.8-0.3-1.1c-0.1-0.3-0.3-0.6-0.4-0.8
		C-146.9-5.6-147.2-5.9-147.7-6L-147.7-6z"/>
	<path class="st2" d="M-133.4-4.6c0,0.6-0.1,1.2-0.6,1.8c-0.2,0.2-0.5,0.4-0.7,0.6c0.3,0.1,0.7,0.4,0.8,0.7c0.2,0.4,0.2,0.6,0.3,1
		c0,0.5,0.1,1.1,0,1.5c0,0.4-0.1,0.8,0.4,1.4v0.3h-2.1c-0.1-0.3-0.2-0.7-0.2-1.2c0-0.9,0.1-1.4-0.2-2.2c-0.4-0.6-0.8-0.6-1.3-0.6h-2
		v4.1h-1.9V-7.6h4.7c0.4,0,0.7,0,1,0.1c0.3,0.1,0.6,0.2,0.8,0.4c0.6,0.4,0.8,0.9,1,1.4C-133.5-5.4-133.4-5-133.4-4.6L-133.4-4.6z
		 M-139.1-3.2h2.4c0.4,0,0.7,0,1.1-0.4c0.3-0.5,0.5-1.2,0-1.9c-0.3-0.4-0.6-0.4-1-0.4h-2.4v2.7H-139.1z"/>
	<path class="st2" d="M-125.2-4.6c0-0.3-0.1-0.7-0.5-1.1c-0.7-0.5-1.4-0.6-2.4-0.2c-0.7,0.4-0.7,0.9-0.5,1.5
		c0.4,0.5,0.8,0.6,1.3,0.7c0.6,0.2,1.2,0.2,1.6,0.4c0.3,0.1,0.6,0.2,0.9,0.3c0.5,0.2,0.8,0.4,1.1,0.7c0.8,1,0.7,1.7,0.5,2.9
		c-0.2,0.5-0.4,1-1,1.5c-1.1,0.8-2.4,0.9-3.8,0.6c-0.7-0.2-1.5-0.4-2.2-1.4c-0.4-0.6-0.5-1.3-0.5-2h1.9c0,0.4,0.1,0.8,0.8,1.3
		c0.7,0.4,1.6,0.6,2.8-0.1c0.4-0.4,0.6-1.1,0.1-1.6c-0.3-0.3-0.6-0.4-1-0.5c-0.6-0.2-1.2-0.2-1.7-0.4c-0.3-0.1-0.6-0.2-0.9-0.3
		c-0.5-0.2-0.8-0.4-1.1-0.7c-0.8-0.9-0.7-1.8-0.4-3c0.2-0.5,0.4-0.9,1.1-1.4c1-0.6,2.4-0.8,3.8-0.4c0.6,0.2,1,0.4,1.6,1.2
		c0.4,0.6,0.6,1.2,0.6,1.9h-2.1V-4.6z"/>
	<polygon class="st2" points="-172.1,41.6 -166.2,41.6 -166.2,72.9 -172.1,72.9 	"/>
	<path class="st2" d="M-176.9,21.2c-2.1,0.4-4,0.9-5.9,1.7c-0.2-0.6-0.5-1.2-1-1.7c-0.2-0.2-0.4-0.4-0.7-0.5
		c-0.3-0.1-0.6-0.3-1.2-0.3c-1.2-0.2-2.9-0.1-4.4-0.1v22h2.5c0.6,0,1.2,0,1.7-0.1s0.8-0.1,1.1-0.2c0.5-0.2,0.8-0.4,1.2-0.9
		c0.4-0.8,0.8-1.5,1.1-2.7c0.2-1.2,0.3-2.8,0.4-4.5c2.1-1.1,4.1-2,6-2.5c-0.1,2.7-0.2,5.5-0.5,7.5c-0.3,2-1,3.3-1.6,4.7
		c-0.3,0.6-0.7,1.1-1.2,1.6c-0.5,0.4-1,0.8-1.7,1.1c-0.7,0.3-1.5,0.5-2.6,0.6c-1.1,0.1-2.6,0.1-4.1,0.1h-8.1V15.6h9.4
		c1.2,0,2.4,0.1,3.4,0.2c1,0.2,1.6,0.4,2.2,0.7c0.6,0.3,1.1,0.6,1.6,1.1c0.5,0.4,0.9,1,1.3,1.6C-177.5,19.8-177.2,20.5-176.9,21.2
		L-176.9,21.2z"/>
	<polygon class="st2" points="-158.9,94.8 -158.9,63.5 -142.4,63.5 -142.4,68.6 -153,68.6 -153,76 -145.7,76 -145.7,81 -153,81 
		-153,94.8 	"/>
</g>
</svg>
