<?xml version="1.0" encoding="utf-8"?>
<!-- Generator: Adobe Illustrator 19.0.0, SVG Export Plug-In . SVG Version: 6.00 Build 0)  -->
<svg version="1.1"
	 id="svg2" xmlns:rdf="http://www.w3.org/1999/02/22-rdf-syntax-ns#" xmlns:dc="http://purl.org/dc/elements/1.1/" xmlns:svg="http://www.w3.org/2000/svg" xmlns:cc="http://creativecommons.org/ns#"
	 xmlns="http://www.w3.org/2000/svg" xmlns:xlink="http://www.w3.org/1999/xlink" x="0px" y="0px" viewBox="-55.9 322.3 150 150"
	 style="enable-background:new -55.9 322.3 150 150;" xml:space="preserve">
<style type="text/css">
	.st0{fill:#3978B7;}
	.st1{fill:#F9E757;}
</style>
<g>
	<path class="st0" d="M85.2,385.3c0,0,0.4-11.2-4.6-23.8C75,347.5,66.9,341,66.9,341c-1,2-1.2,4.1-1.2,4.1S60,340,50.3,334.7
		c-12.8-7.1-22.2-8.3-22.2-8.3c-2.3,2.5-8,7.8-8,7.8s-3-4.2-7.5-7.8c0,0-21.4,1.2-39.4,17.5c0,0-0.1-0.2-0.7-1.5
		c0,0-9.1,7.5-14.5,21.6c-5.1,13.3-5.5,20.1-5.5,20.1l-1.2-0.9l-4.6,6.2l9.9,8.8l-4.4,5.1c0,0-1.1-0.6-1.8-1.1
		c0,0-0.3,10.8,4.9,23.1c4.5,10.6,7.9,14.9,7.9,14.9s-1.1,0.3-2.4,0.5c0,0,9.1,10.2,22.9,15.6c13.8,5.4,24.8,4.2,24.8,4.2l-1.7,2.2
		l7.2,5.4l6.5-7.6l6.9,6.2l6.5-5.3l-1.7-2.2c0,0,11.3,1,26-4.7c14.6-5.7,19.7-15.9,19.7-15.9s-0.7,0-1.8-0.1c0,0,6.1-7.3,10.8-17.9
		c4.7-10.6,5-17.6,5-17.6s-1.1,0.5-2,1c0,0-4.1-3.9-5.9-5.9c0,0,5.1-5,7.9-8.8c0,0-3.5-3.4-5.1-5.1L85.2,385.3z"/>
	<path class="st1" d="M-2.9,431h1.3v0.8c0,0.6,0.2,1,0.8,1c0.7,0,0.9-0.5,0.9-1.1c0-0.8,0-1-1.4-2.4c-0.8-0.8-1.5-1.6-1.5-2.9
		c0-1.5,0.7-2.2,2.1-2.2c0.7,0,1.2,0.2,1.5,0.5c0.2,0.2,0.4,0.5,0.4,1.2v0.9h-1.2v-0.7c0-0.5-0.2-0.9-0.7-0.9c-0.5,0-0.8,0.3-0.8,1
		c0,0.6,0.1,1,1.3,2.3c1.3,1.3,1.5,1.8,1.5,3c0,1.5-0.6,2.3-2.1,2.3c-1.2,0-2-0.5-2-1.7C-2.9,432.2-2.9,431-2.9,431z"/>
	<path class="st1" d="M7.1,431.6c0,1.1-0.5,2.2-2.2,2.2c-1.8,0-2.2-1.1-2.2-2.2v-7.3H4v7.5c0,0.6,0.2,1,0.9,1s0.9-0.3,0.9-1v-7.5
		h1.3V431.6z"/>
	<path class="st1" d="M8.7,424.2h1.8l1.5,7.9h0v-7.9h1.2v9.5h-1.9l-1.5-8.1h0v8.1H8.7V424.2z"/>
	<path class="st1" d="M14.9,424.2H17c2.1,0,2.3,0.7,2.3,3.5v2.8c0,2.4-0.5,3.2-2.5,3.2h-1.9L14.9,424.2L14.9,424.2z M16.2,432.6h0.6
		c1,0,1.1-0.5,1.1-2.1v-3.3c0-1.4-0.1-1.9-1.3-1.9h-0.5L16.2,432.6L16.2,432.6z"/>
	<path class="st1" d="M20.8,431h1.3v0.8c0,0.6,0.2,1,0.8,1c0.7,0,0.9-0.5,0.9-1.1c0-0.8,0-1-1.4-2.4c-0.8-0.8-1.5-1.6-1.5-2.9
		c0-1.5,0.7-2.2,2.1-2.2c0.7,0,1.2,0.2,1.5,0.5c0.2,0.2,0.4,0.5,0.4,1.2v0.9h-1.2v-0.7c0-0.5-0.2-0.9-0.7-0.9c-0.5,0-0.8,0.3-0.8,1
		c0,0.6,0.1,1,1.3,2.3c1.3,1.3,1.5,1.8,1.5,3c0,1.5-0.6,2.3-2.1,2.3c-1.2,0-2-0.5-2-1.7C20.8,432.2,20.8,431,20.8,431z"/>
	<path class="st1" d="M26,424.2h1.3l1.4,7.5h0l1.4-7.5h1.3l-1.9,9.5h-1.5L26,424.2z"/>
	<path class="st1" d="M33.6,424.2h1.5l1.9,9.5h-1.3l-0.5-2.4h-2l-0.5,2.4h-1.3L33.6,424.2z M33.4,430.2h1.7l-0.8-4.6h0L33.4,430.2z"
		/>
	<path class="st1" d="M38.3,424.2h1.3v8.4h2.2v1.1h-3.5L38.3,424.2L38.3,424.2z"/>
	<path class="st1" d="M43,424.2h1.3v8.4h2.2v1.1h-3.5L43,424.2L43,424.2z"/>
	<path class="st1" d="M8.2,357.3L8.2,357.3c-0.4,0.5-0.7,0.8-1.4,1.3v-1.7c0.4-0.3,1.4-1.5,1.6-2h1.5v12.7H8.2V357.3z"/>
	<path class="st1" d="M11.7,364.3h1.6v0.6c0,1,0.2,1.4,1,1.4c0.7,0,1-0.6,1-1.6v-2.4h0c-0.4,0.5-0.9,0.7-1.6,0.7c-1.6,0-2-1.2-2-3
		v-2.2c0-2.3,0.5-3.1,2.8-3.1c1.9,0,2.5,0.7,2.5,2.9v6.9c0,2.3-0.7,3.1-2.6,3.1c-1.9,0-2.6-0.9-2.6-2.2L11.7,364.3L11.7,364.3z
		 M13.4,360.5c0,0.7,0.2,1.2,1,1.2c0.7,0,1-0.5,1-1.6v-2.5c0-0.9,0-1.6-1-1.6c-1,0-1,0.6-1,1.6C13.4,357.6,13.4,360.5,13.4,360.5z"
		/>
	<path class="st1" d="M19,357.9c0-2.3,0.5-3.1,2.6-3.1c2.1,0,2.6,0.9,2.6,3.1v6.6c0,2.3-0.5,3.1-2.6,3.1s-2.6-0.9-2.6-3.1V357.9z
		 M20.6,364.8c0,0.8,0,1.6,1,1.6c1,0,1-0.8,1-1.6v-7.2c0-0.8,0-1.6-1-1.6c-1,0-1,0.8-1,1.6V364.8z"/>
	<path class="st1" d="M26.1,364.1h1.6v0.7c0,1,0.2,1.6,1,1.6c0.7,0,1-0.6,1-1.6v-1.5c0-1.2-0.3-1.5-1.5-1.5h-0.5v-1.5h0.5
		c1,0,1.3-0.3,1.3-1.5v-1.4c0-1.1-0.3-1.4-0.8-1.4c-0.7,0-1,0.6-1,1.6v0.4h-1.6c0-2.4,0.5-3.3,2.6-3.3c2,0,2.5,1,2.5,3.4
		c0,2.2-0.3,2.6-1.5,2.9v0c1.1,0.2,1.6,0.5,1.6,3.5c0,2.3-0.5,3.1-2.6,3.1s-2.6-0.9-2.6-3.1V364.1z"/>
	<path class="st1" d="M20.1,337.6c0,0,7.6-7.8,9.5-9.5c0,0,8.8,10.8,14,17.1c0,0-6.9-3.3-19.1-4.5c0,0,3.1,5.9,4.9,8.7l-2.5,2.2
		l-6.9-9l-7.6,8.8l-2.5-2.8c0,0,3.3-3.5,5.5-8.2c0,0-5.1-0.5-14.6,1.8c0,0,7.3-7.7,10.5-13.3L20.1,337.6z"/>
	<path class="st1" d="M35,330.3c0,0,4.4,8.5,14.1,16.9c10.1,8.9,16.4,10.9,16.4,10.9s-0.4-5.2-0.1-10.3
		C65.5,347.9,51.5,335.2,35,330.3z"/>
	<path class="st1" d="M27.6,342.4c0,0,4.1,8.3,13.4,13.8c9,5.4,15.5,5.4,15.5,5.4s0.3-3,0.9-6.4C57.3,355.2,37.6,342.7,27.6,342.4z"
		/>
	<path class="st1" d="M59,357.1c0,0-1.8,7.7,4.6,18.2c6.3,10.5,11.5,15.2,11.5,15.2s1.8-5-2.8-12.4c-4.5-7.4-6.3-17.2-6.3-17.2
		S62,359,59,357.1z"/>
	<path class="st1" d="M67.9,346.3c0,0-1.8,6.9,0.8,18c2.5,11.1,8.3,19.7,12.9,25.3c0,0,1.6-13.3-2.9-25.9
		C74.6,352.1,67.9,346.3,67.9,346.3z"/>
	<path class="st1" d="M77.3,387.1c0,0,0.5,3.5,0.5,8.9c0,0,0.2,0,0.7-0.3c0,0,1,2,1,7.1c0,5.1-0.7,9.9-0.7,9.9s4.9-4.8,9.1-7.4
		l-7.1-7.1c0,0,5.1-5.4,7.2-8.5l-2-2.1c0,0-3.2,3.1-4.5,4.6C81.6,392.2,79.5,391,77.3,387.1z"/>
	<path class="st1" d="M-44.6,393.8l-5.1-4.9l1.4-2.6l2.9,2.2c0,0,1.6-11.7,5.6-22.7c4.8-13.3,11.3-18.7,11.3-18.7s2.5,8.5-3.2,22.4
		C-37.8,384.5-44.6,393.8-44.6,393.8z"/>
	<circle class="st1" cx="30.3" cy="397" r="3.6"/>
	<circle class="st1" cx="7.5" cy="397" r="3.6"/>
	<path class="st1" d="M15.7,405.1c0,2.9-0.5,3.5-1.8,3.6c-1.3,0-1.4,0.5-1.4,1.5s0.3,1.4,1.4,1.4h10.2c1,0,1.3-0.3,1.4-1.4
		c0-1,0-1.5-1.4-1.5c-1.3,0-1.8-0.7-1.8-3.6v-17.1c0-2.9,0.5-3.5,1.8-3.6c1.3,0,1.4-0.5,1.4-1.5s-0.3-1.4-1.4-1.4H13.9
		c-1,0-1.3,0.3-1.4,1.4c0,1,0,1.5,1.4,1.5c1.3,0,1.8,0.7,1.8,3.6C15.7,388.1,15.7,405.1,15.7,405.1z"/>
	<path class="st1" d="M52.3,399.1v-6.7c0-1.8-0.3-2.4-1.2-2.4c-0.8,0-1.4,0-1.4,1.9c0,1.8-1.8,2.2-3.1,2.2c-1.4,0-1.8-0.6-1.8-2.4
		v-4.5c0-3,0.3-4.1,2.4-4.1c2.1,0,4.4-0.5,6.7,1.8c1.9,1.8,2,3.1,2.5,3.8c0.4,0.4,1.1,0.2,1.8,0.1c0.4-0.1,0.5-0.7,0.2-1.5
		c-0.3-1.3-1-4.3-1.4-6c-0.5-2.1-0.5-2.1-4.2-2c-2.9,0.2-12.9,1.3-15.7,1.5c-2.8,0.2-2.8,0.5-2.8,1.8s0.9,1.1,2.1,1
		c1.3,0,1.6,0.4,1.6,3.7v17.1c0,3.7-0.2,3.9-1.5,4.2c-1.4,0.3-1.1,0.6-1.1,1.4c0,0.7,0,1.1,3.4,1.1c3.5,0,8,0,8.8-0.3
		c0.8-0.2,0.9-0.5,0.8-1.4c0-0.9-0.2-1.2-1.6-1.2c-1.4,0-2.1-0.3-2.1-3.8v-4.8c0-2.1,0.5-2.4,2-2.4s2.8,0.8,2.8,2.3
		c0,1.5,0.3,2.2,1.2,2.1C52,401.6,52.3,401.3,52.3,399.1z"/>
	<path class="st1" d="M-19.4,388.7c2.5-4.4,5.3-6.3,9.1-6.4c4.7-0.2,6.2,1.5,6.2,1.5s0.2-1.5,2-1.5c1,0,1.1,0.5,1.3,5.6
		c0.1,3.4,0.2,3.5-0.9,3.6c-1.1,0-1.4-0.2-1.8-1.8c-0.4-1.2-1.3-3.8-3.7-4.1c-4.1-0.5-7.6,4.2-8.5,11.4c-1,7.2,1.6,11,4.9,11
		c3.3,0,3.9-2.3,3.8-6.7c0-2.3-0.8-2.6-2.4-2.7c-2.4,0-2.9-0.5-2.9-1.7s0.8-1.4,2.5-1.4H-1c1.6,0,2,0.3,2,1.5s-0.5,1.5-1.1,1.5
		c-1,0-1.3,0.6-1.3,2.5v7c0,3.4,0.4,3.9-1,4.1c-1.4,0.1-2.4-1.5-2.4-1.5s-3,2.5-7.1,2.6c-3.6,0-6.8-1-9.1-6.7
		C-23.5,399.8-21.9,393.3-19.4,388.7z"/>
	<path class="st1" d="M56.8,365.5c0,0,3.8,9.1,9.5,17.2c5.7,8.1,10.8,13.8,10.8,13.8s-4.6,8.5-14.4,15.5c-9.9,7.1-22.2,6.9-38,6.9
		c-24.2-0.1-27.1-0.5-31.5,1.2c-7.7,3-13.5,10.8-13.5,10.8s-1.9-9.4-6.2-19c-4.3-9.6-9.3-12.7-9.3-12.7s-1.1,5.3,0,16
		c0,0-6.4-6.4-10.5-10.3c0,0,4.8-4.6,6.3-6.2c0,0-2.4-2.6-3.1-3.5c0,0,5.3-9.1,6.6-11.3c0,0-0.3,7.9,1.5,14.3c0,0,6.2-11,11.3-15.3
		c9.2-7.5,12-8.1,38.9-8.9c27.8-0.9,32.7-1.3,36.2-2.8C55.1,369.6,56.8,365.5,56.8,365.5z M61.5,407.1c2.3-3,4.4-11.8,2.2-20.3
		c-2.2-8.5-6-15.6-6-15.6s-0.5,4-12.8,5.3s-33.7,1.9-44,2.2c-15.5,0.5-20.1,2.5-25.2,12.6c-2,3.9-4.1,17.8,6.4,31.7
		c0,0,7.3-7.2,19.5-7.6c12.2-0.4,29.1,0.1,43.5-1.1C54.2,413.6,59.2,410.1,61.5,407.1z"/>
	<path class="st1" d="M-26.3,354.8c0,0,0-3.1,0-6.3c0,0,5.6-9.1,18.3-14c12.7-4.9,16.7-5.1,16.7-5.1s-4.9,9-15.4,15.8
		C-18.1,352.6-26.3,354.8-26.3,354.8z"/>
	<path class="st1" d="M11.9,342.6c0,0-7.6-1.4-17.4,3.6c-9.9,5-15.3,8.6-21.3,10.9c0,0-1,6-1.8,8.8c0,0,6.9-9,14.8-12.5
		c0,0,1.2,2.5,1,5.9C-12.8,359.3,3.2,354.5,11.9,342.6z"/>
	<path class="st1" d="M-15.3,357c0,0-7.4,4-13.2,12.3c-5.8,8.3-7.2,17.6-5.6,24.3c0,0,6.5-10.6,14.4-17.1
		C-19.8,376.5-14.3,366.9-15.3,357z"/>
	<path class="st1" d="M77.5,399.9c0,0-5.5,3.7-11.4,14.1s-7.8,18.7-7.8,18.7s1.7-0.1,4.6-0.7c0,0,8.3-11.6,12.1-15.5
		C75,416.6,78,409.4,77.5,399.9z"/>
	<path class="st1" d="M61.7,440.7c0,0,3.5-9.8,11.3-18.7c8.2-9.3,15.3-13.8,15.3-13.8s-1.8,8.3-7.4,17.7c-5.5,9.5-9,12.8-9,12.8
		S67.3,439.3,61.7,440.7z"/>
	<path class="st1" d="M-34.2,403.1c0,0-1,8.3,1.9,16.7c0,0,3.2,5,5.4,8.9c0,0,1.5,0.8,4,2.1C-22.9,430.8-25.4,412.8-34.2,403.1z"/>
	<path class="st1" d="M-46.4,407.4c0,0,0.6,9.8,4.7,18.9c4.1,9.1,8.3,14,8.3,14s5.1-0.1,9.1,0.2c0,0-2.2-10-10.2-20.4
		C-41.8,410.7-46.4,407.4-46.4,407.4z"/>
	<path class="st1" d="M61.6,434.4c0,0-1.3,3.5-2.8,7.2c0,0-7.4,4.1-16.3,7.3s-17.1,4.2-17.1,4.2s5-8.5,16.7-13.5
		S61.6,434.4,61.6,434.4z"/>
	<path class="st1" d="M-25,432.2c0,0,1.9,4.7,2.9,8.4c0,0,3.8,0.8,10.3,2.4C-11.8,443-18.6,434.9-25,432.2z"/>
	<path class="st1" d="M14.8,453.1c0,0-3.4-6.4-13.6-12.3c-13.5-7.8-19.4-7.4-19.4-7.4s2.6,3.6,9.8,9.6
		C-0.7,449.4,6.7,453.4,14.8,453.1z"/>
	<path class="st1" d="M-34.2,442.2c0,0,4.6,5.9,19,11.8c12.3,5.1,29.6,3.7,29.6,3.7l-3.7,4.5l2.9,2.3l7.2-7.3l6.3,6.4
		c1-0.4,3.5-2.7,3.5-2.7l-3.9-3.8c0,0,11.6,0.9,26.5-3.1c14.9-4,19.9-13.1,19.9-13.1s-8,0.1-22.1,6.4c-11,4.9-21.7,8.1-27.7,7.1
		c0,0,1.5-3.2,5.9-8.1l-2.1-1.7l-6.3,6.4l-5.9-6.4l-3,1.8c0,0,2.5,3,6.2,7.6c0,0-2.8,2.1-9.8-0.4C1,451.1-18.5,439.8-34.2,442.2z"/>
</g>
</svg>
