<?xml version="1.0" encoding="utf-8"?>
<!-- Generator: Adobe Illustrator 19.0.0, SVG Export Plug-In . SVG Version: 6.00 Build 0)  -->
<svg version="1.1"
	 id="svg2" xmlns:dc="http://purl.org/dc/elements/1.1/" xmlns:rdf="http://www.w3.org/1999/02/22-rdf-syntax-ns#" xmlns:cc="http://creativecommons.org/ns#" xmlns:svg="http://www.w3.org/2000/svg"
	 xmlns="http://www.w3.org/2000/svg" xmlns:xlink="http://www.w3.org/1999/xlink" x="0px" y="0px" viewBox="-230 322 150 150"
	 style="enable-background:new -230 322 150 150;" xml:space="preserve">
<style type="text/css">
	.st0{fill:#231F20;}
	.st1{fill:#FDDD04;}
	.st2{fill:#FFFFFF;}
	.st3{fill:#007F4B;}
</style>
<g>
	<path id="path14" class="st0" d="M-147.5,441.7c-0.1-0.1-0.2-0.2-0.3-0.7c-0.3-1-0.4-3.8,1-6.1c1.3-2.2,2.9-3.6,4.1-4.3
		c1.2-0.7,3-1.7,2.3-1.3s1.3-0.6,1.9-1c0.6-0.3,1.9-1.3,2.9-2.3c1.6-1.5,2.8-4.5,3.5-6.9c0.1,0,0.4,0,0.4,0c-0.4,3,0.3,5.2,0.8,7.6
		c0,0,0.5-1.2,0.7-2.1c0.5-2.1,1.2-4.3,2.2-5.9c0.4-0.6,2.2-2.6,2.2-3.1c0.1-0.3,0.2-0.3,0.3-0.5c-4.9,0-9,0.5-13.9,0.2
		c-4.8-0.3-10.8-1.5-16.7-1.5c-8.6,0.1-19.4,1.9-27.5,4c0.1,0.1,1.5,2.2,1.7,2.5c0.4,0.6,0.9,1.3,2.1,1.8c0.1-0.8,0.1-2,0.2-2.9
		c0,0,0.5,0.6,0.6,0.8c0.1,0.2,0.5,0.6,0.6,0.8c0.8,1.1,1.5,1.7,2.5,2.5c2.8,2.2,6.4,3.6,9.5,5.5c1.8,1.1,3.3,2.9,4.7,4.5
		c1.5,1.8,2.9,3,3.4,5.9l0.2,0.6c0.6-0.4,0.9-0.5,2-0.5c2.8,0,6,1.1,7.1,3.1C-148.8,442.6-147.7,441.9-147.5,441.7L-147.5,441.7z
		 M-178.1,375.5c-1.8,10.8-4.7,21.5-7,32.1c-0.7,3.3-1.5,6.9-2.3,10l0.9-2c0.2-0.5,0.6-1.2,0.9-2.2c1.2-3.5,3-9.3,3.3-10.4
		c0.3-1.1,0.8-2.6,1-3.8c0.3-1.1,0.5-2,0.6-2.4c1.7-6.5,2.4-13.2,2.9-21.3C-177.7,375.5-178.1,375.5-178.1,375.5z M-181.5,370.4
		c-0.3,0.4-2.8,2.6-4.1,3.9c-0.6,0.5-2,1.3-2.4,2c-0.2,0.4-0.1,0.9-0.3,1.4c-0.2,0.4-0.8,1.2-0.9,1.6c-0.4,1.6-0.9,3.5-1,5.1
		c-0.4,4.2,0.8,7.6,0.4,12c-0.3,3.7-1.5,7-2.3,10.2c1.1,0.9,1.9,2,2.6,3.4l0.2-0.6c1.2-5.1,2.1-9,3.1-13.8
		c1.2-5.6,2.5-11.2,3.7-17.1c0.3-1.7,0.9-3.5,1.2-5.1c0.2-0.9,0.6-2.9,0.7-3.9C-180.7,369.5-181.1,369.9-181.5,370.4z M-130.4,458.9
		c-0.3,0.3-0.8,0.9-1.5,1.4c-0.4,0.3-0.9,0.3-1.2,0.2s-0.4-0.5-1.1-1.3s-1.5-1.9-2.3-2.9c-0.8-0.9-1.8-1.6-3-1.8
		c-1.3-0.2-2.2-0.4-4.4-0.9c-1.9-0.4-4.7-1.4-6.2-2.2c-0.8-0.5-1.4-1.3-2.1-2c-0.2,0.1-0.3-0.6-0.8,0.2c-0.2,0.3-0.7,0.6-1.1,0.7
		c-2,0.7-4.1,0.2-5.3-0.8c-0.6-0.5-1-0.9-1.4-1.7c-0.3-0.4-0.6-1.3-0.6-1.8c-0.9,0.1-1.5,0.1-2.1,0.3c-0.6,0.2-1.5,0.4-2,0.7
		c-2.1,1-3.6,2.8-5.3,4.2c-0.6,0.5-1.3,1.1-1.9,1.6c-0.6,0.4-1.1,0.8-1.6,1.3c-0.4,0.3-1,1.1-1.2,1.2c-1,0.9-1.5,2.3-3,2.7
		c-1.5,0.3-5.2-1.1-6.9-1.2c0-0.4,0.3-0.8,0.5-1c1-1,3.3-1.6,4.6-2.3c1.6-1,3.1-2.4,4.5-3.7c0.5-0.4,0.8-0.9,1.2-1.4
		c-4-0.3-7.6-0.7-10.6-2c-1.7-0.7-3.6-1.8-5.1-2.8c-0.5-0.3-1.3-1-1.6-1.2c-0.3-0.2-0.5-0.4-0.9-0.6c-0.8,3.5-1.5,7-2.2,10.5
		c-0.2,1-0.4,1.8-0.6,2.6c-0.1,0.3-0.7,0.2-1.1,0.2c-0.3,0-1.8-0.3-1.9-0.5c-0.2-0.4,0.3-1.9,0.3-2.2c0.2-1.2,1.3-6.9,1.5-7.5
		c0.2-1.3,0.9-4.3,1.1-5.3c0,0-3.2-3.5-3.5-3.9c-1-1.2-2.2-2-3.4-2.9c-0.1-0.1-0.6-0.3-0.6-0.3c0.3-0.1,2-0.5,2.6-0.5
		c0,0-0.8-0.3-0.7-0.3c-2.9-1.5-5.2-4.5-6.7-7.2c-0.4-0.8-1.2-2.4-1.3-2.3c-0.3-0.6-0.8-1.8-1-2.3c-0.8-2-2-7.3-1.6-5.4
		c0,0-0.3-1.1-0.7-3.2c-0.4-2.1-0.7-2.9-1-4.3c-0.9-2.8-2.2-6.5-2.5-7.7c-0.1-0.3-0.5-1.3-0.5-1.3s1.1,0.6,1.2,0.7
		c-1.1-3.5-1.9-7.8-1.3-12.5c0.8-6.6,3.8-11.2,6-16.3c0.5-1.1,0.8-1.8,1.4-3.3c0.1-0.3,0.6-1.7,0.7-1.8c0.1-0.8,0.2-1.3,0.4-2.1
		c0.4-1.3,1.1-3,1.8-4.2c1-1.9,2.4-4,3.1-4.7c0.7-0.8,2.1-2.4,2.3-2.6c0,0,5.1-4.6,7.7-6c1-0.5,1.9-0.8,2.8-1.4
		c1.8-1.1,3.7-2.4,5.7-3.4c-0.8,1.6-1.7,2.7-2.2,4.5c0.1,0,0.4-0.1,0.4,0c3.6-5.4,8.7-9.7,17.9-10.9c3.1-0.4,6.9,1.2,10.7,0.6v0.9
		c-2,1.4-3.5,2.5-5.4,4c-2.3,1.8-4.5,3.5-6.6,5.5c-0.5,0.5-3.4,3.4-3.5,3.5c1.7-0.8,4.1-1,5.8-1.1c4-0.2,8.9,1.6,12.7,0.6
		c-0.9,1.1-1.6,1.1-2.5,2c-1.6,1.4-2.7,3.5-4.3,4.8c-2.1,1.6-4.5,2.8-7.2,3.9c0,0,0,0.4,0,0.4c0.8-0.1,1.6,0.2,1.5,0.3
		c-0.9,0.9-2.3,1.4-3.3,2.2c-1.7,1.4-3.1,3-4.9,4.3c0.8,1.4,0.6,2.1,0,3.2c1.9-0.4,4.5-1.3,6.1-1.7c4.9-1.3,9-1.6,14.5-2
		c2.1-0.2,4.6-0.3,7.1-0.2c1.3,0.1,7.9,0.2,6,0.1c4.1,0.3,7.2,0.6,10.2,0.8c-0.3-0.3-0.8-0.6-1.1-1c-0.3-0.3-0.6-0.5-0.9-0.7
		c-0.9-0.7-1.8-1.6-2.6-2.3c-0.5-0.5-0.8-1.1-1.5-1.6c-1.7-1.1-3.4-1.6-5-2.7c-1.7-1.2-3.2-3-4.7-4.5c-1.3-1.4-2.7-2.5-3.9-4
		c2.6,0.4,5.4,1,8.4,0.8c1.3-0.1,2.8-0.3,4.3-0.5v-0.2c0,0-1-1.2-1.3-1.5c-1.1-1-2.1-2.4-3-3.5c-1.3-1.6-2.3-3.2-3.6-4.8
		c-1.2-1.6-2.5-2.8-3.6-4.5c2,0.8,3.9,2.3,6.5,2.6c3.8,0.4,7-0.5,10.6,0c0.9,0.1,2.9,0.9,3.4,1.2s1,1.1,1.4,1.2
		c1.1,0.3-0.4-1.4,0.6-1c0.6,0.2,1,1.3,1.4,1.8c0.7,0.9,1.4,1.8,2.3,2.5c1.3,0.8,4.7,2.7,4.8,2.8c6.5,3.6,15.2,8,15.6,17.1
		c-0.1-0.1,0.1,0.8,0.1,0.8l0,2.6c0-0.2-0.3-4.4-0.1-4.4c0.1,0.1,0.9,2,1,2.3c0.3,0.8,0.6,1.9,1,3c0.6,1.6,1.2,3.1,2,4.6
		c1,2,2.3,4.3,3.3,6.3c0.8,1.7,1.2,3,1.7,5c0.7,2.4,1.6,5.9,1.9,8.7c0.3,3.2-0.1,6.4-0.8,8.8c0.3-0.1,1-0.2,1-0.2s-2.8,4.4-3.7,6.6
		c-1.3,3-1,5.5-2,9.3c-0.3,1-0.8,3.1-1.2,3.9c-1.3,3.1-2.7,5.9-5.2,8.2c-1.4,1.3-2.5,2.3-3.4,3.1l-0.7,0.5c1.3-0.2,2.1-0.3,3.3-0.4
		c0,0,0,0.4,0,0.4c-0.6,0.3-1.5,0.5-2.1,0.9c-0.4,0.3-0.7,0.9-1,1.2c-0.9,0.7-1.7,1.4-2.6,2.1c-1.4,1.1-2.6,1.8-3.9,3
		c-0.9,0.9-1.8,2.1-2.7,3c-0.8,0.8-2.9,2.3-3,2.4c-2.5,2.1-15.5,6.5-18.6,6.5c0,0,0.5,0.2,0.5,0.3c0.7,0.2,1.5,0.4,2.2,0.5
		c1,0.2,1.9,0.3,2.8,0.7c1.1,0.4,6.6,4.2,4.5,5.7C-129.5,458-130,458.6-130.4,458.9"/>
	<path id="path16" class="st1" d="M-179.1,422.5c-0.1,0.9-0.2,2.2-0.4,2.9c-0.5,1.6-0.9,3.6,0.8,6.3c0.2,0.4,0.1,0.9,0.4,1
		c0.7,0.4,2.1,0.5,3,0.7c1.5,0.4,2.7,0.8,4,1.3c0.5,0.2,1.5,0.9,1.7,1c-2.1-2.1-4.2-5-6.1-7.1c-0.5-0.6-1.4-1.6-1.9-2.3
		c-0.7-1.1-0.5-1.6-1.2-2.8C-178.8,423.5-179,422.6-179.1,422.5"/>
	<path id="path18" class="st1" d="M-129.9,456.7c-0.8-1-1.4-1.9-2.3-2.6c-0.3-0.2-0.6-0.4-1.5-0.9c-0.9-0.6-4.1-0.8-6.7-1.7
		c-0.3-0.1-2.1-0.7-2.4-0.8c-0.6-0.3-1.2-0.6-1.8-0.9c-1.5-0.9-2.6-2.4-3.9-3.6c-0.1,0.1-0.4,0-0.4,0c0.1,0-0.3,0.4-0.5,0.8
		c-0.6,0.8-1.4,1.3-2.4,1.7c0.1,0.3,0.3,0.4,0.4,0.7c0.2,0.3,1.4,1.2,1,0.9c2.2,1.4,1.8,1.1,4.5,2c0.1,0,2.2,0.7,2.4,0.8
		c2.5,0.5,5.5,1,6.3,1.6c0.8,0.6,3.4,3.4,3.9,4.2c0.6,1,0.6,1,1.6,0.3c0.3-0.2,1-0.9,1.4-1.3C-130,457.4-129.6,457.1-129.9,456.7"/>
	<path id="path20" class="st1" d="M-190.7,378.1c-0.9,0.2-3.6,2.9-4.7,3.4c-0.1,0-0.1,0-0.2,0c-0.3,0.9,0.2,2.8,0,3.9
		c0,0,0.4,0,0.4,0c1.3-2.8,3-4.8,4.8-7.1C-190.4,378.3-190.3,378-190.7,378.1"/>
	<path id="path22" class="st1" d="M-105,371.3c-0.5,1.5-0.9,2.8-1.4,4.3c-0.3,0.8-0.9,2.6-1.2,3.5c-0.6,2-0.9,2.8-1.6,4.9
		c-0.9,2.8-2,6.7-2.8,10.1c-0.9,3.9-1.4,5.5-2.3,9.6c0.2,0.1,0.8,1.9,1.1,3.6c0.3,1.7,0.2,3,0.5,6.2c0.1-0.1,1.3-1.4,1.5-1.5
		c0-0.1,1.9-2.2,2.7-2.8c0.6-0.5,1.3-1,1.8-1.5c-3.2-10.5,0.8-24.9,2.8-34.2c0.3-1.2,0.6-3,0.7-4.2c0.1-2-0.3-3.5-0.5-5.2
		C-103.7,364.2-104.3,369.1-105,371.3"/>
	<path id="path24" class="st1" d="M-109.6,431.2c0.9-1.1,2-1.9,2.3-2.2c3.2-2.4,5-5.6,6.6-9.6c0.4-1,0.9-2.3,1.1-3.4
		c0.4-1.6,0.8-3.1,1-4.7c0-0.1,0.3-1.6,0.3-1.8c0.1-0.8,0.5-2.4,0.8-3.3c-0.2,0.1-0.4,0.3-0.6,0.5c-0.3,0.3-1.7,2.4-2,2.9
		c-0.8,1.3-1.6,2.6-2.3,3.9c-1,1.6-1.8,3.2-2.9,4.7c-3.3,4.3-7.2,7.5-11,11c-0.2,0.1-1,0.9-1.1,1c-0.5,0.6-0.6,0.7-1.1,1.3
		c-0.1,0.2-0.7,0.9-0.7,1.1c-0.1,0.2-0.3,0.5-0.4,0.7c1.3,0,2.7-0.5,3.6-0.6c2.4-0.3,3.8-0.5,6.1-0.8L-109.6,431.2"/>
	<path id="path26" class="st1" d="M-137.8,349c1.1-0.1,2-0.1,3,0.1c2.5,0.6,4.2,1.1,5.5,2c0.2,0.2,1.3,0.7,2.1,1.3
		c0.9,0.6,1.3,1.1,1.8,1.5c0.5,0.3,1.2,0.8,1.4,0.9c-1.1-2.2-2-5.5-2.4-8.3c-0.2-1.3-0.1-2.5-0.5-3.7c-0.3-1-1.5-1.5-2.2-2.2
		c-1.2-1.3-1.8-2.2-5.8-2.5c-2-0.2-4.1,0.2-6,0.2c-1.8,0-3.6,0-6.3-1c0.2,0.1,0.8,0.7,1.4,1.1c0.4,0.3,0.9,0.5,1.4,0.8
		c1.2,0.7,2.7,1.4,3.9,2c1.3,0.6,2.6,1,3.9,1.6c1.9,0.8,3.8,1.9,5.5,2.9c1.1,0.7,2.3,1.5,3.3,2.3c0.2,0.2,0.3,0.8,0.4,0.9
		c-0.6-0.4-1.2-0.6-1.8-1c-1.6-1-3-2-4.8-2.8c-1-0.5-2-1.1-3-1.6c-1.5-0.7-2.9-1-4.3-1.7c-1.3-0.6-1.9-1.1-3.3-1.8
		c-0.4-0.2-1.3-0.9-1.4-0.9c-0.5-0.3-0.8-0.7-1-0.7c0.6,0.8,1.8,2.4,2.4,3.1c0.9,1.1,1.6,2.2,2.5,3.3c0.9,1.1,2.1,2.3,3,3.4
		c0.1-0.1,0.2,0.1,0.3,0.2L-137.8,349"/>
	<path id="path28" class="st1" d="M-111.2,364.9c-2.6,0.3-5.4,0.4-8.3,0.6c-1.4,0.1-2.8,0.2-4.2,0.3c-1.3,0.1-3,0-4.1,0.1
		c-0.5,0-2.1-0.1-3-0.1l-4.4-3.6c-0.1-0.2-1.2-1-1.2-1.2c2.1,0.5,4.5,0.8,6.1,0.6c1.2-0.1,2.9-0.6,4.1-0.8c3.5-0.5,7-0.2,9.5,0.7
		c2,0.7,3.6,2,4.1,2.3C-112.2,364.1-111.2,364.9-111.2,364.9"/>
	<path id="path30" class="st1" d="M-110.4,364.8c2-0.3,3.6-0.8,5.3-1.2l0.5-0.1c0,0,0-0.9,0-1.2c-0.1-0.7-0.2-1.4-0.4-2.1
		c-0.5-1.4-1.3-3-2.1-4.2c-2.8-4.2-7.8-7.3-12.5-9.7c-1.6-0.9-3-1.6-4.7-2.4c0.1,0.2,0.5,0.7,0.6,0.9c0.2,0.7,1.8,2.2,2.3,2.9
		c1.7,2,3.2,4,5,5.9c2.4,2.5,4.9,5.3,7.2,7.8c0.3,0.3,0.5,0.8,0.8,1c0.3,0.2-0.4,0.4-0.4,0.4c-1-1.3-2.3-2.2-3.3-3.4
		c-2-2.6-4.6-4.7-6.8-7.2c-2.3-2.7-4.9-5.5-6.6-8.7c0,0-0.6-0.8-0.6-0.8c0.5,2.2,0.9,5.9,1.6,8.4c0.6,2.4,1.6,4.2,2.8,6.1
		c0.4,0.7,1.2,2.5,1.3,2.5c0.9,0.2,1.6,0.5,2.5,0.7c1.1,0.2,1.8,0.5,3,1c1,0.5,1.5,0.9,1.9,1.2
		C-110.9,364.1-110.4,364.8-110.4,364.8"/>
	<path id="path32" class="st1" d="M-197.5,452c-0.1,0.5-0.3,1.5-0.3,2.1c0.5,0.1,1,0.2,1.7,0.3c0.6-2.6,1.2-6,1.8-9
		c3.8-18.2,8.3-35.4,12.1-53.5c0.3-1.6,0.9-3.5,1.3-5.1c0.7-3.2,1.1-6,1.8-9.1c0.5-2.4,1.3-5.2,1.5-7.7c-0.9,0.4-1.5,0.2-2.2,0
		c-0.4,1.5-0.7,3.2-1,4.8c-2.4,10.7-4.6,21.6-7.1,32.3c-0.9,3.6-1.6,7.3-2.4,10.9c-1.4,5.6-2.4,11.3-3.7,17.4
		c-0.6,3-1.5,6.6-1.9,9.5C-196.4,445.9-197.4,451.5-197.5,452"/>
	<path id="path34" class="st1" d="M-167.8,334.3c-1.7,0.2-3.7,0.5-5.1,0.9c-6,2-9.7,4.8-13.2,9.5c-0.3,0.4-0.7,1-1,1.4
		c-0.5,0.6-1.4,1-1.8,1.8c-0.8,1.4-1.1,3.7-1.2,5.2c1-1,1.8-1.9,2.7-3c0.5-0.6,1.2-1.3,1.6-1.8c0.3-0.3,0.3-0.3,0.6-0.6
		c1.3-1.3,2.8-2.6,4.2-3.7c5.7-4.4,10-6.6,18-9l-0.2-0.3C-164.6,334.6-166.2,334.2-167.8,334.3"/>
	<path id="path36" class="st1" d="M-181.1,369.1c-0.5-0.5-0.6-2.1-0.4-2.7c0.2-0.5,0.6-1.2,1.2-1.6c1-0.7,3.1-0.6,3.9,0.3
		c1.3-1.2,3.5-2.9,5-4.4c0,0,1.5-0.9,1.5-0.9c-3.1,0-7.4-0.3-10.9,0.2c-4.3,0.5-10.7,2.7-13.5,4.8c-1.1,0.8-1.6,2.5-2.4,3.6
		c-1.7,2.3-3.6,4.5-5.5,6.6c-0.8,0.9-1.2,1.6-1.9,2.5c-0.3-0.2-1,0-1.2-0.1c0.2-1.2,0.8-1.6,1.6-2.4c0.3-0.3,0.5-0.6,0.8-0.9
		c2.9-2.7,5.2-5.8,7.3-9.3c1.2-2,2.7-4,3.4-6.6c1-3.4,1.3-7.2,2.4-10.6c0.2-0.7,0.9-1.4,1.2-2c0.5-1.1,1-2.2,1.7-3.5
		c-0.1,0-1,0.7-1.1,0.6c-1.5,1-2.6,1.6-2.8,1.7c-1.6,0.9-2.8,1.3-4.3,2.3c-0.6,0.4-2.2,1.8-2.8,2.3c-5.3,4.5-9.4,9.8-10.7,18.2
		c-0.2,1.1,0.1,2.7,0.2,3.6c0.3,3.6,0.6,6.5,1.5,9.3c0.6-0.4,1.6-1.2,2.5-2c1.2-1.1,1.8-1.9,2.8-2.2c0.4-0.2,0.5-0.1,0.8-0.2
		c-0.5,1.8-0.3,4.3,0,6.1c0,0,0.4-0.4,0.4-0.3c3.8-6,8.8-10.3,14.5-14.4c2.2-1.6,4.3-2.9,6.9-4.1c-1.2,0.9-2.5,2-3.7,2.8
		c-0.7,0.5-1.4,0.9-2.1,1.4c-0.4,0.3-0.9,0.7-1.2,1c-0.5,0.4-0.9,0.6-1.4,0.9c-0.3,0.2-0.6,0.5-0.9,0.7c-3.8,2.9-7,6-9.7,9.9
		c-1.1,1.5-2.7,2.5-2.6,5c0.1-0.1,1-0.9,1.2-1.2c0.4-0.5,1-1,1.5-1.4c1.3-1,0.8-1.7,1.2-3.3c0.1,0.1,0.5,0,0.6,0
		c0.5,1.3,0.1,0.5,1,1c1.3-0.8,2.7-1.7,4-2.6c0.4-0.3,2.5-1.7,3-2.1c0.6-0.4,2.2-1.7,2.7-2.2c1.5-1.3,2-1.6,3.4-3.1
		C-181.4,369.6-181,369.1-181.1,369.1"/>
	<path id="path38" class="st1" d="M-168.6,348c-1.4,0.1-5.9,1-7.6,2c-1,0.6-1.9,1.6-2.8,2.2c-2.4,1.5-4.6,2.8-7.2,4
		c-1.6,0.8-2.5,1.6-5.1,1.6c-0.7,2.1-1.8,3.4-2.4,5.4c3.2-1.5,5.6-2.9,9.6-3.8c1.6-0.4,3.4-0.7,4.9-0.8c2.3-0.2,4.9,0.4,7.2,0
		c0.7-0.1,1.6-0.8,2.2-1c4.3-1.6,7.7-3.9,10.2-7.2c0.4-0.5,1.2-1.1,1.6-1.6C-160.5,348.6-166.6,347.9-168.6,348"/>
	<path id="path40" class="st1" d="M-149.8,349.8c0.1,0.1,0.9,0.7,1,0.8c0.9,0.7,2.7,1,3.5,1.4c0.3,0.1,0.7,0.2,0.9,0.3
		c1,0.4,1.6,0.8,2.7,1.1c1.2,0.4,2.5,1,3.9,1.3c0.4,0.1,1.8,0.5,2.6,0.6c1.1,0.2,1.5,0.3,2.5,0.4c0.4,0.1,1,0.2,1.8,0.3
		c1,0.2,1.7,0.6,2.6,0.9c0.5,0.2,1,0.4,1.4,0.5c0.2,0.1,0.5,0,0.8,0c0,0,0.5,0.6-0.6,0.6c-1,0-2.9-0.9-4.2-1.2
		c-3.4-0.7-7-1.2-10.3-2.6c-1.9-0.8-4.7-1.9-6.7-2.6c0.2,0.2,1.1,0.8,1.3,1c0.2,0.3,0.8,0.9,1,1.1c1.9,2,3.8,3.3,6.4,4.6
		c1.1,0.5,1.8,1,3.1,1.4c0.6,0.2,1.3,0.4,1.9,0.5c1.1,0.2,2.9,0.5,4,0.3c2.9-0.5,5.5-1,9.2-1c-0.2-0.2-0.3-0.5-0.5-1
		c-0.2-0.6-0.7-1.3-1-1.7c-0.4-0.6-0.8-0.9-1.4-1.4c-0.9-0.8-2.3-1.5-3.3-2.4c-0.7-0.6-1.3-0.7-2-1.2c-1.1-0.7-2.7-1.6-4.5-2
		c-1.9-0.5-3-0.5-4.5-0.3C-142.3,350.2-145.8,350.4-149.8,349.8"/>
	<path id="path42" class="st1" d="M-179.1,365.3c-2.1,0.4-2.6,4.7,1.1,4.1C-175.6,369-175.8,364.7-179.1,365.3"/>
	<path id="path44" class="st1" d="M-209.6,369c-2.8,5-5.4,10.7-6.5,17.9c-0.2,1.4,0.1,3.5,0.3,5.3c0.2,1.7,0.5,4.2,1.1,5.8
		c0.6,1.7,0.7,2.2,0.9,2.5c0.6,0.9,1,1.2,1.3,1.4c1.3,1.2,2.5,2.4,4,3.7c1.8,1.4,4.2,1.9,6.2,3.1c1.3,0.7,2.6,1.9,3.7,2.8
		c0.3,0.2,1.7,1.5,1.9,1.6c0.7-0.9,1.1-1.9,1.7-3c2.1-4.1,4-9.2,4.4-14.8c0.3-3.6-1.1-7.1-0.6-11.1c0.2-1.2,0.6-2.2,0.8-3.7
		c0,0-0.3-0.2-0.3-0.2c-2,1.9-2.6,3.8-3.9,6.5c-0.4,0.9-1.3,1.9-1.5,2.8c-0.4,1.4-0.3,2.3-0.6,3.7c-0.9,4.3-1.9,9-3.1,12.9
		c-0.3,0.8-0.4,1.5-0.8,2.2c-0.1,0-0.6,0.2-0.9,0.3c0,0-0.2-0.8-0.2-1c0.2-1.1,0.9-2.8,1.4-4c1-3.1,1.5-6.1,2.2-9.7
		c0.7-3.4,1.7-7.8,1.2-11.1c-0.8,0.8-2,1.5-2.7,2.4c-0.3,0.3-1.2,1.4-1.4,1.6c-0.7,1-0.6,1.6-1.3,2.6c-0.3,0.4-1.3,1.6-1.4,2.2
		c-0.2,0.9,0.5,2.3,0.6,3.1c0.5,4.2,0.6,8.9,0.2,12.7c-0.3-0.1-0.7-0.2-1-0.3c0.3-3.7,0.5-7.3,0.1-10.8c-0.3-2.6-1.4-5.7-1.9-7.6
		c-0.8-3.3-1.6-5.6-2-7.1c-0.6-2.2-1.2-6.9-1.2-6.9s-0.5-2.9-0.7-3.7L-209.6,369"/>
	<path id="path46" class="st1" d="M-102.5,369.4c-0.1,1.9-0.5,5-1.1,7c-0.1,0.3-0.3,1.6-0.4,2c-0.3,1-0.4,1.5-0.6,2.6
		c-0.2,0.9-0.4,2.1-0.6,3c-0.9,4.2-1.4,8-1.5,12.4c-0.1,3.6,0.2,7.3,0.9,10.8c3-1.6,5.5-2.7,8.2-4.1c0.6-0.3,2.1-0.9,2.4-1.4
		c0.5-0.7,0.6-1.9,0.7-2.9c0.5-3.9,0.2-8-0.6-11.5c-0.3-1.2-0.6-2.8-0.9-3.9c-0.5-2-1.1-3.9-1.9-5.6c-0.9-2-2.8-5.8-3.9-7.8l0.3,2.3
		c0.6,2.8,1.2,6.1,1.6,9c0.7,5.6,1,12.4,0,17.5c-0.3,1.4-0.2,1.8-0.8,2.1c0.3-1.7,0.3-3.5,0.5-5.3c0.2-1.8,0.3-4,0.2-5.5
		c-0.2-3.2-0.4-5.8-0.8-8.8c-0.4-3.2-1.1-6.6-1.4-9.6L-102.5,369.4"/>
	<path id="path48" class="st1" d="M-202.5,377.5c-0.3,0.3-1,1.1-2,2c-1,0.9-2.2,1.9-2.2,1.9s0.6,2.7,1,4.4c0.4,1.7,0.9,3.2,1.6,4.8
		c0,0,0.8-0.9,0.8-0.9c0.7-1,1.3-1.7,1.5-2.9c0.6-3-0.2-6.9,0-9.8L-202.5,377.5"/>
	<path id="path50" class="st1" d="M-194.5,432.8c0,0-1.6,0-2.4,0c-1.2,0-1.8-0.6-5.2-0.3c0.5,0.3,0.8,0.5,1.1,0.7
		c0.5,0.5,1.2,0.8,1.7,1.3c1.2,1.1,1.5,1.8,2.8,3.1c0.1,0.1,0.4,0.6,0.5,0.7c0.2-0.9,0.5-1.8,0.7-2.8
		C-194.9,434.5-194.7,434.1-194.5,432.8"/>
	<path id="path52" class="st1" d="M-194.3,431.9c0.8-3.8,1.5-7.3,2.3-10.7c-0.2-0.1-1.3-2.8-2.6-4.2c-1-1.1-2.2-2.6-3.3-3.6
		c-1.7-1.4-2.7-2.7-4.6-3.8c-0.7-0.4-2-0.9-2.7-1.3c-1.2-0.6-2.1-1-3.2-1.7c-0.4-0.3-1.8-1.6-2.2-1.9c-1-0.7-2.9-2.8-3.6-3.3
		c-0.1-0.1-0.9-1-1-1.1c0.6,1.5,1.7,4.2,2.1,5.8c0.4,1.8,0.9,3.3,1.3,5.2c0.7,3.2,1.8,6.9,2.5,8.8c0.4,1.1,1.4,2.7,2.1,3.8
		c2.6,4.3,5.6,8.3,12,7.9L-194.3,431.9"/>
	<path id="path54" class="st1" d="M-97.3,404c-2,0.7-4.4,2.2-6.1,3.1c-1.4,0.8-2.7,1.5-3.8,2.4c-1.1,0.9-4,3.6-4.3,4
		c-0.2,0.3-1.2,1-1.2,1c-0.2,3-0.9,5.6-1.7,8.2c-0.5,1.8-1.3,3.3-2.1,5.1c2-1.8,3.3-3,4.8-4.4c1.9-1.8,4-3.7,5.5-5.8
		c2-2.7,3.5-5.9,5.4-8.8c1-1.4,3.5-4.1,4.7-5.3C-96.2,403.6-97.3,404.1-97.3,404"/>
	<path id="path56" class="st1" d="M-182.1,421.3c-0.7-0.7-1.2-2.9-2.2-3.1c-0.4-0.1-1.2,0.4-1.5,0.4c-0.8,0.2-1.6,0-1.9,0.6
		c-0.3,0.5-0.3,1.2-0.4,1.8c-0.4,1.9-0.9,3.8-1.4,6c-0.3,1.6-0.8,3.5-1.2,5.2c1.7,0.4,3.7,0.1,5.8,0.1c2,0,4,0.4,5.5,0.3
		c-2.4-4.8-1.4-5.5-0.7-9.6C-180.4,422.7-181.7,421.7-182.1,421.3"/>
	<path id="path58" class="st1" d="M-130.5,429.1c-0.1,0.3,0.3,5,0.3,5c0.1-0.1,0.2-0.7,0.4-0.7c0.2-0.1,0.7-1,0.8-1.2
		c1-1.4,2.4-2.8,3.2-4.3c1.5-2.6,3-5.5,4.3-8.2c0.5-1.2,0.9-2.1,1.4-3.3c0.1,0,0.4-0.1,0.5-0.2c-0.3,1-0.5,1.7-0.8,2.6
		c-0.6,1.8-1.5,3.2-2.2,4.8c-0.9,1.9-1.8,3.6-2.8,5.3c-1.3,2-3.3,3.6-4.2,6c1.5-0.2,2.8-0.5,4.1-0.7c1.2-0.2,3-0.1,4-0.5
		c0.6-0.3,1.4-1.9,1.8-2.5c3.4-5,5.8-11.5,5.9-18.8c0-1.7,0.1-3.3-0.2-4.7c-0.2-0.9-0.5-2.3-0.5-2.3c-0.5,1.4-1.6,8.9-2.5,9.4
		c-0.9,0.5-2.7,0.3-3.8,0.4c-1.1,0.1-2.4,0.3-3.7,0.3c-1,2.2-2.7,3.7-3.7,6.1c-0.6,1.4-1,2.8-1.4,4.5
		C-129.9,426.9-130.4,428.4-130.5,429.1"/>
	<path id="path60" class="st1" d="M-147.8,442.8c7.8-4.7,12.6-6.2,20-7.3c2.7-0.4,5-0.5,7.8-0.9c3.1-0.5,7.3-1.4,10.5-1.6
		c-0.2,0.2-1.3,1.3-1.6,1.4c-1.7,1.4-3.5,2.5-5.1,4c-2.4,2.4-3.2,3.5-5.1,4.7c-2.2,1.4-4.4,2.4-7.1,3.4c-2.5,0.9-5.2,1.8-7.9,2.5
		c-1,0.3-1.6,0.5-2.7,0.7c-0.7,0.1-1.7,0.4-2.7,0.3c-1-0.1-2.7-1.2-3.4-1.8s-3-2.3-3.3-3.1c-0.3-0.6,0-1.1-0.2-1.8L-147.8,442.8"/>
	<path id="path62" class="st1" d="M-158.6,440.3c-0.7,0.5-0.9,0.9-1.3,1.4c-0.7-0.3-2.3-0.1-3.2,0.1c-3.4,1-3.4,1.4-6.2,3
		c-0.9,0.6-1.8,1.2-2.8,1.9c-0.2,0.1-0.8,0.7-1,0.8c-1.5,0.4-4-0.1-5.1-0.3c-6.2-1.1-10.2-3.2-14.3-6.3c0.1,0,0.1-0.4,0.1-0.6
		c0.3-1.1,0.3-1.5,0.4-2c0.4-1.8,0.7-3.5,1.1-5.1c2,0.3,5,0,6.7,0.2c4,0.3,7.8,0.7,11.1,1.8c1.3,0.4,2.5,1.4,3.6,2
		c1,0.5,1.7,0.6,2.6,1.2c0.9,0.6,1.8,1.3,2.7,2c0.1,0.1,0.2,0.4,0.3,0.4c0.3,0.1,0.5-0.1,0.8,0c-0.9-2.1-2.8-3.4-4.7-4.5
		c-0.3-0.2-1-0.8-1.2-1c-0.5-0.7-0.9-1.1-1.5-1.8c-0.4-0.5-0.8-1-1.2-1.5c-1.8-2.3-4.3-4.2-5.7-6.9c-0.3-0.7-0.8-1.7-1-2.3
		c-0.2-0.4-0.4-0.9-0.3-0.9c0.7,1,2.1,2.1,3,2.9c2.8,2.4,6.6,3.4,9.6,5.7c1.8,1.4,3,2.7,4.4,4.4c0.1,0.2,1.2,1.4,1.3,1.5
		c0.6,0.7,1,1.6,1.4,2.4c0.1,0.1,0,0.5,0.2,0.6L-158.6,440.3"/>
	<path id="path64" class="st1" d="M-192.5,407.5c-1,2.4-2.2,4.4-3.4,6.5c0.8,1,1.6,1.9,2.3,3c1,1.3,1.7,2.9,1.7,2.8
		c0.1-0.2,2-8.5,2-8.5C-190,410.2-191.8,408-192.5,407.5"/>
	<path id="path66" class="st1" d="M-132.4,423c-0.6,1.9-1.4,5.9-2.2,7.7c-0.1,0.2-0.3,0.6-0.4,0.8c-0.7,1.2-1.2,2.1-1.8,3.3
		c-0.4,0.7-0.7,1.2-1,2.1c0.1,0,0.1,0.2,0.4,0.2c0.6-0.1,5.2-1.5,5.4-1.8c1.4-2,0.2-8.3-0.2-10.6C-132.3,424.5-132.4,423-132.4,423"
		/>
	<path id="path68" class="st1" d="M-133.6,425c0,0-2.3,3-3.6,3.6c-1.7,0.9-3.4,1.8-4.9,2.8c-0.6,0.4-1.7,1-2.2,1.6
		c-1.6,1.9-3.3,4.2-2.8,7.7c0,0.2,0.2,0.3,0.3,0.4c2.1-1,4.1-2.4,6.3-3.3c0.6-0.3,0.8-0.1,1.3-0.4c0.5-0.4,0.9-1.3,1.1-2
		c0.2-0.4,0.6-0.8,0.8-1.2c1-1.7,1.8-3.7,2.5-5.5c0.3-0.8,0.8-1.7,0.9-2.4C-133.9,426.2-133.6,425-133.6,425"/>
	<path id="path70" class="st1" d="M-157.4,440.4c-0.3,0.1-0.9,0.6-1.2,0.9c-0.3,0.3-1.1,1.2-1.3,1.7c-0.4,1-1,2.1-0.6,3.7
		c0.1,0.2,0.8,2.3,2.7,2.9c0.8,0.3,1.4,0.3,2,0.3s1.3-0.1,1.8-0.5c0.6-0.4,1-0.8,1.3-1.2c0.8-1.5,1-2.7,1.7-4.5c0,0,0.4,1.2,0.3,1.7
		c0.1,0.7-0.5,2.1-0.5,2.1s1.1-0.9,1.4-1.4c0.3-0.5,0.4-0.8,0.6-1.2c0.3-0.6-0.1-1.5-0.1-1.5s-0.5-1.1-1.3-1.7
		C-152.7,440.1-155.6,439.9-157.4,440.4"/>
	<path id="path72" class="st1" d="M-163.1,442.6c-0.8,0.3-1.9,0.6-3,1.2c-1.4,0.8-2.9,2-4.2,2.9c-1.9,1.3-3.4,2.2-5.2,4
		c-0.8,0.8-1.9,1.8-2.8,2.5c-1.7,1.3-3.7,1.7-5,2.7c0.1,0,0.9,0.4,1.4,0.5c0.9,0.2,2.1,0.9,3.2,0.7c1.4-0.3,2.7-2.4,3.7-3.2
		c1.1-0.9,2.1-1.8,3.2-2.7c0.7-0.5,1.1-0.9,1.8-1.5c0.3-0.3,0.7-0.7,1.1-0.9c0.6-0.4,1.4-1.3,1.9-1.7c0.8-0.7,4-1.7,5.9-1.8
		c0.1-0.3,0.3-1,0.4-1.5c0.1-0.5,0.3-0.8,0.7-1.6C-160.5,442.3-162.7,442.5-163.1,442.6"/>
	<path id="path74" class="st1" d="M-159.9,335.3c0,0-2.9,0.3-3,0.4c-0.8,0.3-1.6,0.6-2.4,0.9c-0.7,0.2-1.5,0.5-2.1,0.8
		c-8.6,3.2-15.3,8.3-20.7,14.7c-0.7,0.9-2.1,2.1-2.6,3.1c-0.4,1-0.3,1.6-0.4,2.4c1.6-0.3,4.1-1.6,5.4-2.4c0.4-0.3,2-1,2.7-1.4
		c1.2-0.5,2.5-1.3,3.3-1.9c2.8-1.9,3.1-2.8,5.5-4.7c1.6-1.3,3-3.2,4.6-4.5c2.3-1.9,4.3-3.4,6.7-5.2
		C-162.6,337.2-159.9,335.3-159.9,335.3"/>
	<path id="path76" class="st0" d="M-156.3,443.9v1.1h0.5c0.3,0,0.3-0.2,0.3-0.5c0-0.4-0.2-0.6-0.3-0.6L-156.3,443.9z M-156.3,445.4
		v1.3h-0.7v-3.4h1.2c0.6,0,1,0.2,1,1c0,0.4-0.2,0.7-0.7,0.8c0.6,0.1,0.6,0.5,0.6,1.2c0,0.1,0,0.3,0.1,0.4h-0.6
		c0-0.1-0.1-0.2-0.1-0.4c0-0.4,0-0.4,0-0.6c0-0.2-0.2-0.3-0.3-0.3L-156.3,445.4L-156.3,445.4z M-155.9,447.5c1.3,0,2.4-1.1,2.4-2.5
		c0-1.3-1.1-2.5-2.4-2.5c-1.3,0-2.4,1.1-2.4,2.5C-158.3,446.4-157.2,447.5-155.9,447.5z M-153,445c0,1.6-1.3,2.9-2.9,2.9
		c-1.6,0-2.9-1.3-2.9-2.9c0-1.6,1.3-2.9,2.9-2.9C-154.3,442.1-153,443.4-153,445"/>
	<path id="path78" class="st0" d="M-161.2,349.8c0.4-0.1-0.6,0.9-0.8,0.9c-1,0.4-1.8,0.5-2.8,0.8c-1.5,0.3-3.1,0.9-4.5,1.3
		c-3.8,1.1-7.3,2-10.8,3.3c-1.8,0.7-3.4,1.5-5.3,2.2c0.1-0.1,0-0.5,0.2-0.6c0.7-0.5,2.5-1.1,3.4-1.4c2.6-0.9,5.5-2.2,8.2-3.1
		c1.8-0.6,3.3-0.7,5.1-1.2c1.8-0.5,4.2-1,6.1-1.6C-161.9,350.2-161.6,349.8-161.2,349.8"/>
	<path id="path80" class="st0" d="M-199.7,357.1c0.2-0.4,5.2-7.8,7.9-10.3c0.4-0.3,0.6-0.9,1-1.2c0.7-0.4-1,1.6-1,1.6
		c-2.2,2.4-4.1,5-6,7.8c-0.1,0.2-1.3,1.9-1.4,2c-0.3,0.5-1,2-1,2c-0.1,0.1-1.6,2.3-1.6,2.3c-0.1,0-0.5,1-0.9,2
		c-0.4,1.1-1.1,2-1.6,3.4c-0.5,1.5-1.4,5.8-1.6,9.3c0,0-0.4,0-0.4,0c0-1.7,0.3-3.1,0.4-4.3c0.4-2.7,0.9-4.6,1.8-6.7
		c1.1-2.5,2.5-4.4,3.7-6.4C-200,357.7-199.9,357.5-199.7,357.1"/>
	<path id="path82" class="st0" d="M-210.1,396c-0.3-0.8-0.6-3.2-0.7-3.7c-0.4-2.2-0.9-5-0.8-7.7c0-0.4-0.1-0.6,0-0.9
		c0.1-1.6,0.2-3,0.3-4.7h-0.3c-0.1,2.4-0.7,5.5-0.6,7.7c0.1,2.4,0.8,4.7,1.2,6.7c0.1,0.6,0.4,2.1,0.5,2.7c0.3,1.2,0.4,2.5,0.8,3.4
		c0.4,0.9,0.9,2.6,1.1,3.2c0.2,0.5,0.2,1,0.3,1.1c0.1,0,0.3-0.2,0.4-0.4c0.1-0.2-0.5-1.5-0.9-2.8C-209.1,399.3-210,396.4-210.1,396"
		/>
	<path id="path84" class="st0" d="M-193.1,387.4c0,6.5-1.3,11.6-2.6,17.1c-0.3,1.5-0.8,3-1.4,4.3c-0.1,0-0.6,0.7-0.4-0.2
		c0.1-0.4,0.3-1,0.4-1.6c0.8-3.2,2-6.7,2.6-10C-194,394.4-194,389.9-193.1,387.4"/>
	<path id="path86" class="st0" d="M-108.7,392.3c0.2-0.1,0.2,0.7,0.2,0.9c-0.8,5.9-0.4,11-0.8,15.6l-0.4-0.2
		c0-5.2-0.2-10.2,0.8-15.3C-108.9,392.8-109.2,392.5-108.7,392.3"/>
	<path id="path88" class="st0" d="M-201.9,422.5c1.5,2,4,3.8,6,4.9c0.2,0.1,0.4,0.4,0.8,0.4c0.9,0.2-0.9-1-0.9-1
		c-0.8-0.5-1.4-0.8-2.1-1.4c-0.7-0.6-2.9-2.7-3.2-3.3c-0.6-1-2.6-3.1-3.4-4.5c-0.9-1.4-4.2-6.6-3.8-6c0.2,0.4-2.2-3.2-2.6-3.4
		c-0.1-0.1-0.3,0.2,0,0.2c0.9,1.6,1.6,2.5,2.4,4c0.4,0.7,1.5,2.5,2.3,3.8c0.8,1.3,1,2.2,1.8,3C-204.2,419.7-202.4,422.1-201.9,422.5
		"/>
	<path id="path90" class="st0" d="M-114.7,434.7c1.7-0.3-1.4,1-1.4,1c-1.8,1.5-3.7,2.3-5.7,3.5c-0.7,0.4-1.5,0.9-2.3,1.3
		c-5.6,2.6-11.8,4.7-18.6,6l0.2-0.4c1.5-0.3,2.3-0.6,4.9-1.3c2.1-0.6,3.3-0.9,3.4-0.9c2.8-0.9,3.2-1.1,6-2.2
		c1.1-0.4,3.4-1.4,4.2-1.9c2-1.2,3.8-2.1,5.9-3.3C-117.1,436-115.9,434.9-114.7,434.7"/>
	<path id="path92" class="st0" d="M-188.8,439.5c2,0.7,4.7,1.5,7,1.9c4.8,0.9,10.2,0.9,15.3,0.9v0.3c-7.2,0.6-14.9-0.2-20.4-2.1
		c-0.7-0.2-1.3-0.5-2.1-0.8C-188.9,439.7-189,439.4-188.8,439.5"/>
	<path id="path94" class="st2" d="M-104.8,364.6c-6.2,1.7-20.1,2.8-32.5,1.7c-13.3-1.1-27-0.5-37,3.1c-0.8,0.3-1.7,0.4-2.6,0.7
		c-0.1,3,0.1,5.4-0.1,7.5c-0.2,2.2-0.1,4-0.8,9.7c-0.7,5.7-1.8,9.7-2.4,12c-0.4,1.5-0.6,2.1-0.8,3c-0.3,1.3-1.6,6-2.9,9.5
		c-1.2,3.4-2.4,6.2-2.4,6.2s9.5-2.5,15.4-3.5c5.1-0.9,10.7-1.3,16.4-1.2c3.2,0.1,6.9,0.5,10.1,0.9c8.4,1.2,16.7,0.4,20.5,0.2
		c3.7-0.2,5.3-0.5,5.8-0.5s0.6-0.4,0.8-0.8c0.1-0.2,0.7-3.5,1.7-7.7c1.2-5.5,2.9-12.5,3.8-15.6c2.1-7.3,3-10.1,4.7-15.3
		c1.7-5.4,1.4-4.1,1.9-6.3C-104.9,366-104.8,364.6-104.8,364.6"/>
	<path id="path96" class="st3" d="M-177,375.2c0,0,8.4-2.2,20.1-3.7c7.8-0.9,16,0.3,20.1,0.6s10.4,0.6,12.7,0.5
		c2.3-0.1,5.5-0.1,7.1-0.3c1.6-0.1,4.3-0.5,5.4-0.8c1.2-0.3,3.3-0.8,3.9-0.9c0.6-0.1,1.6,0.2,1.6,0.2l-2.6,8c0,0-0.5-0.3-1.2,0
		c-1.1,0.5-3.3,1.2-6.5,1.3c-10.4,0.3-17,0.2-23.9-0.6c-5.1-0.6-10.3-0.8-17-0.1c-6.7,0.7-10,1.6-14,2.4c-4.2,0.9-6.4,1.9-6.4,1.9
		L-177,375.2"/>
	<path id="path98" class="st3" d="M-178.4,390.2c0,0,11.5-3.6,18.8-4.3s16.9,0.4,25,0.7c8.1,0.3,11.1,0.3,15.6-0.2s8.4-1.4,8.4-1.4
		l-2.3,8.4c0,0-1.4,0.1-3.6,0.5c-2.4,0.4-8,1.6-18.1,0.8c-10.2-0.8-17.7-1.4-25.3-0.6c-9.5,1-12.8,2.5-15.9,3.4
		c-3.1,0.9-4.5,1.7-4.5,1.7L-178.4,390.2"/>
	<path id="path100" class="st3" d="M-181.7,404.6l-3,9.1c0,0,1-0.4,2.5-0.9c1.5-0.5,11.9-3.6,22.1-4.6c6.9-0.7,13.2,0.1,21.3,1
		c8.1,0.9,11.2,0.5,15.6,0.3c4.4-0.2,6.8-0.8,6.8-0.8l1.9-8.4c0,0-5.1,0.2-12.8,1.4c-1.6,0.2-10.3-0.5-15.2-1.1
		c-4.9-0.5-12-1.2-18.2-0.5c-6.5,0.8-8.9,1.3-12.1,2.1C-176,402.9-181.7,404.6-181.7,404.6"/>
	<path id="path102" class="st0" d="M-168.4,370.3l2.6-0.2l1.1-0.1l-0.1,1.1l-0.5,4.5l-1-1l3.4-0.3l-0.8,0.8l0.5-4.5l0.1-0.7l0.7-0.1
		l2.6-0.2l1.1-0.1l-0.1,1.1l-1.4,11.7l-0.1,0.7l-0.7,0.1l-2.6,0.2l-1.1,0.1l0.1-1.1l0.6-5l1,1l-3.4,0.3l0.8-0.8l-0.6,5l-0.1,0.7
		l-0.7,0.1l-2.6,0.2l-1.1,0.1l0.1-1.1l1.4-11.7l0.1-0.7L-168.4,370.3"/>
	<path id="path104" class="st1" d="M-168.4,371.2l2.6-0.2l-0.5,4.5l3.4-0.3l0.5-4.5l2.6-0.2l-1.4,11.7l-2.6,0.2l0.6-5l-3.4,0.3
		l-0.6,5l-2.6,0.2L-168.4,371.2"/>
	<path id="path106" class="st0" d="M-148.2,383.2h3.7l-0.2,1.1l-1.7,11.6l-0.1,0.7h-0.7h-2.6h-1.1l0.2-1.1l1.7-11.6l0.1-0.7H-148.2"
		/>
	<path id="path108" class="st1" d="M-148.1,384.1h2.6l-1.7,11.6h-2.6L-148.1,384.1"/>
	<path id="path110" class="st0" d="M-131.6,398.5h9.4l-0.2,1.1l-0.4,2.2l-0.1,0.7h-0.7h-5.7l0.9-0.7l-0.5,2.9l-0.9-1.1h3.1h1.1
		l-0.2,1.1l-0.4,2l-0.1,0.7h-0.7h-3.1l0.9-0.7l-0.9,4.5l-0.1,0.7h-0.7h-2.6h-1.1l0.2-1.1l2.1-11.6l0.1-0.7L-131.6,398.5"/>
	<path id="path112" class="st1" d="M-131.6,399.4h8.3l-0.4,2.2h-5.7l-0.5,2.9h3.1l-0.4,2h-3.1l-0.9,4.5h-2.6L-131.6,399.4"/>
	<path id="path114" class="st0" d="M-189.8,426.7c0,0,0.2,1.2,0.3,2.6c0.1,1.6-0.4,3.3-0.4,3.3l0.7,0.2c0,0,0.4-2.1,0.4-3.9
		c0-1.8-0.6-4.1-0.6-4.1L-189.8,426.7"/>
</g>
</svg>
