<?xml version="1.0" encoding="utf-8"?>
<!-- Generator: Adobe Illustrator 19.0.0, SVG Export Plug-In . SVG Version: 6.00 Build 0)  -->
<svg version="1.1"
	 id="svg2" xmlns:rdf="http://www.w3.org/1999/02/22-rdf-syntax-ns#" xmlns:dc="http://purl.org/dc/elements/1.1/" xmlns:svg="http://www.w3.org/2000/svg" xmlns:cc="http://creativecommons.org/ns#"
	 xmlns="http://www.w3.org/2000/svg" xmlns:xlink="http://www.w3.org/1999/xlink" x="0px" y="0px" viewBox="256.7 321.7 150 150"
	 style="enable-background:new 256.7 321.7 150 150;" xml:space="preserve">
<style type="text/css">
	.st0{fill:#231F20;}
	.st1{fill:#FDE012;}
	.st2{clip-path:url(#SVGID_2_);}
</style>
<g id="g10" transform="matrix(1.3333333,0,0,-1.3333333,0,534.66667)">
	<g id="g12" transform="scale(0.1)">
		<path id="path14" class="st0" d="M2680.2,1361.3c0.6,10.4,0.4,34.9,3.9,40.1c35.1-17.8,99.2-69.4,123.5-112.9
			c9.4,16.2,13.1,28.9,17.5,32.4c75.3-89.3,80.4-108.1,93.5-140.5c10.7,7.3,21.1,31.1,28.1,38.1c18.4-57.8,34-128.7,24.4-174.3
			c16.7,6,24.4,13.7,37.6,10.2c0.9-49.2-15.6-126.1-45.4-166.4c12.4-4.3,16.3-3,32.6-12c-18.4-42-79.9-94.7-130.7-115.7
			c10.7-7.7,17.7-15.4,27.4-30.3c-32.4,2.6-107.6-58.1-173.4-47.4c0.9-10.5,22.9-25.4,12.4-35c-37.6-4.4-81.7-3.3-94-4.3
			c-6,19.2-2.5,37.1-7.7,44.4c-33.3-33.3-80.9-59.7-184.1-83.3c0,18.4,12.3,25.8,14.5,36.8c-21.9-16.6-58.2-22.6-172.8-43.6
			c7.9,10.5,23.2,35.4,31,44.2c-36.8-4.2-131.3-6.7-165.5,14.3c10.2,14.1,21.6,17.7,28.6,28.2c-42,16.3-76.7,14.1-133.6,66.6
			c14,7.9,20.1,11.1,32.8,16.7c-49.9,30.6-76.2,72.7-97.3,124c35.6,4.2,42.1-5.6,51.9-4.8c-67,74.2-73.5,160.1-67.3,176.7
			c7.9-2.5,14-4.4,21.9-8.8c-25.2,102.9,45,197,52,198.8c14.5-10.8,13.7-26.1,22.9-38.3c14.5,60.9,99.7,129.1,111.6,157.3
			c6.8-11.3,8-24,13.6-40.3c20.2,14,73.1,84.1,80.1,101.6c22.4-19.4-9.3-153.6-19.8-192.1c-10.5-38.5,41.7-42.5,41.7-42.5
			l168.9-20.1l82.3,29.7l84,16.6c0,0,11.1,16.8,9.4,32.5c-7,35.9-64.1,67.6-87.4,184.1C2593.9,1402.7,2647.6,1395.1,2680.2,1361.3"
			/>
		<path id="path16" class="st1" d="M2335,661c-3.9-2.4-7.2-4.5-9.8-6c-17.9-10.4-91.9-17-157.7,3.6c0.5,0.8,1,1.6,1.5,2.4L2335,661z
			 M2376.7,661c-7.2-5.3-11.5-11.1-11.8-17c6.3,5.7,17.8,11.6,31.3,17l79.1,0c-42.7-39.1-148.3-47.7-170.7-52.5
			c6.7,17.4,25.4,36.1,45.7,52.5L2376.7,661z M2524.3,661c-5.5-3.3-10.3-7-14.1-11.2c1.9,4.2,4.2,7.9,7,11.2H2484
			c-12.5-13.8-23.4-29.9-29.6-47.8c13.2,2,69.8,21.8,117.3,47.8L2524.3,661z M2720,661c0.2-1.1,0.3-2.2,0.4-3.4c-28,0-64-3.5-74-4
			c-0.9,2.6-1.6,5-2.3,7.3L2720,661"/>
		<path id="path18" class="st1" d="M2242.4,713.6c0,0,0-0.1,0-0.1c-48.4-23.6-89.2-18.8-127.6,0.1L2242.4,713.6z M2636.8,713.6
			c-9.8-18-35.7-36.4-65.1-52.5l-47.3,0c30.9,18.5,82.9,24.4,86.8,44.2c-40.4-18.7-76.1-22.9-94-44.2H2484c9.1,10,19,18.8,28.5,26.1
			c-53.9,4.5-111.6-8.3-135.9-26.2l-26.4,0c27.4,22.1,57.8,40,66.5,45.4c-16.7-3.9-58.8-31.1-81.8-45.4l-166,0
			c19.6,29.7,65.3,43.3,99.5,52.5L2636.8,713.6z M2669.7,713.6c17.9-15.6,46.4-29.7,50.3-52.5l-75.9,0c-8.1,28.8,0.4,41,6.6,52.5
			L2669.7,713.6z M2822,713.6c-45.3-16.4-101.2-29.7-136.7,0L2822,713.6z M2396.2,661c39.2,15.6,95.1,26.5,89.5,12.1
			c-2.8-4.3-6.3-8.4-10.4-12.1L2396.2,661z M2250.6,675.5c31.5,13.4,90.4,20.4,129.5,23.9C2353.3,685.4,2278.6,675.5,2250.6,675.5"
			/>
		<path id="path20" class="st1" d="M2031,958.6c11.2-38.7,48.4-70.1,46.8-91.1c-32.8,13.2-63.2,50.6-82.6,91.1L2031,958.6z
			 M2952.5,958.6c-23.3-42.5-61.8-80.4-75.2-91.7c14,2.3,76.2,22.9,110.1,7.2c-8.3-25.2-104.2-108.1-133.4-105.8
			c-25.7,7.6-40.9,13.4-55.4,4.7c25.1,1.7,63.3-13.8,82.6-36.5c-13.4-4.3-34.7-14-59.1-22.9l-136.7,0c-4.6,3.9-8.9,8.5-12.8,13.9
			c-30.4,23.9-18.7,26.3-18.7,26.3s-7.6-8.8-13.4-30.9c-0.7-3-1.9-6.1-3.6-9.2l-368.2,0c16.5,4.4,30.3,7.8,37.4,11.6
			c-50.8-14.6-121.4,20.4-154.6,12.8c2.9-8.7,90.5-9.3,91-24.4l-127.6,0c-18.6,9.1-36.6,21.5-54.6,35.6
			c26.7,20.5,112.9,15.5,151.4,16.7c-30.8,5.1-63.2,21.8-153.5,78.3c7.6-30.3,98.6-56.6,97.4-69.4
			c-82.3-14.6-120.2,22.2-161.6,111.5c42.8,7.2,92.2-42.6,130.1-48.4c-32.4,11.8-65.7,92.3-85.5,120.9L2952.5,958.6z M2989.1,958.6
			c-18.9-73.3-52.1-76.5-80.3-78.3c-6.6,13.1,37,43.2,49,78.3L2989.1,958.6z M2650.6,713.6c3,5.6,5.5,11,5.3,18.1
			c2.1-6.6,7.2-12.4,13.7-18.1L2650.6,713.6z M2819.5,733.3c-17.5-10.5-95.1,0-112-5.3C2721.5,746.7,2781.6,732.1,2819.5,733.3z
			 M2909.4,844.1c-9.3-12.8-47.8-45.5-64.2-35.6C2852.7,815.6,2893,833.1,2909.4,844.1"/>
		<path id="path22" class="st1" d="M2037.2,1081.2c2-23.5,3.4-45.8,0.4-51.5c-26.7,8.7-39.9,27.9-44.5,51.5L2037.2,1081.2z
			 M2930.4,1081.2c-4.3-32-9.6-68.3-18.1-83.6c25.7,2.9,55.7,47.4,89.6,49.1c-2.6-37.1-7-65.9-12.8-88.1l-31.3,0
			c1.9,5.5,3,11.1,3,16.8c-2.4-5.6-5.2-11.3-8.2-16.8l-914.1,0c-3.7,5.4-6.9,8.9-9.6,9.8c0.5-3.3,1.3-6.6,2.2-9.8l-35.8,0
			c-15.8,33-24.4,68.1-21.3,94c56.6-23.9,76.5-45.7,91.1-51c-14.2,8.8-19.6,44.9-22.4,79.5L2930.4,1081.2z M2967.7,1081.2
			c0.1-32.6-8.8-58.6-35.6-62.6c-2.1,23.5,0.3,44.1,2.7,62.6L2967.7,1081.2"/>
		<path id="path24" class="st1" d="M1993.1,1081.2c-12,61.8,34.9,153.1,49.6,161.6c29-44,30.4-101.6,44.4-127.3
			c-4.7,30.3-3.5,37.9,47.8,130.7c-5.2,10.5-35.6-45.5-48.4-74.7c-50.8,55.4,59.2,145.9,89.5,185c11.9-30.2-4.9-109.7-11.9-130.1
			c14.6,28.6,63,84.6,78.2,106.2c0,23.9-56.4-80.3-53.5-44.1c1.8,50.8,55.8,89.8,78.5,125.9c15.2-16.3-5.8-104.6-26.2-163.5
			c-20.4-58.9,195.5-121.4,195.5-121.4l204.2,55.4c0,0,37.1,37.4,10.8,73.6c-28,39.7-82.4,102.5-91.8,169.1
			c68.3-54.7,109.7-30.7,133.6-121.7c-52.5,34.4-72.5,68.6-87.6,73.3c22.8-39.1,82.9-70,111.5-121.4c-9.3,46.1-34.4,66.5-28.6,131.9
			c95.7-61.3,121.4-106.8,113.2-158.7c-47.8,37.3-59.5,75.9-71.8,82.3c-2.3-17.5,63-85.2,83.4-112.6c-7,47.3,2.9,106.2,13.4,109.7
			c41.4-50.8,108.5-126.6,71.2-182.1c-21.6,15.8-19.3,72.9-53.1,108c7-33.3,52.5-114.9,49-152.3c11.1,10.5,12.2,74.7,49,117.3
			c11.1-32.1,24.4-80.9,24.5-120.1l-32.9,0c2.2,16.9,4.2,32,2.5,46c-2.3-10.8-4.5-27.7-7-46l-887.8,0c-2,25.1-2.7,49.4-4.5,61.7
			c-8,11.2-3.9-26.6-1-61.7L1993.1,1081.2"/>
		<path id="path26" class="st0" d="M2429.8,1290.8c-175.1,0-350.1-94.1-350.1-267c0-170.7,126.9-312.9,407-312.9
			s422.3,116,422.3,264.8C2909,1264.5,2604.8,1290.8,2429.8,1290.8"/>
		<path id="path28" class="st0" d="M2293,1341.8c0,72.2,58.5,130.6,130.6,130.6c72.2,0,130.6-58.5,130.6-130.6
			c0-72.2-58.5-130.6-130.6-130.6C2351.5,1211.1,2293,1269.6,2293,1341.8"/>
		<g id="g30">
			<g>
				<defs>
					<path id="SVGID_1_" d="M2301.4,1341.8c0,67.5,54.7,122.2,122.2,122.2s122.2-54.7,122.2-122.2c0-67.5-54.7-122.2-122.2-122.2
						S2301.4,1274.3,2301.4,1341.8L2301.4,1341.8z"/>
				</defs>
				<clipPath id="SVGID_2_">
					<use xlink:href="#SVGID_1_"  style="overflow:visible;"/>
				</clipPath>
				<g id="g32" class="st2">
					<path id="path38" class="st1" d="M2399.8,1215l-58.4,27.1l-30,33.8l19.8-3.2l18.4,25.3l48.5-11.2l15-36.7
						c0,0-13.5-24.6-13.3-24.6l19.4,20.9l44.6-5.5l29.1,30.4l27.4-1.1l-26.9,7.1l-9.9,33.6l23.6,41.8l32.9-12.4l8.7,14.8l3.3-19.2
						l-16.7-56.7l-13.7-18l-56.8-40L2399.8,1215"/>
					<path id="path40" class="st1" d="M2337.4,1426.2l19.5-9.8l9.4-31.9l-33.7-39.5l-24.1,19.3l-16.6-23.9l22.2,68l18.9,24.1
						l43.7,28.5l60.9,7.5l46.9-15.7l36.1-29.1l-22.2,4.7l-10-28.6l-46.6,10.5l-11.1,25.9l17.3,21.2l-23.2-16.6l-40,7.9l-25.9-26.8
						L2337.4,1426.2"/>
					<path id="path42" class="st1" d="M2441.7,1406.6l45.2-11.6l16.8-39l-24.4-41.9l-45.4,10.9l-19.6,50.2L2441.7,1406.6"/>
					<path id="path44" class="st1" d="M2429.4,1323.1l-29.7-32.3l-51,11.3l-14.1,39.8l33.7,39.6l41-7.3L2429.4,1323.1"/>
				</g>
			</g>
		</g>
		<path id="path46" class="st1" d="M2144.4,865.7c9.4-63.7,93.5-66.2,106.4-66.2c65.5,0,108.5,18.7,114.8,20
			c0.9-4.9-1.1-23.9,8.2-23.9c12.2,0,25,15.1,30.7,41.3c7.4,4,25.8,13.6,48,28.7l-15.8,0c-9-5.7-18.7-11.1-28.9-16.3
			c1.2,5,2.1,10.5,2.9,16.3l-8.7,0c-0.9-7.8-2.1-14.8-3.6-20.6c-4.8-2.6-11-5.1-11-5.1c0,6.2,0.1,15.2,0.2,25.7l-19.5,0
			c-0.6-10.1-1.3-21.5-2.1-34.1c-24.4-7.8-58-15.2-81.5-15.2c-18.5,0-60.5,14.2-79.6,49.3H2144.4z M2294.8,865.7
			c-4.9-12.2-8.9-24.4-9.6-31.7c5.5,7.5,9.8,11,9.8,11c1.5,6.3,4,13.7,6.9,20.7L2294.8,865.7z M2387.5,829l7.8,3.9
			c0,0-2.1-7.8-7.8-17C2387.5,823.3,2387.5,829,2387.5,829"/>
		<path id="path48" class="st1" d="M2164.8,935.7c-12.2-18.3-21.2-38.5-21.2-58c0-4.2,0.3-8.2,0.8-12l60.4,0
			c-6.1,11.1-9.8,24.4-9.8,39.9c0,11.1,1.5,21.1,3.9,30.1L2164.8,935.7z M2316.9,935.7c-2.3-20.6-5.7-35.7-9.7-43.2
			c-3.8-7-8.3-16.9-12.3-26.9l7.1,0c4.4,10.7,9.6,20.5,13.4,24.1c7.1-11.3,14.2-12.5,19.7-12.5c15.3,0,32,33.9,35.3,40
			c0,0-0.4-18.9-2.3-51.5l19.5,0c0.2,20.7,0.7,47.3,1.4,70l-22.5,0c-6.9-21.5-22.3-45.9-27.5-45.9c-5.3,0-3.6,23.3-1.9,45.9
			L2316.9,935.7z M2514.8,935.7c-18.3-24-43.9-48.5-78.2-70l15.8,0c24.4,16.6,53.2,40,77,70L2514.8,935.7z M2628.6,935.7
			c5.5-2,11.5-2.9,17.3-2.9c11.1,0,21.8,1,31.8,2.9H2628.6z M2401.9,865.7c2.3,21,2.4,47.4-0.4,70l11,0c0.7-7,1.1-14.4,1.1-22.2
			c0-15.5-0.9-32.6-3-47.9L2401.9,865.7"/>
		<path id="path50" class="st1" d="M2193.1,970.7c-9.6-10.1-19.7-22.1-28.3-35l34.1,0c3.8,14.1,9.8,25.7,16.2,35L2193.1,970.7z
			 M2319.5,970.7c-0.6-12.9-1.5-24.7-2.6-35l20.1,0c0.9,11.9,1.9,23.7,1.9,31.9c0,1,0,2.1,0,3.1H2319.5z M2373.3,970.7
			c-1.2-9.7-3-20.4-5.5-30.1c-0.4-1.6-0.9-3.3-1.4-4.9h22.5c0.4,13.9,0.9,26.3,1.5,35H2373.3z M2417.4,970.7c4-4.8,6.5-8.9,18.7-8.9
			c9.1,0,17.8,3.3,25.3,8.9L2417.4,970.7z M2536.8,970.7c-5.6-11.3-12.9-23.1-22-35l14.7,0c8.6,10.8,16.5,22.5,23.2,35L2536.8,970.7
			z M2604.6,970.7c0-0.7,0-1.5,0-2.2c0-17.6,10.8-28.1,24.1-32.8l49.1,0c29.6,5.5,54.3,18.5,73.3,35l-28.3,0
			c-25-14.9-54-22.8-78.2-22.8c-15.9,0-23.1,11.5-24.1,22.8L2604.6,970.7z M2401.5,935.7c-1.7,13.8-4.3,26.2-8.1,35l12.3,0
			c3.2-10,5.6-21.8,6.9-35L2401.5,935.7"/>
		<path id="path52" class="st1" d="M2210.5,1005.7c4-2.9,8.3-5.1,12.7-6.7c-6.1-5.1-17.7-15.1-30.1-28.3l21.9,0
			c9.6,14.1,19.8,22.8,23.6,26.9c19-2.8,36.7,1.7,49,8.1L2210.5,1005.7z M2320.3,1005.7c0-0.5,0-1,0-1.5c0-11.8-0.2-23-0.7-33.5
			l19.4,0c0.2,10.7,1.5,22.8,3.2,35L2320.3,1005.7z M2358.4,1005.7c2-5.1,11.6-9.9,16.6-11.8c0-5.5-0.6-13.9-1.7-23.2l17,0
			c0.1,2,0.3,3.7,0.4,5.3c0.9-1.6,1.8-3.4,2.6-5.3l12.3,0c-3.8,12-8.7,21.4-13.9,27.2c5.4,3.1,12,5.5,18.1,7.8H2358.4z
			 M2432.5,1005.7c1.2-0.3,2.6-0.5,4.2-0.5c1.7,0,3.4,0.2,5.1,0.5L2432.5,1005.7z M2466.4,1005.7c0.2-0.9,0.3-1.9,0.3-3.2
			c0-9-10.3-24.1-19.9-24.1c-12.4,0-15.4,4.8-16.2,8l-15.3-13.4c0.8-0.8,1.4-1.6,2.1-2.3l44,0c11,8.1,19.6,21,23.6,35L2466.4,1005.7
			z M2549.6,1005.7c-2.4-10.6-6.6-22.5-12.9-35l15.9,0c6,11,11.1,22.7,15,35L2549.6,1005.7z M2619.3,1005.7
			c-8.8-10.4-14.2-22.1-14.7-35l16,0c-0.1,0.9-0.1,1.8-0.1,2.6c0,10.1,7.3,21.5,19.6,32.4L2619.3,1005.7z M2722.8,970.7
			c15.3,9.1,29.1,20.8,39.2,35l18.6,0c-7.4-12.4-17.3-24.5-29.5-35L2722.8,970.7"/>
		<path id="path54" class="st1" d="M2190,1040.7c3.3-17.7,11.2-28.3,20.5-35l77,0c10.4,5.5,16.8,12.4,16.8,17.6
			c0,11.4-7.6,10.6-14.6,10.6c-7,0-32.8-8.8-49.1-22.1c-7,4.5-17.9,14.8-22.6,28.9L2190,1040.7z M2321.7,1040.7
			c-0.9-10.6-1.4-22.4-1.4-35l21.9,0c1.7,12.1,4,24.2,6.1,35L2321.7,1040.7z M2375.9,1040.7c0.1-14.6,0.4-26.5-0.5-31.7
			c-5,2.3-14.4,5.8-17,0.6c-0.6-1.3-0.6-2.6-0.1-3.9l51.5,0c5.2,2,10,3.9,13.7,6.2c3-2,4.3-5,8.9-6.1l9.3,0c6.6,1.1,13,3.8,17.4,3.8
			c4.3,0,6.5-0.9,7.2-3.8l18.6,0c1.7,5.8,2.6,11.7,2.6,17.6c3.1,4.6,9.3,12.4,11.7,14.4c-1-11.8-1-30.8,14.1-30.8
			c23.9,0,35.2,16.4,40.9,33.8l-15.5,0c-3.3-8.4-7.8-15-14.8-15c-4,0-5.4,6.3-5.6,15l-25,0c-2.3-3.3-5.1-6.1-8.5-8.7
			c-12.1,8.4-27.5,1.7-32.3,1.7c-4.7,0-5.9,3.9-5.9,7l-17.9,0c-3.2-6-5.1-12-6.2-16.4c-3.9-3.9-20.2-11.5-30-16.1
			c0.9,10.6,1.7,21.6,2.4,32.5L2375.9,1040.7z M2671,1040.7c-21.3-9.1-39.7-20.8-51.7-35l20.7,0c15.3,13.6,38.2,26.4,63.9,35
			L2671,1040.7z M2567.7,1005.7c0.9,2.9,1.8,5.8,2.6,8.8l-19.9-5.3c-0.2-1.1-0.5-2.3-0.7-3.5L2567.7,1005.7z M2762,1005.7
			c7.4,10.4,12.9,22.1,15.6,35l17.2,0c-2.4-11.5-7.2-23.4-14.1-35L2762,1005.7z M2285.1,1023c-11.5,0-23.1-8.9-32.7-15.4
			c16.1-3.7,38.3,5.1,38.3,11.4C2290.6,1022.2,2288.8,1023,2285.1,1023"/>
		<path id="path56" class="st1" d="M2189.8,1075.7c-1-5.1-1.5-10.1-1.5-15.2c0-7.5,0.6-14,1.7-19.9l28,0c-1.4,4.3-2.3,8.9-2.3,13.8
			c0,5.6,1.2,12.9,3.7,21.2L2189.8,1075.7z M2327.6,1075.7c-2.8-9.4-4.8-21.3-6-35l26.6,0c3.3,16.2,6.5,29.4,7.8,35l-7.7,0
			c-0.8-5.4-3-13.7-6.6-26.5c-2.8,10.5-3.1,19.9-2,26.5L2327.6,1075.7z M2376.6,1075.7c-0.7-12-0.8-24.2-0.7-35l19.1,0
			c0.8,12.1,1.4,24,2.1,35H2376.6z M2503.8,1075.7c-1.9-15.6-4.6-26.6-10.4-35l25,0c-0.2,10.4,1.4,24.2,2.5,35H2503.8z
			 M2545.7,1075.7c1.6-2.6,1.9-6-0.1-12.8c-2-6.6-4-15.1-6.8-22.3l15.5,0c4,12.3,5.3,25.1,6.2,33.1c2-0.2,3.4,0.7,4.9,2
			L2545.7,1075.7z M2571.1,1075.7c1.8-17,13-31,23.6-31c27.5,0,38.8,13.5,42.8,31h-15.7c-5.7-6.9-13-10.7-16.5-10.7
			c-4.6,0-9.6,2.5-12,10.7L2571.1,1075.7z M2672.8,1075.7c3.2-3.3,7.4-5.4,11.2-5.4c2.4,0,6.5,2.1,11.4,5.4L2672.8,1075.7z
			 M2781.8,1075.7c-0.6-5-1.2-9.6-1.8-13.3c-34.4,0.2-75.4-7.4-109-21.7h32.9c23.9,8,50.2,12.4,75.2,10.4c-0.3-3.6-0.8-7-1.5-10.4
			l17.2,0c0.7,3.2,1.2,6.5,1.5,9.6c6.6,0,23.8-4.1,27.3-6.6l4.2,9.9c-4.3,2.7-20.4,6.8-30.7,7.3c0.5,3.4,1.1,8.6,1.9,14.8
			L2781.8,1075.7z M2446.7,1040.7c0,0,0,0.1,0,0.1c0,3.2,3.7,12.5,9.2,12.5c3.9,0,7.8,1,9.9-3.6l14.8,10.2
			c-0.7,4.2-6.2,6.4-12.7,6.4c-20.4,0-32.4-13.1-39.1-25.8L2446.7,1040.7"/>
		<path id="path58" class="st1" d="M2219.5,1075.7c11.9,39.6,52.6,101.8,128.6,101.8c43.5,0,64.7-17.4,71.8-29
			c5.6-9.2,8.8-10.4,13.8-10.4c5,0,12.3-0.7,23.9-1.1c-15.6,21.1-41.2,54.4-106.8,54.4c-75.6,0-149.7-56.7-160.9-115.8H2219.5z
			 M2348.4,1075.7c0.9,5.8,0.1,8.3-2.1,9.5c-2.8,1.5-5.4-2.4-6.6-9.4l-12.1,0c4.5,14.9,11.2,23.5,20.4,23.5
			c8.1,0,10.2-13.7,8.5-21.4c-0.1-0.5-0.3-1.2-0.5-2.1L2348.4,1075.7z M2397.1,1075.7c1.4,25.1,2.7,45.5,4.5,52.4
			c3.3,12.7-5,6.7-9.6,2.5c-10.1-9.4-13.9-31.7-15.3-54.9L2397.1,1075.7z M2521,1075.7c0.6,5.7,1.1,10.6,1.1,13.6
			c0,13.6,11.6,86.4,11.6,94.7c0,8.3-5,7-8.3,7c-3.3,0-11.1-17.9-14.9-50.4c-3.3-27.9-4.6-48.8-6.6-65L2521,1075.7z M2565.5,1075.7
			c1.5,1.4,3.1,3.2,5.4,4.6c0-1.6,0.1-3.1,0.2-4.6l22.3,0c-0.9,3.1-1.5,7.1-1.5,12c0,18,15.8,29.3,26.8,29.3c6.8,0,11.3-7,11.3-19.6
			c0-8.9-3.6-16.3-8.2-21.7h15.7c2.7,11.9,2.1,25.7,0.9,38.3c7.8-1.2,19.2,8.8,24.2,8.8c5,0,10.5-2.9,10.5-8.4
			c0-5.5-6.1-13.8-6.1-24.7c0-5.6,2.4-10.5,5.8-14l22.5,0c10.9,7.4,25.2,20.9,30.6,30.5c14.4-32.5,49.7-9.1,58.9,1.2
			c-0.5-7.4-1.7-20.4-3.1-31.7h17c3.5,28,9.1,77.9,9.6,90.9c-8.3,0.2-15.1-1.9-20.8-1.9l-1.5-8.6c-5.5,3.6-8.7,10.3-19.9,10.3
			c-27.1,0-38.8-36.9-42.3-50c-7.7-11.8-13-17.1-21.9-17.1c-8.8,0-10.8,34.2-6.1,47.6h-7.6c-3-12.2-16.8-6.8-14.7,2
			c2,8.8,6.7,19.2,6.7,27.9c0,5-2.9,8.8-8.9,8.8c-7.4,0-9.4-15.3-9.4-23.5c0-8.3,0.8-31.9-10.9-38.6c-7.6-4.3-8-4.6-13.3-4.6
			c-2.7,16.3-8.2,27.5-11.3,27.5c-4.3,0-8.7-7.9-8.1-19.7c-20.3,3-43.7-26.8-46.3-37.1c-3.3-3.8-7.4-6.5-11.2-7.6
			c-0.3,11.9-5.1,31.7-16.9,31.7c-7.2,0-13.7-9.9-12.2-15.6c4.1-15.3,11.1-17.4,14-22.3L2565.5,1075.7z M2770,1154.7
			c-12.8,0-21.2-10.5-21.2-22.8c0-12.3,0.9-22.4,10.5-22.4c9.6,0,24,11.7,24,26.6C2783.3,1148.2,2776.3,1154.7,2770,1154.7"/>
	</g>
</g>
</svg>
