<?xml version="1.0" encoding="utf-8"?>
<!-- Generator: Adobe Illustrator 19.0.0, SVG Export Plug-In . SVG Version: 6.00 Build 0)  -->
<svg version="1.1" id="Lager_1" xmlns="http://www.w3.org/2000/svg" xmlns:xlink="http://www.w3.org/1999/xlink" x="0px" y="0px"
	 viewBox="0 0 150 150" style="enable-background:new 0 0 150 150;" xml:space="preserve">
<style type="text/css">
	.st0{fill:#FFFFFF;}
	.st1{fill-rule:evenodd;clip-rule:evenodd;fill:#005A9F;}
	.st2{fill-rule:evenodd;clip-rule:evenodd;fill:#FFFFFF;}
	.st3{fill:#005A9F;}
</style>
<g>
	<g>
		<path class="st0" d="M144.6,72.5c0,27.8-16.3,51.8-39.9,63c-4.3,2-8.2,10.2-13,11.4c-5.2,1.2-11.4-3.6-17-3.6
			c-5.4,0-11.1,4.8-16.1,3.6c-4.4-1-9.9-9.4-13.9-11.1C20.3,124.9,5.4,100.9,5.4,72.5C5.4,34.1,36.6,2.9,75,2.9
			S144.6,34.1,144.6,72.5z"/>
	</g>
	<g>
		<path class="st1" d="M73.9,138.2c1.4,0.5,2.2,0,3.5-0.3c2.6,0.6,5.2,1.4,7.4,3c1.4,0.9,3.4,0.9,5,0.4c0.8-0.3,3.7-3.1,3.7-3.1
			s2.1-0.7,2.9-4c0.1-0.2,0-0.6-0.2-0.7c-1.4-0.1-2.4,0.9-3.7,1c-1.7,0.3-3.3,1.2-5.1,0.5c0.5-1,1.8-0.7,2.7-1
			c3.4-0.8,5.4-2.2,5.4-2.2c1-0.3,1.7-0.9,2.8-1.3l0.5-0.2c1.4-0.7,2.9-1.2,4.4-1.6l1.8-0.9c0.7-0.3,0.6-1.4,1.5-1.5
			c0.7,0,1.2-0.3,1.7-0.6c3.6-2,6.7-4.5,6.7-4.5c0.6-0.6,1.2-0.9,1.9-1.6c5.9-5.7,8.7-10.6,8.7-10.6c0-0.3-0.4-0.4-0.2-0.6
			c3.3-3.1,7-10.4,7-10.4s1.9-3.6,2.8-6.1c0.1-0.4,0.2-0.6,0.3-1c0.2-2,1.2-3.8,1.8-5.6c0.3-1.5,0.6-2,0.8-3.5
			c0.3-1.8,0.3-3.5,0.2-6.3c0-0.9,0.3-1.7,0.3-2.6c0.4-1.3,0.7-3,0-4.3c0.1-2.4,0-4.7-0.2-7l-0.1-1c-1-9.8-4.1-12.7-4.1-12.7
			c-0.3-3.8-3-7.6-3-7.6s-3.2-5.7-7.6-9.5c0,0-1.2-1.4-1.3-0.7c0,0-1.9,0.6-0.1,10.2c0,0-5.8-2.9-8.4-1.4c0,0-0.6,0.3,0.2,1.6
			c0.8,1.3,2,3.5,2.9,5.2c0.9,1.7,2.7,5.8,4.5,8.2l0.2,0.1c-0.5,0.5-0.7,1.3-0.4,1.9c2.3,4.7,2,8.5,3.2,12.6
			c0.3,0.6-0.5,0.9-0.7,1.4c-1.1,2.6,0.5,5.6-0.3,8.4c-0.5,1.8-1,2.6-0.9,4.1c0,0-0.8,2.9-1,3.7c-1.3,4.9-4.1,8.9-6.8,13
			c0,0-1.3,2.2-3,5.5c0,0-0.5,1.2-3.5,2.9c-3,1.8-4.8,0.9-10.2,4.7c0,0-2,0.9-8,4.2c-5.9,3.3-7.8,2.6-12.5,6l-1.1,0.4
			c-1.8,1.4-2.6,0-2.6,0c-4.7-3.5-7.3-3.2-13.3-6.5c-5.9-3.3-7.9-3.9-7.9-3.9c-5.3-3.8-7.3-3.2-10.2-4.9c-3-1.8-3.5-2.9-3.5-2.9
			c-2.2-1-3-5.5-3-5.5c-2.7-4-5.5-8-6.8-13c-0.2-0.7-1-3.7-1-3.7c0.1-1.5-0.4-2.2-0.9-4.1c-0.8-2.9,0.8-5.8-0.3-8.4
			c-0.2-0.5-1-0.8-0.7-1.4c1.2-4.2,0.9-8,3.2-12.6c0.3-0.6,0-1.4-0.4-1.9l0.2-0.1c1.8-2.5,3.7-6.7,4.5-8.4c0.9-1.7,2-3.8,2.8-5.1
			c0.8-1.3,0.2-1.6,0.2-1.6c-2.5-1.4-8.4,1.4-8.4,1.4c1.8-9.5-0.1-10.2-0.1-10.2c-0.1-0.8-1.3,0.7-1.3,0.7c-4.4,3.8-7.6,9.5-7.6,9.5
			s-2.6,3.8-3,7.6c0,0-3.1,3-4.1,12.7l-0.1,1c-0.2,2.2-0.3,4.6-0.2,7c-0.7,1.3-0.4,3,0,4.3c0,0.9,0.4,1.7,0.3,2.6
			c-0.1,2.8-0.1,4.4,0.2,6.3c0.2,1.4,0.5,2,0.8,3.5c0.6,1.8,1.6,3.6,1.8,5.6c0.1,0.3,0.2,0.6,0.3,1c1,2.5,2.8,6.1,2.8,6.1
			s3.6,7.3,7,10.4c0.2,0.2-0.2,0.3-0.2,0.6c0,0,2.8,4.8,8.7,10.6c0.7,0.7,1.3,1.1,1.9,1.6c0,0,3.1,2.5,6.7,4.5
			c0.5,0.3,1,0.6,1.7,0.6c0.9,0.1,0.7,1.2,1.5,1.5l1.8,0.9c1.5,0.4,3,0.9,4.4,1.6l0.5,0.2c1.1,0.5,1.8,1,2.8,1.3c0,0,2,1.4,5.4,2.2
			c0.9,0.2,2.2,0,2.7,1c-1.9,0.7-3.4-0.2-5.1-0.5c-1.3-0.1-2.3-1.1-3.7-1c-0.3,0.1-0.3,0.5-0.2,0.7c0.8,3.3,2.9,4,2.9,4
			s2.9,2.9,3.7,3.1c1.6,0.5,3.5,0.5,5-0.4c2.2-1.6,4.7-2.4,7.4-3"/>
		<path class="st2" d="M28.2,51.2c-1.3,1.8-2,4.2-4.5,4.7c-0.9,0.6-1.8,1.7-2.5,2.3c-0.5,0.5-0.6,1.4-1.3,1.5l-0.1,0
			c-1.1-1.3-0.6-5.3-0.6-5.3c-1.9-3-1.6-7-0.2-10.1c0.3-1.2,0.8-2.1,1.6-3.3c1.1-1.6,2.3-3.5,3.5-4.9c0.7-0.6,1.3-1.9,2.4-1.7
			c0.8,0.1,0.1,4.2,0.1,4.2c-0.4,2.3-1.2,4.6-2.6,6.7c-1.4,1.9-2.3,4-3,6.1c-0.2,1.2-0.7,2.5-0.5,3.9c0.1,0.2,0.3,0.7,0.6,0.1
			c1.1-1.8,0.9-4,1.8-5.9c1.3-3.4,4.3-7.3,8-8.2c0.7-0.5,2-0.6,2.8-0.6c0.3,0,0.7,0.1,0.6,0.5C34.2,41.1,30.2,48.3,28.2,51.2z"/>
		<path class="st1" d="M25.5,37.8c-0.8,4.2-3.8,7.9-5.5,11.5C20,49.6,19.8,50,19.5,50c-0.9-1.2,0.2-2.7,0.6-3.8
			c0.2-1.7,1.7-3,2.5-4.5c0.4-0.8,0.6-2.1,1.4-2.6C23.9,39,25.8,36.4,25.5,37.8z"/>
		<path class="st1" d="M26.4,47.3c0.5-0.7,1-1.3,1.5-2c0.9-1.3,2.2-2.1,3.6-2.6l0.5,0l0,0c-0.1,1.5-2.1,1.2-2.6,2.6
			c-2.1,3-3.3,6.2-5.7,9c-0.2,0.2-0.7,0.1-0.7-0.2c0-0.7,0.6-0.9,0.9-1.9C24.6,50.1,26.4,47.3,26.4,47.3z"/>
		<path class="st2" d="M19.5,77.9c-0.7-0.5-1.8-1.2-2.3-2c-1.1-1.6-2.1-2.8-3.1-5.4c-0.9-2.3-1-5.1-0.7-7.5
			c1.1-12.4,2.8-10.7,2.8-10.7c0.9,0.2,1.4,1.9,1.4,1.9S18.9,56,18,71.7l0.1,1.9c0.2,0.3,0.3,0.9,0.6,0.8c0,0,0.2-0.4,0.3-2.3
			c0.1-1.9,0.4-4.4,0.4-4.4c0.2-2.7,0.8-5.2,2.3-7.4c0,0,4-5.4,4.6-3.2c0,0-0.2,7.2-4.1,15.7C19.6,78.5,19.5,77.9,19.5,77.9z"/>
		<path class="st1" d="M16.9,56.4c-0.1,2.7-0.8,5.2-0.6,7.8c-0.1,1.8,0,3.7,0.1,5.5c0,0.2-0.4,0.1-0.5,0c-1.6-4.2-1.2-9.2,0.1-13.4
			C16.3,56.2,16.7,56.1,16.9,56.4L16.9,56.4z"/>
		<path class="st1" d="M23.1,66.8c-0.4,1.7-0.9,3.3-2.2,4.5c-0.2,0.1-0.4-0.1-0.4-0.3c0.1-1.4,0.9-2.5,0.9-4c0-0.5,0.1-1.2,0.2-1.8
			c0,0,1.3-5.6,2.3-5C23.9,60.2,24.7,59.8,23.1,66.8z"/>
		<path class="st2" d="M24,73.3c0.8,0.1,1,1.3,1.6,7.4c0.6,6.1-0.7,10.9-0.7,10.9c0.1,1.8,0,2.2-0.8,3c-0.1,0.1-0.1,0.1-0.2,0.1
			c-1.6-0.6-3.3-1.4-6.3-4.2c-1.8-1.8-2.7-4.2-3.1-6.7c-0.7-2.7-0.2-5.5-1-8.2c0-0.3,0-0.7,0.4-0.8c0,0,1-0.1,1.8,1
			c0,0,3.3,3.2,4.2,12c0.1,1.2,0.6,2.5,1.4,4c0.1,0.2,0.5,0.4,0.8,0.2c0.3-0.6,0-1.5-0.1-2.1c-1.4-4.5-1.9-10.1,0-14.6
			C22.1,75.3,23.2,73.2,24,73.3z"/>
		<path class="st1" d="M23.9,75.8c0.2,0.5,0.2,1.5,0.1,1.9c-0.2,3.7,0.8,6.8,0.2,10.5c-0.2,1-0.2,0.9-0.7,0.3
			c-0.7-1-0.8-2.3-0.9-3.5c-0.4-3.9-0.2-5.2,0-7.7c0.1-0.6,0.5-1.4,0.8-1.6H23.9L23.9,75.8z"/>
		<path class="st1" d="M17,80.5c1,3,1,6.3,2.6,9c0.2,0.3,0.1,0.7-0.2,1c-0.8,0-1-0.6-1.4-1.2c-1.3-2.7-1.9-5.8-2.6-8.7
			c-0.2-0.8-0.4-2.1,0.1-2.5C16.4,77.3,16.7,79.5,17,80.5L17,80.5z"/>
		<path class="st2" d="M29.7,106.5c0.7,0.8,1.3,1.5,2.2,1.2c0.6-1.3-1.3-2.2-1.9-3.2c-1.2-2.3-2.7-4.4-3.4-6.9
			c-0.5-2.2-0.8-4.7,0-6.8c0.2-0.4,0.6-0.4,0.9-0.3c0.9,0.5,1.2,1.3,1.7,2.3l0,0c1,1.2,1.7,2.2,2.2,3.3c0.7,1.2,2.1,2.6,2.4,3.9
			c0,0,1.4,2.4,2,5.3c0,0,1.1,3.3,1.1,6.7l-0.2,0.1c-3.5-2.2-8-1.8-11.1-5c-3.8-3.5-5.2-8.2-7.6-12.4c0-0.3-0.1-0.7,0.2-0.9
			c1.2-0.6,3.4,1.2,4.2,1.8c0.7,0.5,2.1,2,2.1,2c1.4,1.7,1.9,3.7,3.2,5.3c0.6,0.9,0.9,1.8,1.4,2.7L29.7,106.5z"/>
		<path class="st1" d="M24.9,100.5c-1.2-1.3-2.5-4-4.1-5c-0.3,0-0.7-0.1-0.8,0.4l0.4,1.1c1.6,3,3.1,4.5,4.4,6.4
			c1.4,1.9,2.7,3.5,4.4,4.7c0,0,0.5,0.2,0.5-0.2C29.8,107.5,26.4,102.1,24.9,100.5z"/>
		<path class="st1" d="M32.7,101.1c0.8,1.3,2.5,3.4,1.2,4.2l-0.5-0.3c-2.3-3.7-5.7-7.1-5.9-11.7c0.1-0.3,0-0.9,0.5-0.8
			c0.5,0.5,0.5,0.6,0.8,1.1L32.7,101.1z"/>
		<path class="st2" d="M57.2,123.9c0,0.3-0.1,0.7-0.5,0.7c-3.5-0.7-7.4,0.3-10.8,0.3c-1.4,0-2.4-1-3.8-1.4l-0.9-0.2
			c-2.9-0.6-5-4.2-7.3-5.8c-1.5-1.6-2.6-3.1-4.2-4.7c-0.1-0.2,0-0.5,0-0.7c0.8-0.6,1.7,0.1,2.5,0.1c3,0.1,5.2,2.1,7.5,3.5
			c0,0,3.6,2.5,5.2,4.3c1.7,1.8,2.7,2.2,2.7,2.2c0.2,0,0.6,0,0.7-0.3c-0.7-1.3-1.8-2.5-2.9-3.5c-1.7-1.4-3.4-3.1-5-4.6l-0.7-0.9
			c-0.7-1.4-1.4-2.9-1.4-4.5c0.5-0.4,1.1-0.1,1.6,0l0,0c0.9,0.5,1.6,0.8,2.3,1.4c1.7,1.2,3.5,2.2,5.4,3.4l1.6,1
			c1.3,1.3,2.8,2.8,3.7,4.6l0.6,1L57.2,123.9z"/>
		<path class="st1" d="M49.1,117c0.7,0.7,1.9,1.6,2,2.6c-0.7,0.6-1.3-0.5-1.9-0.7c0,0-3.3-1.6-7.1-5.4c-0.8-0.8-1.8-1.7-1.6-2.9
			c0.2-0.2,0.5-0.3,0.7-0.2c0,0,1.7,1.4,3.1,3c1.1,1.2,2.4,1.5,3.4,2.7L49.1,117z"/>
		<path class="st1" d="M41.2,121.1c-2-1.4-3.5-3-5.3-4.6c-0.7-0.9-1.9-0.9-2.5-1.9c0-0.4,0-0.8,0.6-0.7c2.8,0.2,4.4,3.5,6.6,5.3l0,0
			c1.5,1.5,3.4,2.3,5.2,3.2c0,0.2,0.2,0.3,0.1,0.5c-0.4,0.2-0.9,0-1.4-0.2L41.2,121.1z"/>
		<path class="st2" d="M49.4,126.5"/>
		<path class="st2" d="M48.9,126.5c3.2-2.2,11.5,0.2,11.5,0.2c3,1.2,6.3,2.3,9.6,3.1c0.5-0.3,0.6-0.6,0-1c-1.5-1.1-3.2-1.3-4.8-2.1
			c-2.4-0.6-4.6-2.1-6.8-3.5c-1.4-1.5-3.3-3.2-3.1-5.4c0.1-1.5,4.2,0.6,4.2,0.6l0.6,0.3l6.5,3.5c1.9,0.7,3,1.5,4.4,2.5
			c0.6,0.5,1.2,1.2,1.4,1.9c0.5,2,0.1,3.5-0.3,5.4c-0.2,0.7-0.7,1-1,1c-0.8,0.2-1.5,0-2.6,0c-2.6-0.1-4.9-0.3-7.5-0.6
			c-3.7-0.8-6.9-3-10.4-4.3C48.1,127,48.9,126.5,48.9,126.5z"/>
		<path class="st1" d="M62.8,122.5L62.8,122.5c2.4,0.8,4.9,1.6,7.1,3c0.6,0.4,0.7,0.8,0.5,1.4l-0.4,0.1c-2.3-1.6-4.7-2.6-7.3-3.2
			c-0.9-0.2-2.2-0.7-3.1-1.4c-1.2-0.9-2.4-1.7-2.5-3.4c0-0.7,1.2,0.3,1.9,0.6C59,119.8,59.8,121.2,62.8,122.5z"/>
		<path class="st2" d="M75.8,135.3c0,0.9-0.3,1.2-1,1.2c-1-0.8-0.8-2.7-0.8-3.5c0-2.5-0.2-4.4,0.1-7c0-0.4,0.3-0.7,0.7-0.7
			c0.9,0,1.1,0.8,1.1,0.8C76.2,128.9,75.8,135.3,75.8,135.3z"/>
		<path class="st1" d="M56.7,127.5L56.7,127.5c3.9,1.3,7.7,3.1,11.9,3.1c0.5,0.2,1.4,0,1.6,0.7c-0.2,0.3-0.7,0.3-1,0.3
			c-4.5,0-8.6-1.3-12.6-2.7c-1.3-0.2-2.7-0.3-3.7-1c-0.2-0.2,0.1-0.5,0.3-0.7C53.2,127.2,54.3,126.6,56.7,127.5z"/>
		<path class="st2" d="M72.3,136c0,1-0.9,0.9-1.9,1.1c-0.6,0.1-1.1,0.3-1.7,0.5c-1,0.4-1.6,0.5-2.4,0.7c-1,0.2-1.6-0.6-2.5-0.7
			c-0.2-0.1-0.2-0.3-0.2-0.6c0.5-0.4,1.2-0.2,1.8-0.4c1.9-0.6,3.9-0.6,5.9-1C71.6,135.4,72.2,135.5,72.3,136L72.3,136z"/>
		<path class="st2" d="M115.8,41.1c-0.1-0.3,0.3-0.4,0.6-0.5c0.8-0.1,2.1,0.1,2.8,0.6c3.7,0.8,6.7,4.7,8,8.2
			c0.8,1.9,0.7,4.2,1.8,5.9c0.4,0.6,0.5,0,0.6-0.1c0.2-1.4-0.3-2.6-0.5-3.9c-0.7-2.1-1.6-4.2-3-6.1c-1.4-2-2.2-4.3-2.6-6.7
			c0,0-0.7-4,0.1-4.2c1.2-0.2,1.8,1.1,2.4,1.7c1.2,1.5,2.4,3.3,3.5,4.9c0.8,1.3,1.3,2.1,1.6,3.3c1.4,3.1,1.6,7.1-0.2,10.1
			c0,0,0.5,4-0.6,5.3l-0.1,0c-0.7-0.1-0.8-1-1.3-1.5c-0.7-0.6-1.6-1.7-2.5-2.3c-2.4-0.5-3.2-2.9-4.5-4.7
			C119.8,48.3,115.8,41.1,115.8,41.1z"/>
		<path class="st1" d="M126.1,39c0.8,0.5,1,1.9,1.4,2.6c0.8,1.5,2.3,2.7,2.5,4.5c0.3,1.2,1.4,2.6,0.6,3.8c-0.3,0-0.5-0.3-0.6-0.6
			c-1.6-3.7-4.6-7.4-5.5-11.5C124.2,36.4,126.1,39,126.1,39z"/>
		<path class="st1" d="M126.1,52.2c0.3,1,0.9,1.1,0.9,1.9c-0.1,0.3-0.5,0.4-0.7,0.2c-2.4-2.8-3.6-6.1-5.7-9
			c-0.5-1.3-2.5-1.1-2.6-2.6l0,0l0.5,0c1.4,0.5,2.6,1.3,3.6,2.6c0.5,0.7,0.9,1.4,1.5,2C123.6,47.3,125.5,50.1,126.1,52.2z"/>
		<path class="st2" d="M127.8,72.7c-3.9-8.5-4.1-15.7-4.1-15.7c0.6-2.1,4.6,3.2,4.6,3.2c1.5,2.2,2.1,4.7,2.3,7.4
			c0,0,0.3,2.6,0.4,4.4c0.1,1.9,0.3,2.3,0.3,2.3c0.3,0.1,0.3-0.5,0.6-0.8l0.1-1.9c-0.9-15.7,0.5-17.5,0.5-17.5s0.6-1.6,1.4-1.9
			c0,0,1.7-1.6,2.8,10.7c0.2,2.5,0.2,5.3-0.7,7.5c-1,2.5-2.1,3.8-3.1,5.4c-0.5,0.7-1.6,1.5-2.3,2C130.6,77.9,130.5,78.5,127.8,72.7z
			"/>
		<path class="st1" d="M133.1,56.4c0.3-0.3,0.6-0.2,0.9,0c1.3,4.2,1.7,9.2,0.1,13.4c-0.1,0-0.5,0.2-0.5,0c0-1.7,0.2-3.7,0.1-5.5
			C133.9,61.6,133.2,59.1,133.1,56.4L133.1,56.4z"/>
		<path class="st1" d="M126.1,60.2c1-0.6,2.3,5,2.3,5c0.2,0.5,0.2,1.3,0.2,1.8c0,1.5,0.8,2.5,0.9,4c0,0.2-0.2,0.4-0.4,0.3
			c-1.4-1.1-1.9-2.8-2.2-4.5C125.4,59.8,126.1,60.2,126.1,60.2z"/>
		<path class="st2" d="M127.9,75.3c1.9,4.5,1.4,10.1,0,14.6c-0.1,0.6-0.5,1.5-0.1,2.1c0.3,0.2,0.7,0,0.8-0.2c0.9-1.5,1.3-2.8,1.4-4
			c1-8.8,4.2-12,4.2-12c0.9-1.1,1.8-1,1.8-1c0.4,0.1,0.4,0.5,0.4,0.8c-0.9,2.7-0.3,5.5-1,8.2c-0.4,2.5-1.2,4.9-3.1,6.7
			c-3,2.9-4.7,3.6-6.3,4.2c0,0-0.1,0-0.2-0.1c-0.8-0.8-0.9-1.2-0.8-3c0,0-1.3-4.7-0.7-10.9c0.6-6.1,0.8-7.3,1.6-7.4
			C126.8,73.2,127.9,75.3,127.9,75.3z"/>
		<path class="st1" d="M126.1,75.8h0.3c0.3,0.2,0.7,1,0.8,1.6c0.2,2.5,0.4,3.7,0.1,7.7c-0.1,1.2-0.2,2.5-0.9,3.5
			c-0.4,0.6-0.5,0.7-0.7-0.3c-0.6-3.7,0.5-6.8,0.2-10.5C126,77.2,125.9,76.3,126.1,75.8L126.1,75.8z"/>
		<path class="st1" d="M133.1,80.5c0.3-1,0.6-3.2,1.5-2.4c0.5,0.4,0.3,1.7,0.1,2.5c-0.7,3-1.3,6-2.6,8.7c-0.4,0.6-0.6,1.2-1.4,1.2
			c-0.3-0.2-0.3-0.7-0.2-1C132,86.8,132.1,83.5,133.1,80.5L133.1,80.5z"/>
		<path class="st2" d="M120.9,105.6c0.5-0.9,0.8-1.8,1.4-2.7c1.3-1.6,1.8-3.7,3.2-5.3c0,0,1.5-1.5,2.1-2c0.8-0.6,2.9-2.4,4.2-1.8
			c0.3,0.1,0.2,0.6,0.2,0.9c-2.5,4.2-3.8,8.9-7.6,12.4c-3.1,3.1-7.6,2.8-11.1,5l-0.2-0.1c-0.1-3.4,1.1-6.7,1.1-6.7
			c0.6-3,2-5.3,2-5.3c0.3-1.2,1.7-2.7,2.4-3.9c0.5-1,1.2-2,2.2-3.3l0,0c0.5-1,0.8-1.8,1.7-2.3c0.3-0.1,0.7-0.1,0.9,0.3
			c0.8,2.1,0.5,4.7,0,6.8c-0.7,2.5-2.2,4.5-3.4,6.9c-0.6,1.1-2.5,1.9-1.9,3.2c0.9,0.3,1.5-0.4,2.2-1.2L120.9,105.6z"/>
		<path class="st1" d="M120.3,107.9c0,0.4,0.5,0.2,0.5,0.2c1.8-1.2,3.1-2.7,4.4-4.7c1.3-1.9,2.8-3.4,4.4-6.4l0.4-1.1
			c-0.1-0.5-0.5-0.4-0.8-0.4c-1.6,1-2.9,3.7-4.1,5C123.6,102.1,120.3,107.5,120.3,107.9z"/>
		<path class="st1" d="M121.2,93.6c0.2-0.5,0.3-0.6,0.8-1.1c0.5-0.1,0.5,0.5,0.5,0.8c-0.2,4.6-3.5,8-5.9,11.7l-0.5,0.3
			c-1.2-0.8,0.4-2.9,1.2-4.2L121.2,93.6z"/>
		<path class="st2" d="M96.5,119.9l0.6-1c0.9-1.7,2.4-3.3,3.7-4.6l1.7-1c1.8-1.2,3.6-2.2,5.4-3.4c0.6-0.6,1.4-0.9,2.3-1.4l0,0
			c0.5-0.1,1.2-0.4,1.6,0c-0.1,1.6-0.7,3.1-1.4,4.5l-0.7,0.9c-1.6,1.5-3.3,3.2-5,4.6c-1.1,1-2.2,2.2-2.9,3.5
			c0.1,0.3,0.5,0.3,0.7,0.3c0,0,1.1-0.4,2.7-2.2c1.7-1.8,5.2-4.3,5.2-4.3c2.4-1.5,4.5-3.5,7.5-3.5c0.8,0,1.7-0.7,2.5-0.1
			c0,0.2,0.1,0.5,0,0.7c-1.5,1.6-2.6,3.1-4.2,4.7c-2.4,1.6-4.4,5.2-7.3,5.8l-0.9,0.2c-1.3,0.4-2.4,1.4-3.8,1.4
			c-3.4,0.1-7.3-1-10.8-0.3c-0.4,0-0.5-0.4-0.5-0.7L96.5,119.9z"/>
		<path class="st1" d="M102.3,116c1-1.2,2.3-1.5,3.4-2.7c1.4-1.6,3.1-3,3.1-3c0.2-0.2,0.6,0,0.7,0.2c0.2,1.2-0.9,2.1-1.6,2.9
			c-3.8,3.8-7.1,5.4-7.1,5.4c-0.5,0.3-1.2,1.3-1.9,0.7c0.1-1,1.2-2,2-2.6L102.3,116z"/>
		<path class="st1" d="M105.4,122.7c-0.5,0.2-1,0.3-1.4,0.2c-0.1-0.3,0-0.3,0.1-0.5c1.9-0.9,3.8-1.7,5.2-3.2l0,0
			c2.2-1.7,3.8-5.1,6.6-5.3c0.6,0,0.7,0.4,0.6,0.7c-0.6,1-1.8,1-2.5,1.9c-1.7,1.6-3.3,3.2-5.3,4.6L105.4,122.7z"/>
		<path class="st2" d="M100.6,126.5"/>
		<path class="st2" d="M99.4,128c-3.5,1.4-6.6,3.6-10.4,4.3c-2.6,0.3-4.9,0.5-7.5,0.6c-1.1,0-1.8,0.2-2.6,0c-0.3-0.1-0.8-0.3-1-1
			c-0.4-1.9-0.8-3.4-0.3-5.4c0.2-0.7,0.8-1.5,1.4-1.9c1.4-1,2.5-1.8,4.4-2.5l6.5-3.5l0.6-0.3c0,0,4.1-2.1,4.2-0.6
			c0.2,2.2-1.7,3.9-3.1,5.4c-2.1,1.4-4.3,2.9-6.8,3.5c-1.6,0.8-3.3,1.1-4.8,2.1c-0.6,0.4-0.5,0.7,0,1c3.3-0.8,6.6-1.9,9.6-3.1
			c0,0,8.3-2.5,11.5-0.2C101.2,126.5,102,127,99.4,128z"/>
		<path class="st1" d="M91,119.8c0.7-0.3,1.9-1.3,1.9-0.6c-0.1,1.7-1.3,2.5-2.5,3.4c-0.9,0.7-2.2,1.2-3.1,1.4
			c-2.6,0.6-5,1.6-7.3,3.2l-0.4-0.1c-0.2-0.6,0-1,0.5-1.4c2.1-1.5,4.6-2.3,7.1-3l0,0C90.2,121.2,91,119.8,91,119.8z"/>
		<path class="st1" d="M96.9,127.2c0.2,0.2,0.5,0.5,0.3,0.7c-1,0.8-2.4,0.9-3.7,1c-4,1.4-8.1,2.7-12.6,2.7c-0.3,0-0.8,0-1-0.3
			c0.2-0.7,1.1-0.5,1.6-0.7c4.2,0,8-1.8,11.9-3.1l0,0C95.7,126.6,96.9,127.2,96.9,127.2z"/>
		<path class="st2" d="M77.8,136c0-0.5,0.7-0.6,1.1-0.5c2,0.4,4,0.5,5.9,1c0.6,0.2,1.3,0,1.8,0.4c0,0.3,0,0.5-0.2,0.6
			c-0.9,0.1-1.5,0.9-2.5,0.7c-0.7-0.1-1.4-0.3-2.4-0.7c-0.6-0.2-1.1-0.4-1.7-0.5C78.7,136.8,77.8,137,77.8,136L77.8,136z"/>
	</g>
	<g>
		<path class="st3" d="M49.9,39.8h5.6v17.5h-5.6V39.8z"/>
		<path class="st3" d="M62.5,39.8h13.9v3.8h-8.3v3.1h7.1v3.5h-7.1v7.2h-5.7V39.8z"/>
		<path class="st3" d="M81.5,39.8h5.6v6.6l5.9-6.6h7.5l-6.6,6.6l6.9,10.9h-6.9L90,50.2l-2.9,2.9v4.3h-5.6V39.8z"/>
	</g>
	<g>
		<path class="st3" d="M90.2,65.2c-2.9,0-5.9-0.4-9.1-1.2c-3.7-0.9-5.1-0.8-5.9-0.8c-0.1,0-0.2,0-0.3,0h-0.1c-0.1,0-0.2,0-0.3,0
			c-0.7,0-2.2-0.1-5.9,0.8c-6.2,1.5-11.6,1.5-16.6,0.2c-5.8-1.6-11.5,0.1-11.6,0.1l-1,0.3l0-23.5l0.2-0.2C47.4,31,60.6,25.1,75,25.1
			H75c14.3,0,27.5,5.9,35.1,15.7l0.2,0.2v23.5l-1-0.3c-0.1,0-5.7-1.7-11.6-0.1C95.4,64.9,92.9,65.2,90.2,65.2z M75.7,61.6
			c0.9,0,2.6,0.1,5.8,0.9c5.9,1.4,11.1,1.5,15.8,0.2c4.8-1.3,9.4-0.6,11.4-0.2V41.6c-7.4-9.3-20-14.9-33.7-14.9H75
			c-13.8,0-26.4,5.6-33.8,14.9v20.9c2-0.4,6.6-1.2,11.4,0.2c4.7,1.3,9.9,1.2,15.8-0.2c3.9-0.9,5.5-0.9,6.3-0.9c0.1,0,0.2,0,0.2,0H75
			c0.1,0,0.1,0,0.2,0C75.4,61.6,75.5,61.6,75.7,61.6z"/>
	</g>
	<g>
		<path class="st1" d="M109.5,80.2c0,0-5.9-1.8-12-0.1S85.6,81,81.3,80c-4.3-1-5.7-0.8-6.3-0.8h-0.1c-0.6,0-2-0.2-6.3,0.8
			c-4.3,1-10.1,1.9-16.2,0.2s-12,0.1-12,0.1V66.7c0,0,5.9-1.8,12-0.1s12,0.8,16.2-0.2c4.3-1,5.7-0.8,6.3-0.8H75c0.6,0,2-0.2,6.3,0.8
			c4.3,1,10.1,1.9,16.2,0.2s12,0.1,12,0.1V80.2z"/>
		<path class="st3" d="M90.2,81.9c-2.9,0-5.9-0.4-9.1-1.2c-3.7-0.9-5.1-0.8-5.9-0.8c-0.1,0-0.2,0-0.3,0h-0.1c-0.1,0-0.2,0-0.3,0
			c-0.7,0-2.2-0.1-5.9,0.8c-6.2,1.5-11.6,1.5-16.6,0.2C46.3,79.3,40.6,81,40.6,81l-1,0.3V66.1l0.6-0.2c0.2-0.1,6.2-1.8,12.4-0.1
			c4.7,1.3,9.9,1.2,15.8-0.2c3.9-0.9,5.5-0.9,6.3-0.9c0.1,0,0.2,0,0.2,0H75c0.1,0,0.1,0,0.2,0c0.8,0,2.4-0.1,6.3,0.9
			c5.9,1.4,11.1,1.5,15.8,0.2c6.3-1.7,12.2,0,12.4,0.1l0.6,0.2v15.2l-1-0.3c-0.1,0-5.7-1.7-11.6-0.1C95.4,81.6,92.9,81.9,90.2,81.9z
			 M75.7,78.3c0.9,0,2.6,0.1,5.8,0.9c5.9,1.4,11.1,1.5,15.8,0.2c4.8-1.3,9.4-0.6,11.4-0.2V67.3c-1.6-0.4-6.2-1.2-11,0.1
			c-5,1.4-10.4,1.3-16.6-0.2c-3.7-0.9-5.1-0.8-5.9-0.8c-0.1,0-0.2,0-0.3,0h-0.1c-0.1,0-0.2,0-0.3,0c-0.7,0-2.2-0.1-5.9,0.8
			c-6.2,1.5-11.6,1.5-16.6,0.2c-4.8-1.3-9.4-0.4-11-0.1v11.9c2-0.4,6.6-1.2,11.4,0.2c4.7,1.3,9.9,1.2,15.8-0.2
			c3.9-0.9,5.5-0.9,6.3-0.9c0.1,0,0.2,0,0.2,0H75c0.1,0,0.1,0,0.2,0C75.4,78.3,75.5,78.3,75.7,78.3z"/>
	</g>
	<g>
		<path class="st3" d="M75,120.6l-35.4-17.4V82.8l0.6-0.2c0.2-0.1,6.2-1.8,12.4-0.1c4.7,1.3,9.9,1.2,15.8-0.2
			c3.9-0.9,5.5-0.9,6.3-0.9c0.1,0,0.2,0,0.2,0H75c0.1,0,0.1,0,0.2,0c0.8,0,2.4-0.1,6.3,0.9c5.9,1.4,11.1,1.5,15.8,0.2
			c6.3-1.7,12.2,0,12.4,0.1l0.6,0.2v20.5L75,120.6z M41.2,102.3L75,118.9l33.8-16.6V84c-1.6-0.4-6.2-1.2-11,0.1
			c-5,1.4-10.4,1.3-16.6-0.2C77.4,83,76,83,75.3,83.1c-0.1,0-0.2,0-0.3,0h-0.1c-0.1,0-0.2,0-0.3,0c-0.7,0-2.2-0.1-5.9,0.8
			c-6.2,1.5-11.6,1.5-16.6,0.2c-4.8-1.3-9.4-0.4-11-0.1V102.3z"/>
	</g>
	<path class="st1" d="M70.4,106.1c-6.6,0-8.5-3.9-8.7-4.4l0-0.1c0,0,1.7-4.5,8.7-4.5l0-0.2c0-6.6,3.9-8.5,4.4-8.7l0.1,0
		c0,0,4.5,1.7,4.5,8.7v0.2c6.6,0,8.5,3.9,8.7,4.4l0,0.1c0,0-1.7,4.5-8.7,4.5l0,0.2c0,6.6-3.9,8.5-4.4,8.7l-0.1,0
		c0,0-4.5-1.7-4.5-8.7V106.1z"/>
	<g>
		<path class="st3" d="M74.9,124.1l-0.3-0.2l-38.1-18.7l0-65.7l0.2-0.2C45.3,28,58.9,21.7,74.9,21.7c16,0,29.6,6.2,38.3,17.5
			l0.2,0.2l0,0.8v65L74.9,124.1z M38,104.2l36.9,18.1l36.9-18.1l0-64.3c-8.4-10.7-21.5-16.7-36.9-16.7C59.5,23.3,46.4,29.2,38,40
			l0,0.2V104.2z"/>
	</g>
	<g>
		<path class="st3" d="M37.3,41L27.1,30.4l0.5-0.5c11.8-13.4,29-21.1,47.3-21.1c0,0,0,0,0,0c18.5,0,35.8,7.7,47.6,21.1l0.5,0.6
			l-10.5,10.5l-0.5-0.7c-8.4-10.9-21.5-16.9-37-16.9c-15.5,0-28.7,6-37.1,16.9L37.3,41z M29.3,30.4l7.9,8.2
			c8.7-10.9,22.1-16.8,37.7-16.8c15.7,0,29,6,37.7,16.8l8.2-8.2c-11.5-12.8-28.2-20.1-45.9-20.1C57.3,10.3,40.7,17.6,29.3,30.4z"/>
	</g>
	<g>
		<path class="st3" d="M46,29.6l-2.2,1.5l-8.9-5.8l2.1-1.5l4.9,3.5c0.6,0.5,1.9,1.5,1.9,1.5s-0.5-1.5-0.7-2.3l-1.6-6l2-1.4L46,29.6z
			"/>
		<path class="st3" d="M55.1,24.9L53.2,23l-3.4,1.6l0.2,2.6l-2.3,1.1l-0.5-10.6l2.6-1.2l7.7,7.2L55.1,24.9z M50.3,20
			c-0.4-0.4-1.2-1.3-1.2-1.4c0,0.1,0.2,1.3,0.3,1.8l0.3,2.8l2.5-1.2L50.3,20z"/>
		<path class="st3" d="M64,22.2c-0.2-0.3-2-2-2.8-2.6c-0.8-0.6-1-0.7-1.7-0.5l1,4l-2.3,0.6l-2.3-9.5l3.4-0.8
			c2.6-0.6,4.8-0.5,5.3,1.5c0.4,1.5-0.6,2.8-2.2,3.3c0.5,0.1,1.1,0.4,1.5,0.8c0.6,0.5,2.8,2.3,3.1,2.7L64,22.2z M59.5,14.7l-1,0.3
			l0.7,2.8l1.1-0.3c1.5-0.4,1.8-1.1,1.6-2C61.7,14.5,60.8,14.3,59.5,14.7z"/>
		<path class="st3" d="M73.9,21.1l-3.2-4.5c-0.5-0.7-1.3-2-1.3-2.2c0,0.1,0.3,1.6,0.3,2.5c0.1,1.5,0.3,4.4,0.3,4.4l-2.3,0.1
			l-0.5-9.8l2.5-0.1l3.3,4.6c0.5,0.7,1.1,1.9,1.2,2c0-0.1-0.3-1.8-0.3-2.8c-0.1-1.4-0.2-4.1-0.2-4.1l2.3-0.1l0.5,9.8L73.9,21.1z"/>
		<path class="st3" d="M85.3,22.1l-0.5-2.5L81,19l-1.3,2.3L77.3,21l5.4-9.2l2.8,0.4l2.5,10.3L85.3,22.1z M84,15.4
			c-0.1-0.5-0.2-1.8-0.2-1.8c0,0.1-0.5,1.2-0.8,1.7l-1.3,2.5l2.8,0.4L84,15.4z"/>
		<path class="st3" d="M98.3,26.3l1.7-5.7c0.2-0.6,0.6-1.8,0.6-1.9c-0.1,0.1-0.8,1.1-1.2,1.6l-4.1,4.9l-2-0.8l0.4-6.1
			c0.1-0.8,0.3-2,0.3-2.2c0,0.1-0.6,1.5-0.9,2l-2.5,5.2l-2.3-0.9l4.6-8.7l3,1.2l-0.5,5.9c-0.1,0.6-0.3,1.8-0.3,1.9
			c0.1-0.1,0.7-1.1,1.1-1.6l3.7-4.6l3,1.2l-2.6,9.5L98.3,26.3z"/>
		<path class="st3" d="M105,30.4c-3.3-2.3-2.9-5.2-1.5-7.1c1.9-2.7,4.7-3,7.3-1.2c3.2,2.3,2.9,5.2,1.5,7.1
			C110.9,31.2,108.4,32.9,105,30.4z M110,23.2c-2-1.4-3.5,0.5-4.2,1.5c-0.8,1.1-2.2,3.1,0,4.7c2.1,1.5,3.4-0.4,4.3-1.7
			C110.9,26.5,112.1,24.7,110,23.2z"/>
	</g>
	<polygon class="st3" points="52.4,16.4 51,17.1 50.2,15.8 51.6,15.1 	"/>
	<polygon class="st3" points="46.9,19.1 45.6,20 44.6,18.5 46,17.7 	"/>
</g>
<g>
</g>
</svg>
