<?xml version="1.0" encoding="UTF-8" standalone="no"?>
<svg
   xmlns:dc="http://purl.org/dc/elements/1.1/"
   xmlns:cc="http://creativecommons.org/ns#"
   xmlns:rdf="http://www.w3.org/1999/02/22-rdf-syntax-ns#"
   xmlns:svg="http://www.w3.org/2000/svg"
   xmlns="http://www.w3.org/2000/svg"
   viewBox="0 0 491.46667 577.96002"
   height="577.96002"
   width="491.46667"
   xml:space="preserve"
   id="svg2"
   version="1.1"><metadata
     id="metadata8"><rdf:RDF><cc:Work
         rdf:about=""><dc:format>image/svg+xml</dc:format><dc:type
           rdf:resource="http://purl.org/dc/dcmitype/StillImage" /></cc:Work></rdf:RDF></metadata><defs
     id="defs6" /><g
     transform="matrix(1.3333333,0,0,-1.3333333,0,577.96)"
     id="g10"><g
       transform="scale(0.1)"
       id="g12"><path
         id="path14"
         style="fill:#1f4fa2;fill-opacity:1;fill-rule:evenodd;stroke:none"
         d="m 1842.99,4236.84 c 0,0 -619.96,-816.48 -1648.088,-136.09 0,0 -378.011,-1043.24 90.703,-2207.51 C 754.316,729.02 1480.09,230.039 1812.72,63.7305 l 29.29,-13.2422 25.19,12.6015 C 2199.87,229.398 2925.61,728.379 3394.37,1892.6 c 468.71,1164.27 90.71,2207.57 90.71,2207.57 -1028.19,-680.4 -1648.1,136.04 -1648.1,136.04" /><path
         id="path16"
         style="fill:#ffffff;fill-opacity:1;fill-rule:evenodd;stroke:none"
         d="m 3014.3,3877.46 c 0,0 -282.22,-816.5 -1229.79,-1391.09 0,0 -655.19,-433.42 -1511.994,-534.22 0,0 322.582,-796.3 514.086,-967.681 0,0 876.988,141.111 1794.268,846.711 0,0 504,312.48 1048.32,1068.49 0,0 30.22,796.31 -151.2,1199.51 L 3014.3,3877.46" /><path
         id="path18"
         style="fill:none;stroke:#927f3b;stroke-width:107.71700287;stroke-linecap:butt;stroke-linejoin:miter;stroke-miterlimit:4;stroke-dasharray:none;stroke-opacity:1"
         d="m 3014.3,3867.37 c 0,0 -554.4,-1562.42 -2721.609,-1915.22" /><path
         id="path20"
         style="fill:none;stroke:#927f3b;stroke-width:107.71700287;stroke-linecap:butt;stroke-linejoin:miter;stroke-miterlimit:4;stroke-dasharray:none;stroke-opacity:1"
         d="m 3609,2879.54 c 0,0 -957.59,-1491.87 -2789.613,-1880.552" /><path
         id="path22"
         style="fill:none;stroke:#927f3b;stroke-width:107.71700287;stroke-linecap:butt;stroke-linejoin:miter;stroke-miterlimit:4;stroke-dasharray:none;stroke-opacity:1"
         d="m 1839.99,4245.36 c 0,0 -613.95,-815.85 -1642.092,-135.45 0,0 -378.011,-1043.3 90.715,-2207.52 C 757.32,738.129 1483.1,239.199 1815.72,72.8789 L 1845,59.6406 1870.21,72.25 c 332.66,166.309 1058.39,665.289 1527.11,1829.51 468.75,1164.22 90.76,2207.51 90.76,2207.51 -1028.18,-680.39 -1648.09,136.09 -1648.09,136.09 z" /><path
         id="path24"
         style="fill:#927f3b;fill-opacity:1;fill-rule:evenodd;stroke:none"
         d="m 1688.32,586.23 151.2,-267.16 144.26,268.391 0.35,0.551 267.11,151.199 -268.39,144.258 -0.84,0.832 -151.2,267.119 -144.26,-268.389 -0.3,-0.5 -267.15,-151.191 268.39,-144.27 0.83,-0.84" /><path
         id="path26"
         style="fill:#927f3b;fill-opacity:1;fill-rule:nonzero;stroke:none"
         d="m 575.305,2949.96 c 0,-98.83 8.386,-101.63 52.211,-107.22 l 20.515,-2.8 c 6.524,-6.53 5.59,-23.31 -1.871,-27.04 -41.023,1.86 -82.98,2.8 -124.008,2.8 -41.023,0 -84.847,-0.94 -125.875,-2.8 -7.461,3.73 -8.386,20.51 -1.863,27.04 l 20.512,2.8 c 43.824,5.59 52.219,8.39 52.219,107.22 v 346.86 c 0,98.84 -8.395,101.63 -52.219,107.22 l -20.512,2.8 c -6.523,6.53 -5.598,23.31 1.863,27.04 41.028,-1.86 82.985,-2.8 125.875,-2.8 41.028,0 82.985,0.94 124.016,2.8 7.453,-3.73 8.387,-20.51 1.863,-27.04 l -20.515,-2.8 c -43.825,-5.59 -52.211,-8.38 -52.211,-107.22 v -346.86" /><path
         id="path28"
         style="fill:#927f3b;fill-opacity:1;fill-rule:nonzero;stroke:none"
         d="m 1029.37,3431.09 c 59.67,0 111.89,0.93 131.47,2.79 0,-20.51 0,-90.44 1.87,-134.27 -3.74,-7.45 -20.52,-9.32 -29.84,-3.72 -9.33,54.07 -24.24,81.11 -59.68,90.44 -25.17,6.53 -48.48,7.46 -78.319,7.46 H 947.32 c -39.16,0 -39.16,-1.87 -39.16,-54.08 v -166.9 c 0,-23.31 0.934,-25.18 22.375,-25.18 h 55.012 c 81.123,0 96.043,1.87 104.433,41.03 l 7.46,31.7 c 5.59,6.53 23.31,6.53 27.97,-0.93 -0.94,-24.25 -2.8,-58.74 -2.8,-93.25 0,-34.49 1.86,-68.06 2.8,-96.96 -4.66,-7.46 -22.38,-7.46 -27.97,-0.94 l -7.46,36.37 c -8.39,39.16 -23.31,41.03 -104.433,41.03 h -55.012 c -21.441,0 -22.375,-1.87 -22.375,-25.18 v -130.54 c 0,-98.83 8.387,-101.63 52.211,-105.36 l 39.164,-4.66 c 6.525,-6.53 5.595,-23.31 -1.867,-27.04 -59.676,1.86 -101.633,2.8 -142.656,2.8 -41.028,0 -82.985,-0.94 -125.875,-2.8 -7.461,3.73 -8.395,20.51 -1.867,27.04 l 20.511,2.8 c 43.824,5.59 52.219,8.39 52.219,107.22 v 346.86 c 0,98.84 -8.395,101.63 -52.219,108.16 l -12.117,1.86 c -6.527,6.53 -5.598,23.31 1.863,27.04 32.633,-1.86 74.59,-2.79 115.618,-2.79 h 176.225" /><path
         id="path30"
         style="fill:#927f3b;fill-opacity:1;fill-rule:nonzero;stroke:none"
         d="m 1407.92,3193.32 c 0,-25.17 0.93,-41.96 15.84,-41.96 17.72,0 39.16,21.45 69.94,55.01 l 95.1,102.57 c 12.12,12.12 39.16,42.89 50.35,57.81 16.79,21.45 17.72,28.91 6.53,31.7 l -28.91,8.39 c -7.45,6.53 -5.59,19.58 1.87,27.04 39.16,-1.86 69.92,-2.8 104.43,-2.8 40.09,0 68.99,1.86 102.56,2.8 10.26,-2.79 12.12,-22.37 2.8,-27.04 -86.71,-12.12 -111.89,-34.5 -176.22,-96.97 -40.1,-40.09 -77.4,-78.32 -113.76,-114.68 -11.19,-11.19 -13.05,-16.79 -2.8,-30.77 73.67,-96.98 162.25,-207.93 229.38,-286.25 19.58,-23.31 41.02,-31.7 68.99,-35.43 l 22.38,-2.8 c 6.53,-4.66 5.6,-24.24 -1.87,-27.04 -32.63,1.86 -69.93,2.8 -119.34,2.8 -45.69,0 -87.65,-0.94 -128.67,-2.8 -10.26,3.73 -10.26,22.38 -1.87,27.04 l 25.18,3.73 c 14.92,2.8 16.78,12.12 6.52,25.18 -39.16,48.48 -150.11,199.53 -184.61,234.96 -6.53,6.52 -13.99,13.99 -22.38,13.99 -23.31,0 -21.44,-22.38 -21.44,-49.42 v -118.42 c 0,-98.83 8.39,-101.63 52.21,-107.22 l 23.31,-2.8 c 6.53,-4.66 5.59,-23.31 -1.87,-27.04 -43.82,1.86 -85.78,2.8 -126.8,2.8 -41.03,0 -84.85,-0.94 -118.42,-2.8 -7.46,3.73 -8.39,22.38 -1.86,27.04 l 13.05,1.86 c 43.82,6.53 52.22,9.33 52.22,108.16 v 346.86 c 0,98.84 -8.4,101.63 -52.22,107.22 l -17.72,2.8 c -6.52,6.53 -5.59,23.31 1.87,27.04 38.23,-1.86 80.19,-2.8 123.08,-2.8 41.02,0 82.98,0.94 119.35,2.8 7.46,-3.73 8.39,-22.37 1.86,-27.04 l -15.85,-2.8 c -43.82,-5.59 -52.21,-8.38 -52.21,-107.22 v -103.5" /><path
         id="path32"
         style="fill:#927f3b;fill-opacity:1;fill-rule:nonzero;stroke:none"
         d="m 1019.34,1294.13 -220.356,312.78 115.039,-346.21 -61.933,-20.59 -154.942,466.29 112.168,37.27 197.894,-285.92 -105.237,316.72 60.957,20.25 155.41,-467.7 -99,-32.89" /><path
         id="path34"
         style="fill:#927f3b;fill-opacity:1;fill-rule:nonzero;stroke:none"
         d="m 1380.41,1703.53 c -49.51,118.04 -129.65,220.06 -234.37,176.13 -110.9,-46.52 -92.48,-172.8 -42.39,-292.23 49.52,-118.04 136.11,-222.16 238.95,-179.02 99.98,41.93 87.05,177.74 37.81,295.12 z m -82.56,-33.03 c 32.06,-76.43 64.81,-163.81 12.21,-185.86 -52.6,-22.07 -93.22,62.8 -125.57,139.92 -31.48,75.06 -55.03,163.09 -8.59,182.56 45.98,19.28 90.18,-60.88 121.95,-136.62" /><path
         id="path36"
         style="fill:#927f3b;fill-opacity:1;fill-rule:nonzero;stroke:none"
         d="m 1792.9,1631.79 -176.92,155.47 c 30.95,34.57 21.72,95.35 -7.95,153.32 -42.4,82.21 -99.38,98.33 -156.33,69.74 l -119.41,-59.93 220.39,-439.15 72.57,36.41 -85.76,169.74 23.09,12.43 142.79,-143.62 z m -252.69,254.88 c 18.59,-37.04 16.08,-75.56 -10.11,-88.7 l -24.8,-12.45 -65.06,129.63 22.51,11.3 c 27.56,13.84 52.56,9.82 77.46,-39.78" /><path
         id="path38"
         style="fill:#927f3b;fill-opacity:1;fill-rule:nonzero;stroke:none"
         d="m 2086.07,1801.26 -186.32,144.04 c 28.71,36.46 15.68,96.54 -17.56,152.52 -47.49,79.4 -105.35,91.91 -160.4,59.81 l -115.42,-67.32 247.54,-424.45 70.13,40.91 -96.25,164.02 22.27,13.85 151.52,-134.35 z m -268.18,238.52 c 20.87,-35.8 20.78,-74.41 -4.53,-89.16 l -23.97,-13.99 -73.06,125.3 21.75,12.68 c 26.63,15.54 51.84,13.11 79.81,-34.83" /><path
         id="path40"
         style="fill:#927f3b;fill-opacity:1;fill-rule:nonzero;stroke:none"
         d="m 2297.7,1941.44 -177.33,128.78 0.03,-49.88 91.08,-136.71 -66.58,-44.66 -273.69,408.07 67.01,44.94 115,-171.46 -23.67,232.72 64.02,42.94 23,-221.58 260.52,-179.92 -79.39,-53.24" /><path
         id="path42"
         style="fill:#927f3b;fill-opacity:1;fill-rule:nonzero;stroke:none"
         d="m 2505.96,2405.11 c -78.17,101.39 -181.82,179.37 -271.76,110.02 -95.22,-73.44 -44.98,-190.75 34.11,-293.3 78.19,-101.37 188.6,-179.75 276.92,-111.64 85.86,66.21 38.46,194.14 -39.27,294.92 z m -249.44,213.2 c -14.96,20.24 -38.2,28.49 -52.89,18.09 -14.29,-10.08 -13.93,-34.1 1.08,-55.25 14.95,-20.23 38.59,-28.17 52.88,-18.08 14.7,10.4 13.88,35.01 -1.07,55.24 z m -85.5,-65 c -15.41,20.82 -39.06,28.75 -53.34,18.67 -14.69,-10.41 -13.89,-35.01 1.07,-55.25 14.96,-20.23 38.19,-28.48 52.89,-18.09 14.28,10.09 14.34,34.43 -0.62,54.67 z m 263.65,-201.32 c 50.6,-65.63 104.71,-141.66 59.53,-176.49 -45.16,-34.84 -106.23,36.76 -157.29,102.97 -49.72,64.45 -95.08,143.48 -55.21,174.24 39.47,30.44 102.79,-35.67 152.97,-100.72" /><path
         id="path44"
         style="fill:#927f3b;fill-opacity:1;fill-rule:nonzero;stroke:none"
         d="m 2677.64,2689.25 c -67.84,75.35 -138.4,68.36 -181.96,29.95 l -98.67,-87.02 325.04,-368.51 60.88,53.72 -118.83,133.96 42.01,37.05 c 44.71,39.43 42.8,121.62 -28.47,200.85 z m -57.8,-65.76 c 26.55,-30.87 43.91,-66.87 15.1,-93.26 l -22.24,-20.61 -102.31,116 25.06,22.09 c 26.97,23.79 57.97,5.74 84.39,-24.22" /><path
         id="path46"
         style="fill:#927f3b;fill-opacity:1;fill-rule:nonzero;stroke:none"
         d="m 2961.54,2480.44 -342.56,352.27 57.86,56.25 343.57,-353.33 -58.87,-55.19" /><path
         id="path48"
         style="fill:#927f3b;fill-opacity:1;fill-rule:nonzero;stroke:none"
         d="m 3207.81,2731.47 -344.49,166.45 268.65,-246.81 -44.16,-48.07 -361.83,332.42 79.96,87.05 311.83,-153.88 -245.78,225.78 43.46,47.3 362.93,-333.42 -70.57,-76.82" /><path
         id="path50"
         style="fill:#927f3b;fill-opacity:1;fill-rule:nonzero;stroke:none"
         d="m 3434.88,2984.3 c -52.89,-67.59 -169.25,-54.17 -303.86,51.18 -113.64,88.95 -150.92,201 -95.49,271.82 44.65,57.06 110.33,46.12 151.36,27.71 l -6.42,-77.85 c -37.17,17.34 -61.31,22.52 -81.27,-2.97 -35.16,-44.92 22.68,-101.91 87.93,-153 69.35,-54.27 152.11,-96.21 181.58,-58.57 13.93,17.8 20.04,28.03 19.61,39.46 l -74.06,56.66 -33.89,-43.3 -63.51,49.71 80.76,103.2 188.81,-147.77 c 4.96,-26.08 -21.14,-77.42 -51.55,-116.28" /></g></g></svg>