<?xml version="1.0" encoding="UTF-8" standalone="no"?>
<svg
   xmlns:dc="http://purl.org/dc/elements/1.1/"
   xmlns:cc="http://creativecommons.org/ns#"
   xmlns:rdf="http://www.w3.org/1999/02/22-rdf-syntax-ns#"
   xmlns:svg="http://www.w3.org/2000/svg"
   xmlns="http://www.w3.org/2000/svg"
   viewBox="0 0 185.94667 284.21332"
   height="284.21332"
   width="185.94667"
   xml:space="preserve"
   id="svg2"
   version="1.1"><metadata
     id="metadata8"><rdf:RDF><cc:Work
         rdf:about=""><dc:format>image/svg+xml</dc:format><dc:type
           rdf:resource="http://purl.org/dc/dcmitype/StillImage" /></cc:Work></rdf:RDF></metadata><defs
     id="defs6" /><g
     transform="matrix(1.3333333,0,0,-1.3333333,0,284.21333)"
     id="g10"><g
       transform="scale(0.1)"
       id="g12"><path
         id="path14"
         style="fill:#ffffff;fill-opacity:1;fill-rule:nonzero;stroke:none"
         d="m 1372.8,1994.53 c 0.3,9.64 -1.05,18.36 -4.03,25.93 -0.64,1.59 -1.36,3.01 -2.2,4.6 l -1.21,2.36 c -0.56,0.95 -1.17,1.81 -2,2.94 -4.65,6.6 -10.94,11.87 -18.11,15.21 -11.87,5.6 -28.82,5.91 -43.79,6.18 -3.41,0.06 -6.67,0.12 -9.59,0.25 -1.75,0.08 -3.35,0.17 -4.55,0.29 -27.92,3.34 -52.63,11.4 -78.8,19.93 -33.18,10.8 -67.49,21.98 -107.73,22.22 -4.83,0 -9.81,-0.1 -14.86,-0.41 -44.3,-2.72 -83.5,-17.13 -121.418,-31.07 -38.34,-14.1 -74.551,-27.41 -114.461,-28.61 -3.274,-0.11 -6.731,-0.13 -10.395,-0.06 -25.242,0.54 -58.797,6.34 -77,20.74 -5.515,4.6 -10.449,11.39 -13.75,18.87 0,0 -18.176,-6.83 -51.593,-6.86 -33.418,0.03 -51.575,6.86 -51.575,6.86 -3.312,-7.49 -8.211,-14.26 -13.449,-18.62 -18.5,-14.65 -52.07,-20.45 -77.289,-20.99 -3.66,-0.07 -7.152,-0.06 -10.484,0.07 -39.828,1.19 -76.039,14.5 -114.379,28.6 -37.91,13.93 -77.117,28.35 -121.422,31.07 -5.047,0.31 -9.985,0.42 -14.867,0.41 -40.219,-0.24 -74.539,-11.42 -107.719,-22.22 -26.172,-8.53 -50.899,-16.59 -78.551,-19.9 -1.441,-0.14 -3.043,-0.25 -4.769,-0.32 -2.9418,-0.13 -6.2113,-0.19 -9.6215,-0.25 -14.9687,-0.27 -31.9258,-0.58 -43.7383,-6.15 -7.25,-3.38 -13.5234,-8.66 -18.3008,-15.45 -0.6406,-0.84 -1.2617,-1.7 -1.9101,-2.8 l -1.336,-2.63 c -0.7265,-1.37 -1.4218,-2.76 -2.0234,-4.28 -2.9766,-7.53 -4.3398,-16.24 -4.043,-25.4 v -418.58 c 0,-18.44 0,-35.86 10.0547,-51.17 l 4.4961,-6.86 9.8633,-9.4 0.0586,-388.33 11.7187,6.13 c 5.5508,2.91 10.7813,3.89 16.1641,3.02 42.5856,-6.36 43.8166,-90.26 43.8166,-99.8 V 795.84 c 0,-40.289 -7.852,-68.879 -23.8713,-87.238 -9.2969,-10.153 -21.5312,-14.653 -31.1015,-11.543 -1,0.339 -2.5469,0.98 -4.2735,2.121 l -12.4531,8.281 V 391.059 c 0,-185.391 113.0274,-251.168 209.8204,-251.168 h 214.789 c 73.684,0 155.859,-10.211 206.719,-85.8793 4.57,-6.7929 8.824,-13.8633 12.617,-21 L 697.313,19.7188 704.387,33 c 3.836,7.1914 8.086,14.2695 12.633,21.0391 50.851,75.6519 133.039,85.8519 206.718,85.8519 h 214.792 c 96.79,0 209.81,65.777 209.81,251.168 v 316.402 l -12.43,-8.281 c -1.75,-1.141 -3.3,-1.782 -4.3,-2.121 -9.34,-3.098 -21.8,1.402 -30.72,11.132 -16.32,18.68 -24.24,47.36 -24.24,87.649 v 234.21 c 0,9.54 1.23,93.44 44.08,99.84 5.17,0.83 10.36,-0.15 15.89,-3.04 l 11.72,-6.13 v 388.24 l 9.91,9.46 4.5,6.87 c 10.06,15.31 10.06,32.73 10.06,51.17 l -0.01,418.07" /><path
         id="path16"
         style="fill:#fcbd00;fill-opacity:1;fill-rule:nonzero;stroke:none"
         d="m 1348.97,2064.65 c -19.03,6.7 -39.19,3.88 -58.61,5.99 -73.82,8.47 -126.07,46.61 -205.57,42.03 -85.825,-5.27 -153.989,-57.57 -235.278,-60.06 -19.032,-0.66 -65.989,2.82 -79.461,21.2 -0.324,0.4 -0.688,1.05 -1.059,1.42 13.11,1.79 23.313,13.09 23.313,26.5 0,29.98 -44.492,36.02 -58.262,13.4 -7.98,-12.87 -6.914,-29.88 -0.938,-44.95 h 0.02 c 4.348,-11.09 11.34,-20.83 19.285,-27.45 22.258,-17.62 59.113,-23.85 86.906,-24.45 3.977,-0.09 7.754,-0.06 11.289,0.06 83.348,2.5 150.845,54.47 236.295,59.71 4.68,0.29 9.28,0.41 13.79,0.38 67.77,-0.41 118.21,-34.08 184.75,-42.03 1.72,-0.19 3.63,-0.3 5.69,-0.4 14.48,-0.63 36.16,0.34 47.3,-4.91 4.36,-2.04 8.52,-5.27 11.82,-9.96 0.44,-0.61 0.91,-1.17 1.31,-1.84 0.29,-0.47 0.5,-1.05 0.76,-1.54 0.54,-1.03 1.11,-2.04 1.56,-3.2 2.04,-5.14 3.17,-11.56 2.92,-19.51 v -418.58 c 0,-17.3 0,-31.07 -7.42,-42.37 h -0.4 c -0.09,3.12 -0.48,6.17 -1.12,9.17 -0.07,0.34 -0.15,0.67 -0.22,1 -0.61,2.6 -1.41,5.13 -2.42,7.6 -0.21,0.57 -0.42,1.13 -0.67,1.69 -1,2.23 -2.18,4.38 -3.5,6.45 -0.39,0.63 -0.71,1.27 -1.12,1.86 -1.78,2.56 -3.74,5.02 -6.01,7.3 -20.36,20.3 -54.81,21.4 -76.87,2.37 -15.58,-13.6 -20.39,-37.07 -11,-53.34 2.95,-5.21 7.14,-9.14 12.16,-11.51 -5.52,-2.36 -11.48,-4.55 -17.8,-6.55 -24.14,-7.54 -52.36,-11.73 -81.54,-12.13 -39.78,-0.39 -81.89,8.85 -125.31,27.2 -42.455,17.86 -80.044,41.29 -108.755,67.79 l -3.172,2.91 c -7.656,7.06 -15.586,14.37 -24.707,20.69 -9.985,6.55 -20.11,9.93 -30.949,10.32 -15.762,0.66 -30.071,-5.41 -40.274,-16.27 H 568.938 c -10.192,10.86 -24.504,16.93 -40.262,16.27 -10.84,-0.39 -20.973,-3.77 -30.949,-10.32 -9.133,-6.32 -17.051,-13.63 -24.715,-20.69 l -3.168,-2.91 c -28.711,-26.5 -66.309,-49.93 -108.758,-67.79 -43.422,-18.35 -85.527,-27.59 -125.309,-27.2 -29.172,0.4 -57.394,4.59 -81.543,12.13 -6.308,2 -12.269,4.19 -17.796,6.55 5.015,2.37 9.199,6.3 12.148,11.51 9.387,16.27 4.59,39.74 -10.992,53.34 -22.059,19.03 -56.5198,17.93 -76.8713,-2.37 -2.2657,-2.28 -4.2383,-4.74 -6.0039,-7.3 -0.4141,-0.59 -0.7461,-1.23 -1.125,-1.86 -1.3165,-2.07 -2.5079,-4.22 -3.5,-6.45 -0.25,-0.56 -0.461,-1.12 -0.6797,-1.69 -1,-2.47 -1.7969,-5 -2.4063,-7.6 -0.0742,-0.33 -0.1523,-0.66 -0.2226,-1 -0.6407,-3 -1.0196,-6.05 -1.1289,-9.17 h -0.3907 c -7.4179,11.3 -7.4179,25.07 -7.4179,42.37 v 418.58 c -0.2539,7.95 0.8867,14.37 2.9179,19.51 0.461,1.16 1.0196,2.17 1.5586,3.2 0.2578,0.49 0.4688,1.07 0.7617,1.54 0.3985,0.67 0.8711,1.23 1.3086,1.84 3.2891,4.69 7.461,7.92 11.8203,9.96 11.1368,5.25 32.8282,4.28 47.2932,4.91 2.066,0.1 3.988,0.21 5.707,0.4 66.543,7.95 116.98,41.62 184.73,42.03 4.524,0.03 9.114,-0.09 13.789,-0.38 85.469,-5.24 152.957,-57.21 236.297,-59.71 3.532,-0.12 7.324,-0.15 11.297,-0.06 27.797,0.6 64.649,6.83 86.906,24.45 7.954,6.62 14.938,16.36 19.289,27.45 h 0.02 c 5.98,15.07 7.031,32.08 -0.938,44.95 -13.781,22.62 -58.269,16.58 -58.269,-13.4 0,-13.41 10.219,-24.71 23.316,-26.5 -0.371,-0.37 -0.726,-1.02 -1.058,-1.42 -13.473,-18.38 -60.43,-21.86 -79.457,-21.2 -81.305,2.49 -149.453,54.79 -235.282,60.06 -79.488,4.58 -131.75,-33.56 -205.578,-42.03 -19.4137,-2.11 -39.57,0.71 -58.6129,-5.99 -21.2188,-7.39 -43.83988,-25.8 -42.45316,-70.67 v -417.52 c 0,-36.74 5.70703,-64.3 37.48436,-84.76 v -386.4 c 10.9492,10.94 21.1914,20.86 32.5,19.03 32.8277,-4.9 39.2107,-68.15 39.2107,-94.28 V 795.84 c 0,-27.891 -3.527,-61.828 -22.6208,-83.711 -12.0118,-13.078 -32.8399,-16.949 -35.3321,6.699 4.293,-4.937 11.3516,-4.937 17.3242,-2.449 18.379,8.449 20.4571,41.312 -4.9492,41.68 C 47.7539,758.422 40.6953,738.262 40.6953,722.73 V 391.051 c 0,-133.172 68.8907,-256.781 215.4257,-256.781 h 214.793 c 88.27,0 157.191,-16.622 202.059,-83.3716 9.511,-14.0976 19.058,-31.8086 24.351,-48.05856 5.293,16.24996 14.844,33.96096 24.356,48.05856 44.851,66.7496 113.781,83.3716 202.05,83.3716 h 214.79 c 146.55,0 215.44,123.609 215.44,256.781 V 722.73 c 0,15.532 -7.07,35.692 -26.15,35.329 -25.41,-0.368 -23.32,-33.231 -4.94,-41.68 5.98,-2.488 13.04,-2.488 17.32,2.449 -2.48,-23.648 -23.31,-19.777 -35.33,-6.699 -19.1,21.883 -22.61,55.82 -22.61,83.711 v 234.21 c 0,26.13 6.36,89.38 39.21,94.28 11.29,1.83 21.55,-8.09 32.5,-19.03 v 386.4 c 31.76,20.46 37.48,48.02 37.48,84.76 v 417.52 c 1.37,44.87 -21.23,63.28 -42.47,70.67" /><path
         id="path18"
         style="fill:#ffffff;fill-opacity:1;fill-rule:nonzero;stroke:none"
         d="m 54.2578,1501.41 c 2.7188,-4.46 6.0391,-8.64 9.9531,-12.6 17.5157,-17.44 42.3361,-31.16 73.8481,-40.85 28.738,-9.25 62.39,-14.35 97.097,-14.71 0.696,-0.01 1.391,-0.01 2.071,-0.01 46.203,0 94.929,10.56 144.968,31.43 44.774,18.72 83.602,42.36 115.563,70.35 0.699,-6.84 3.922,-13.13 9.476,-17.95 14.153,-12.41 38.164,-12.35 54.614,0.19 9.871,7.66 16.531,18.23 19.73,29.75 h 231.488 c 3.204,-11.52 9.864,-22.09 19.739,-29.75 16.441,-12.54 40.457,-12.6 54.605,-0.19 5.57,4.82 8.774,11.11 9.485,17.95 31.953,-27.99 70.773,-51.63 115.555,-70.35 50.05,-20.87 98.78,-31.43 144.97,-31.43 0.68,0 1.38,0 2.07,0.01 34.72,0.36 68.36,5.46 97.1,14.71 31.51,9.69 56.33,23.41 73.85,40.85 3.88,3.93 7.18,8.08 9.89,12.49 v -367.35 c -6.32,3.3 -13.24,5.09 -20.9,3.84 -48.35,-7.22 -50.79,-91.01 -50.79,-107.73 V 795.84 c 0,-42.32 8.49,-72.629 26.2,-92.91 11.31,-12.328 26.78,-17.621 39.29,-13.469 1.56,0.519 3.8,1.469 6.2,3.07 v -301.48 c 0,-179.492 -108.71,-243.16 -201.81,-243.16 H 923.73 C 847.938,147.891 763.32,137.27 710.383,58.5 705.645,51.4609 701.23,44.1016 697.324,36.7695 693.43,44.1016 689.02,51.4492 684.277,58.4883 631.328,137.27 546.719,147.891 470.918,147.891 H 256.129 c -93.102,0 -201.8126,63.668 -201.8126,243.16 v 301.48 c 2.4024,-1.601 4.6328,-2.551 6.2031,-3.07 12.4766,-4.102 27.9571,1.129 39.5315,13.719 17.469,20.031 25.965,50.34 25.965,92.66 v 234.22 c 0,16.72 -2.446,100.51 -50.6488,107.71 -7.7305,1.25 -14.6992,-0.52 -21.0508,-3.84 l -0.0586,367.48" /><path
         id="path20"
         style="fill:#ffffff;fill-opacity:1;fill-rule:nonzero;stroke:none"
         d="m 1297.44,1544.36 c 14.13,-3.22 12,-18.41 3.92,-26.53 -13.47,-13.03 -33.58,-23.32 -56.9,-30.7 -26.12,-8.17 -56.13,-12.34 -85.5,-12.74 -44.82,-0.34 -89.69,10.94 -130.68,28.25 -40.272,16.95 -80.167,40.29 -112.675,70.31 -8.476,7.76 -16.933,15.85 -26.164,22.25 -7.019,4.62 -14.812,7.76 -24.003,8.1 -18.375,0.72 -31.446,-9.89 -37.442,-23.28 -8.141,-18.05 -2.449,-39.9 13.067,-51.93 12.035,-9.2 28.949,-8.17 37.445,-0.72 15.515,13.42 -8.82,40.97 -26.875,34.97 0,7.06 4.988,13.75 12.742,13.43 8.152,-0.36 22.617,-13.07 34.297,-24.02 34.258,-31.83 75.945,-56.51 119.028,-74.52 44.14,-18.4 92.89,-30.71 141.64,-30.37 31.76,0.33 64.61,4.9 93.26,14.12 27.53,8.46 51.54,20.87 68.14,37.41 3.89,3.93 7.4,8.5 9.89,13.45 7.81,16.25 6.73,34.59 -6.32,47.67 -16.29,16.26 -43.12,14.87 -58.31,1.76 -11.27,-9.84 -13.79,-26.48 -8.09,-36.38 7.39,-13.05 24.71,-6 32.79,2.48 4.25,3.86 8.13,9.52 6.74,16.99" /><path
         id="path22"
         style="fill:#ffffff;fill-opacity:1;fill-rule:nonzero;stroke:none"
         d="m 815.566,1585.61 c 0.227,0.5 0.528,0.93 0.762,1.41 H 578.313 c 0.238,-0.48 0.539,-0.91 0.757,-1.41 3.59,-7.98 4.993,-16.53 4.68,-24.99 h 227.141 c -0.317,8.46 1.089,17.01 4.675,24.99" /><path
         id="path24"
         style="fill:#ffffff;fill-opacity:1;fill-rule:nonzero;stroke:none"
         d="m 97.2109,1544.36 c -14.1406,-3.22 -12.0117,-18.41 -3.9218,-26.53 13.4649,-13.03 33.5699,-23.32 56.8909,-30.7 26.125,-8.17 56.144,-12.34 85.496,-12.74 44.836,-0.34 89.707,10.94 130.695,28.25 40.262,16.95 80.16,40.29 112.672,70.31 8.477,7.76 16.93,15.85 26.156,22.25 7.031,4.62 14.821,7.76 24.016,8.1 18.367,0.72 31.437,-9.89 37.433,-23.28 8.133,-18.05 2.454,-39.9 -13.062,-51.93 -12.031,-9.2 -28.941,-8.17 -37.441,-0.72 -15.524,13.42 8.816,40.97 26.867,34.97 0,7.06 -4.981,13.75 -12.739,13.43 -8.148,-0.36 -22.621,-13.07 -34.3,-24.02 -34.25,-31.83 -75.938,-56.51 -119.02,-74.52 -44.14,-18.4 -92.89,-30.71 -141.64,-30.37 -31.782,0.33 -64.61,4.9 -93.262,14.12 -27.539,8.46 -51.5393,20.87 -68.1604,37.41 -3.8789,3.93 -7.3867,8.5 -9.875,13.45 -7.8047,16.25 -6.7461,34.59 6.3282,47.67 16.289,16.26 43.1172,14.87 58.3082,1.76 11.27,-9.84 13.789,-26.48 8.09,-36.38 -7.402,-13.05 -24.711,-6 -32.801,2.48 -4.2496,3.86 -8.1207,9.52 -6.7301,16.99" /><path
         id="path26"
         style="fill:#234b9a;fill-opacity:1;fill-rule:nonzero;stroke:none"
         d="m 1060.2,706.16 c 2.33,-7.199 3.99,-13.129 5.03,-18.64 -2.89,3.839 -5.75,7.691 -8.48,11.558 -14.03,20.133 -20.51,37.031 -19.77,51.274 1.09,1.027 2.21,2.058 3.32,3.097 7.76,-15.551 15.04,-31.359 19.9,-47.289 m -47.12,-131.941 c -15.709,0 -29.135,3.832 -36.392,10.301 -4,25.171 -12.833,47.75 -27.547,70.832 7.343,9.597 14.57,18.527 21.679,26.558 9.903,11.192 18.391,20.481 26.16,28.731 6.96,-18.731 17.04,-34.422 25.96,-48.063 l 0.74,-1.137 c 11.84,-17.601 22.08,-32.839 22.08,-48.929 0,-18.563 -11.46,-38.293 -32.68,-38.293 M 899.336,1242.7 c 5.383,6.01 10.207,11.41 14.766,16.51 13.046,-15.34 25.918,-30.5 38.457,-45.31 -12.391,-10.27 -24.883,-19.9 -36.739,-28.92 l -11.894,-9.05 38.117,-41.43 c -0.219,-0.71 -0.441,-1.44 -0.625,-2.05 l -5.051,-12.91 c -4.101,-10.5 -8.152,-20.83 -12.082,-31.51 -5.445,-5.34 -10.984,-11.8 -16.805,-18.62 l -6.621,-7.67 c -17.761,-21.37 -37.265,-43.79 -62.617,-64.349 0.149,6.319 -0.195,12.529 -1.34,17.659 l -0.308,0.81 2.515,7.68 c 4.309,13.07 2.473,27.94 -3.765,41.24 l 1.902,2.95 c 9.004,13.94 7.332,30.17 -3.75,45.35 l 1.375,3.11 c 5.703,12.99 5.246,26.45 -1.308,38.92 -0.36,0.69 -0.868,1.34 -1.278,2.03 l 1.223,7.11 c 0.68,4.07 0.918,7.77 0.945,11.29 32.981,33.59 57.266,58.64 64.883,67.16 m -612.18,-217.97 -0.265,-0.28 c -0.032,0.34 -0.121,0.66 -0.161,0.99 0.141,-0.24 0.274,-0.48 0.426,-0.71 m 370.442,344.26 v -5 c -13.418,-8.35 -26.289,-17.26 -37.239,-27.65 l -3.05,2.2 c -1.84,1.33 -4.2,2.32 -6.766,2.99 5.008,21.17 19.246,29.65 47.055,27.46 M 1268.26,949.809 h 0.09 l 0.28,0.57 v 79.681 c 0,16.72 2.45,100.5 50.81,107.73 7.65,1.25 14.57,-0.54 20.89,-3.84 v 299.29 c -0.06,-0.1 -0.22,-0.79 -0.22,-0.79 -38.13,-55.49 -65.24,-94.97 -101.22,-142.66 -33.11,-43.25 -47.94,-65.96 -122.73,-142.42 2.04,7.82 0.55,13.99 -1.43,18.17 -4.65,9.78 -14.18,14.03 -19.74,15.75 0.83,8.69 -0.64,16.07 -4.68,21.78 -3.04,4.31 -9.01,9.8 -20.14,11.42 l -0.53,0.06 c -2.65,9.58 -7.3,15.41 -12.51,18.59 0.78,0.61 1.59,1.24 2.36,1.86 l 13.33,10.56 -42.13,46.98 -9.99,-12.91 c -7.86,-10.14 -16.17,-19.72 -24.802,-28.63 l -45.168,49.3 c 0.04,0.05 0.208,0.25 0.208,0.25 31.816,37.4 39.394,51.25 53.512,75.58 10.25,17.68 22.49,39.96 46.14,74.55 0,0 -22.31,7.39 -38.14,13.99 -44.782,18.72 -83.602,42.36 -115.555,70.35 -0.711,-6.84 -3.926,-13.13 -9.493,-17.95 -14.14,-12.41 -38.156,-12.36 -54.609,0.19 -5.984,4.64 -10.645,10.44 -14.207,16.8 0.644,-1.35 1.016,-2.36 0.828,-2.63 -4.578,-6.73 -8.953,-13.48 -15.625,-23.77 -5.676,-8.45 -12.48,-18.84 -19.18,-28.71 l -0.007,-0.02 c -9.602,9.49 -17.93,17.3 -25.442,23.8 -17.859,16.74 -47.273,25.38 -47.273,25.38 0,0 4.668,-30.57 19.851,-50.26 7.422,-10.53 16.114,-21.83 27.117,-35.44 -6.726,-8.1 -14.878,-17.18 -24.753,-26.98 -4.778,-4.74 -10.071,-9.16 -15.723,-13.39 -6.359,1.03 -13.352,1.71 -21.27,2.05 h -0.097 c 0.879,2.44 1.433,5.04 1.433,7.79 0,6.44 -2.488,12.63 -6.531,16.64 -0.254,0.29 -0.598,0.5 -0.859,0.78 4.433,2.22 7.636,6.72 7.636,11.89 0,6.77 -5.175,12.36 -11.574,13.35 0.574,1.54 0.953,3.21 0.953,5.03 0,3.09 -1.039,5.92 -3.16,8.67 l -1.172,1.16 c -2.648,2.06 -5.855,3.21 -9.027,3.21 -7.523,0 -13.41,-5.73 -13.41,-13.04 0,-1.8 0.371,-3.5 0.969,-5.07 -6.508,-1.1 -11.571,-6.51 -11.571,-13.31 0,-5.18 3.27,-9.7 7.821,-11.9 -4.618,-4.4 -7.528,-10.56 -7.528,-17.41 0,-2.59 0.602,-5.24 1.547,-7.76 h -0.437 c -47.672,-2.49 -65.711,-13.81 -81.243,-60.39 -18.73,12.36 -35.351,-4.62 -38.879,-20.84 19.442,5.65 22.969,-2.48 30.399,-16.28 l 1.422,-2.77 c 3.367,-6.94 8.367,-16.61 15.379,-21.85 -1.91,-2.23 -3.828,-4.45 -5.801,-6.58 -0.699,-0.64 -1.328,-1.18 -2.063,-1.84 -7.746,-7.14 -17.375,-16.03 -24.734,-18.86 -2.23,-0.78 -16.871,-4.51 -26.562,-6.98 -6.508,-1.66 -12.739,-3.24 -16.872,-4.35 l -8.121,-2.15 0.25,-8.39 c 0.243,-8.38 3.5,-15.75 9.203,-20.89 l -0.101,-0.72 c -4.121,-4.38 -7.738,-8.73 -10.59,-13.1 -43.769,-48.7 -66.488,-77.13 -104.559,-132.75 -13.3,3.44 -28.531,4.38 -32.437,4.38 -1.125,0 -2.164,-0.03 -3.133,-0.09 -11.59,-0.67 -23.527,-5.26 -37.906,-11.94 -5.047,-2.34 -11.234,-5.84 -15.742,-8.39 -1.614,-0.9 -2.942,-1.66 -3.813,-2.12 -3.586,-1.92 -11.379,-6.08 -11.488,-14.28 -1.723,4.15 -4.223,7.91 -7.523,10.77 -6.25,5.59 -15.008,8.41 -26.004,8.41 -17.746,0 -38.004,-13.2 -51.496,-33.45 -12.887,-18.69 -19.7,-42.221 -19.7,-68.092 0,-23.879 2.379,-59.906 20.301,-105.988 L 199,843.078 c -18.84,-18.25 -44.383,-43.719 -73.723,-71.656 l -0.343,-0.223 c -2.805,-29.73 -11.012,-52.121 -24.895,-68.019 -11.5585,-12.59 -27.0429,-17.821 -39.5195,-13.719 -1.5703,0.519 -3.8086,1.469 -6.1992,3.07 v -301.48 c 0,-2.34 0.0899,-4.582 0.1289,-6.871 1.0586,21.601 170.3908,156.269 284.4998,263.761 l 1.739,2.047 c 0.429,-0.429 0.82,-0.847 1.25,-1.269 l 9.562,-9.41 9.559,9.421 c 64.39,63.45 108.421,122.211 134.621,179.711 1.258,2.797 2.258,5.469 3.39,8.2 l 3.981,4.699 c 0,0 1.109,1.09 2.762,2.75 7.046,-4.32 12.886,-9.039 20.957,-16.34 l 1.062,-0.949 c -3.312,-11.84 -0.883,-24.192 6.918,-32.492 5.422,-5.387 12.961,-6.047 21.711,-6.789 4.352,-0.372 9.281,-0.801 12.547,-1.86 0.781,-0.23 1.523,-0.371 2.281,-0.551 l 7.32,-7.789 c 5.141,-5.468 9.598,-10.289 13.95,-15.379 12.851,-14.07 20.379,-22.121 25.171,-26.921 l 0.801,-0.739 c 4.539,-3.902 9.16,-8.172 14.047,-12.992 15.715,-15.777 31.723,-30.891 50.629,-44.078 -2.527,-3.121 -5.066,-6.18 -7.617,-9.172 -32,-9.519 -65.91,-14.277 -96.012,-17.629 -39.5,-4.308 -84.738,-11.859 -121.68,-47.14 -23.23,-22.34 -36.265,-50.52 -38.738,-83.731 l -1.328,-17.801 17.539,3.434 c 0.535,0.098 1.078,0.226 1.609,0.367 -3.82,-22.91 -0.519,-46.391 15.61,-64.519 -0.957,-0.891 -1.86,-1.719 -2.828,-2.61 -79.934,-73.75 -253.625,-227.469 -294.266,-263.359 31.727,-18.879 67.176,-27.16 100.633,-27.16 h 214.789 c 4.402,0 8.832,-0.051 13.281,-0.141 14.008,12.75 58.051,53.391 96.719,89.129 9.691,2.199 20.602,8.473 26.543,24.531 2.922,2.699 5.719,5.301 8.406,7.789 3.426,-2.179 7.113,-4.168 11.473,-5.75 l 13.004,-4.711 4.504,13.071 c 3.062,8.859 3.89,17.882 3.011,26.91 9.11,7.941 42.329,36.261 121.036,116.801 0.668,0.66 1.293,1.378 1.957,2.07 10.671,-12.629 26.05,-22.371 42.957,-26.078 l 41.23,-9.024 -6.199,6.91 c 9.754,-2.187 20.242,-1.75 33.008,-1.128 20.574,1.031 46.14,2.289 57.285,-7.84 4.734,-4.442 7.476,-10.121 8.133,-16.852 0.73,-7.59 2.097,-21.726 0.527,-31.949 -2.324,-12.777 -7.129,-12.777 -10.652,-12.777 -12.012,0 -18.149,4.726 -26.719,11.359 -11.828,8.988 -32.844,18.187 -53.051,14.539 -4.351,-0.789 -8.262,-2.328 -11.949,-4.199 -0.715,-0.34 -1.406,-0.723 -2.102,-1.102 -0.925,-0.539 -1.882,-1.058 -2.761,-1.687 -3.481,-2.352 -6.672,-5.313 -9.407,-9.192 -26.804,3.481 -29.336,-11.691 -30.722,-24.718 5.312,4.886 17.668,9.828 29.289,7.378 1.426,-2.929 2.898,-5.531 4.5,-7.589 -5.125,-4.153 -9.348,-9.68 -12.117,-15.68 -0.372,-0.621 -0.864,-1.223 -1.172,-1.84 -11.645,-2.09 -18.711,-13.019 -17.981,-28.91 5.645,3.469 15.528,7.07 23.653,8.777 2.824,-2.449 5.632,-4.566 10.246,-6.316 l -0.039,0.137 c 9.265,-4.231 18.203,-4.008 21.863,-3.868 1.426,0.02 2.859,0.098 4.258,0.2 l -1.535,-2.082 c -0.243,-0.18 -0.457,-0.36 -0.536,-0.438 -15.515,-6.332 -22.285,-21.512 -14.863,-35.32 3.524,8 9.758,15.98 19.356,19.269 l 6.921,-2.039 c 2.231,-0.711 4.915,-1.543 8.032,-1.992 5.449,-1.25 13.062,-2.668 19.785,-2.668 13.523,0 21.988,1.488 29.402,4.797 -3.738,-3.918 -5.808,-6.078 -5.808,-6.078 -29.575,-28.07 -67.891,-72.539 -90.547,-90.11 29.929,6.7 60.926,8.411 90.593,8.411 h 214.79 c 93.1,0 201.81,63.668 201.81,243.16 v 301.48 c -2.4,-1.601 -15.1,-9.601 -15.1,-9.601 -0.29,0.011 -49.71,-30.078 -109.07,-94.032 -59.37,-63.949 -55.75,-59.679 -107.59,-140.41 -11.19,-17.449 -26.19,-37.547 -42.8,-58.367 -1.32,11.68 -3.01,19.758 -5.51,26.438 -4.01,12.05 -11.5,20.703 -24.16,27.461 -11.51,6.179 -23.88,8.949 -36.366,11.421 -18.339,3.797 -28.132,6.25 -33.035,16.45 -8.371,17.218 -5.351,33.16 -0.449,52.488 17.578,-5.078 34.39,-8.801 52.48,-8.801 72.61,0 98.37,66.703 98.37,123.813 0,54.89 -22.04,102.75 -43.03,145.308 2.13,1.981 4.22,3.91 6.48,6.031 1.44,0.129 2.81,0.282 4.43,0.309 l 1.6,-0.109 c 36.34,0.691 36.02,-22.981 32.5,-49.86 -2.85,-22.941 -4.24,-48.039 3.52,-70.949 13.79,-41.012 50.53,-30.359 74.48,-56.902 3.58,7.801 7.83,15.89 7.43,24.761 l 10.28,-2.121 c -1.09,10.602 -0.73,23.301 -4.25,33.18 l 2.83,-0.367 c -2.1,14.129 -3.56,28.258 -3.88,42.726 -2.46,51.614 -6.01,65.403 -46.64,88.352 -4.94,2.789 -9.14,5.629 -13.8,9.879 -6.57,6.012 -18.08,13.941 -26.59,18.992 h 0.1 c -0.48,0.258 -1.02,0.41 -1.51,0.66 5.65,5.418 11.12,10.539 16.45,15.469 6.95,-5.691 14.22,-10.25 20.5,-14.148 l 0.28,-0.141 c 17.97,-11.27 18.7,-10.582 12.7,-28.621 19.76,6.058 31.45,12.039 33.53,37.469 l 5.64,-3.18 c 0.73,15.562 1.12,28.633 -4.57,43.781 l 7.42,-3.18 -3.38,22.961 -0.1,0.661 c -0.22,1.437 -0.5,2.789 -0.73,4.179 27.81,21.098 47.48,33.828 59.47,45.199 v 0.079" /><path
         id="path28"
         style="fill:#234b9a;fill-opacity:1;fill-rule:nonzero;stroke:none"
         d="m 75.3672,1137.77 c 22.2812,-3.33 34.7108,-23.06 41.7188,-44.93 16.199,22.42 28.379,41.6 40.199,61.04 60.735,98.2 136.555,186.09 231.238,252.19 32.5,22.58 55.762,37.6 107.407,92.24 4.105,4.35 10.336,11.65 14.59,15.9 0.457,-0.17 1.019,-0.38 1.554,-0.57 -1.687,1.03 -3.347,2.12 -4.828,3.43 -5.57,4.81 -8.777,11.11 -9.492,17.95 -31.957,-27.99 -70.777,-51.63 -115.559,-70.35 -50.039,-20.87 -98.765,-31.44 -144.968,-31.44 -0.68,0 -1.383,0 -2.071,0.01 -34.711,0.37 -68.347,5.47 -97.097,14.73 -31.512,9.67 -56.3363,23.39 -73.8559,40.84 -3.8945,3.96 -7.2148,8.14 -9.9453,12.59 l 0.0586,-367.48 c 6.3477,3.32 13.332,5.1 21.0508,3.85" /><path
         id="path30"
         style="fill:#ffffff;fill-opacity:1;fill-rule:nonzero;stroke:none"
         d="m 263.203,992.559 c -1.851,0 -3.062,0.281 -3.723,0.621 -3.089,1.601 -4.667,6.05 -3.699,11.06 5.641,1.77 10.602,3.18 14.485,7.76 5.285,6 3.898,16.29 -2.141,21.56 -3.176,2.81 -8.461,4.95 -16.941,4.95 -11.989,0 -28.258,-9.53 -40.282,-27.57 -10.226,-14.831 -17.297,-34.909 -17.297,-60.35 0,-29.699 3.918,-67.828 25.79,-116.578 21.898,-48.071 61.468,-106 132.109,-175.582 70.629,69.582 109.848,127.511 131.758,175.582 21.898,48.75 25.769,86.879 25.769,116.578 0,25.441 -7.066,45.519 -16.945,60.35 -12.356,18.04 -28.262,27.57 -40.609,27.57 -8.493,0 -13.805,-2.14 -16.985,-4.95 -6.019,-5.27 -9.988,-15.56 -4.679,-21.56 4.242,-4.58 14.46,-7.62 14.488,-7.76 0.633,-2.54 -0.578,-6.521 -1.977,-9.138 -0.914,-1.68 -2.109,-1.883 -3.32,-2.301 -0.992,-0.16 -2.613,-0.199 -2.699,-0.199 -4.903,0 -2.805,0.007 -4.973,0.007 -1.57,-0.031 -0.562,-0.007 -4.168,-0.05 -2.391,-0.008 -3.883,0 -3.762,0 -2.832,0.043 -5.941,0.211 -6.41,0.019 0,0.133 0.133,0.203 -1.527,-1.976 -4.942,-6.551 -9.352,-18.493 -9.352,-18.493 -0.113,-0.211 -8.871,6.36 -14.929,11.129 -4.231,3.34 -13.821,7.231 -13.789,7.282 -0.071,-0.141 -5.493,-5.68 -7.993,-10.36 -2.82,-3.441 -6.828,-14.949 -6.953,-14.949 -0.926,0 -8.379,8.809 -15.562,13.809 -2.102,1.46 -15.614,10.07 -14.824,12.121 -1.27,-3.321 -5.422,-11.493 -5.422,-11.493 -2.098,-4.867 -2.942,-9.089 -4.27,-17.117 l -16.476,14.481 c -7.043,3.277 -8.844,4.879 -12.961,8.179 -5.993,4.789 -7.489,7.258 -7.45,7.379 l -22.281,-0.011" /><path
         id="path32"
         style="fill:#fcbd00;fill-opacity:1;fill-rule:nonzero;stroke:none"
         d="m 674.691,1350.79 c -10.929,-3.52 -9.511,-10.59 -9.511,-19.48 -9.551,4.65 -18.399,9.9 -30.391,1.43 3.195,-13.03 17.66,-12.33 27.191,-10.24 -2.82,-14.47 -14.121,-19.77 -26.468,-21.53 -12.383,-2.09 -47.348,-1.06 -50.879,15.19 10.957,-0.73 25.765,4.25 28.258,16.25 -2.493,1.79 -7.071,2.86 -11.661,2.45 -4.96,-0.32 -9.886,-2.12 -14.128,-5.97 -2.469,-2.82 -4.25,-4.98 -6.348,-8.16 -4.582,5.34 -7.781,11.32 -13.074,15.93 -7.446,6.33 -18.035,3.87 -23.328,-3.92 13.777,-0.33 19.418,-12.33 25.089,-22.58 3.2,-6.37 10.969,-24.41 19.774,-24.41 h 170.629 c 9.148,0 16.902,18.04 20.117,24.41 5.281,10.25 10.918,22.25 24.719,22.58 -5.305,7.79 -15.532,10.25 -22.95,3.92 -5.304,-4.61 -8.488,-10.59 -13.41,-15.93 -2.148,3.18 -3.535,5.34 -6.386,8.16 -3.887,3.85 -8.797,5.65 -13.75,5.97 -4.954,0.41 -9.2,-0.66 -12.032,-2.45 2.493,-12 17.649,-16.98 28.633,-16.25 -3.523,-16.25 -38.515,-17.28 -51.238,-15.19 -11.992,1.76 -22.949,7.06 -26.125,21.53 9.891,-2.09 23.683,-2.79 26.824,10.24 -11.98,8.47 -20.476,3.22 -30.004,-1.43 0,8.89 1.758,15.96 -9.551,19.48" /><path
         id="path34"
         style="fill:#fcbd00;fill-opacity:1;fill-rule:nonzero;stroke:none"
         d="m 577.219,1337.69 c 1.398,-1.03 2.469,-2.42 3.539,-4.18 0.32,0.32 0.668,0.69 1.039,0.99 5.312,5.33 12.367,7.8 18.75,8.16 h 2.449 c 7.43,32.83 33.922,36.72 62.172,33.16 v -20.1 c 3.199,1.76 6.695,2.83 9.527,2.83 3.172,0 6.383,-1.07 9.563,-2.83 v 20.1 c 27.871,3.56 54.707,-0.33 61.797,-33.16 h 2.461 c 6.711,-0.36 13.41,-2.83 19.089,-8.16 0.364,-0.3 0.364,-0.67 0.723,-0.99 1.027,1.76 2.453,3.15 3.52,4.58 -16.25,45.89 -30.032,57.2 -78.762,58.59 -4.231,-5.31 -10.969,-8.46 -18.027,-8.46 -7.071,0 -13.75,2.83 -18.383,8.46 -49.059,-1.39 -63.199,-12.7 -79.457,-58.99" /><path
         id="path36"
         style="fill:#fcbd00;fill-opacity:1;fill-rule:nonzero;stroke:none"
         d="m 658.473,1411.88 c 0,-4.25 2.097,-8.47 4.961,-11.32 2.816,-2.82 7.058,-4.58 11.64,-4.58 8.828,0 15.903,7.07 15.903,15.9 0,4.6 -1.817,8.84 -4.625,11.67 -2.832,3.15 -7.071,4.94 -11.278,4.94 -9.211,0 -16.601,-7.42 -16.601,-16.61" /><path
         id="path38"
         style="fill:#fcbd00;fill-opacity:1;fill-rule:nonzero;stroke:none"
         d="m 671.172,1441.19 c 0,3.91 -3.199,7.07 -6.731,7.07 -3.871,0 -7.058,-3.16 -7.058,-7.07 0,-3.48 3.187,-6.73 7.058,-6.73 3.532,0 6.731,3.25 6.731,6.73" /><path
         id="path40"
         style="fill:#fcbd00;fill-opacity:1;fill-rule:nonzero;stroke:none"
         d="m 667.973,1459.57 c 0,-2.12 0.711,-3.89 2.14,-5.32 1.059,-1.06 2.45,-1.75 4.59,-1.75 3.871,0 6.68,2.82 6.68,7.07 0,1.75 -0.668,3.17 -1.75,4.57 -1.403,1.09 -3.168,1.79 -4.93,1.79 -3.906,0 -6.73,-2.84 -6.73,-6.36" /><path
         id="path42"
         style="fill:#fcbd00;fill-opacity:1;fill-rule:nonzero;stroke:none"
         d="m 685.281,1434.5 c 3.532,0 6.731,3.18 6.731,6.69 0,3.91 -3.199,7.07 -6.731,7.07 -3.859,0 -7.058,-3.16 -7.058,-7.07 0,-3.51 3.199,-6.69 7.058,-6.69" /><path
         id="path44"
         style="fill:#fcbd00;fill-opacity:1;fill-rule:nonzero;stroke:none"
         d="m 741.855,1106.46 c 0.208,-29.53 11.661,-49.34 31.575,-54.5 4.84,-1.15 9.519,-1.55 14.043,-1.94 9.453,-0.8 18.386,-1.55 28.269,-8.79 4.59,-3.09 8.645,-7.06 13.028,-12.73 5.339,19.27 -6.329,47.95 -30.762,58.75 -2.149,0.93 -6.836,1.99 -13.965,3.14 -12.922,2.22 -32.168,5.54 -42.188,16.07" /><path
         id="path46"
         style="fill:#fcbd00;fill-opacity:1;fill-rule:nonzero;stroke:none"
         d="m 743.684,1149.43 c -1.555,-6.79 -1.719,-14.56 -0.422,-21.04 3.847,-18.93 18.789,-22.57 42.843,-26.96 7.157,-1.17 12.516,-2.15 16.434,-3.98 12.219,-5.1 20.691,-14.88 25.801,-22.56 10.969,18.63 -7.715,37.13 -16.375,44.31 -10.102,9.73 -20.852,15.16 -36.027,18.19 l -0.293,0.06 c -10.848,2.09 -23.106,4.46 -31.961,11.98" /><path
         id="path48"
         style="fill:#fcbd00;fill-opacity:1;fill-rule:nonzero;stroke:none"
         d="m 741.145,1193.25 c -0.969,-3.61 -1.411,-7.69 -1.411,-12.74 1.45,-22.24 21.411,-28.85 38.625,-32.12 16.719,-3.35 29.473,-9.84 41.368,-20.98 0.976,-1.02 1.875,-2 2.753,-2.98 0.801,-0.89 1.59,-1.76 2.454,-2.64 3.796,9.4 3.308,19.07 -1.411,28.03 -7.234,13.76 -24.531,25.38 -42.996,28.89 -12.336,2.3 -29.101,5.41 -39.382,14.54" /><path
         id="path50"
         style="fill:#fcbd00;fill-opacity:1;fill-rule:nonzero;stroke:none"
         d="m 740.281,1225.79 c -0.164,-1.63 -0.105,-3.27 0.168,-4.9 2.422,-23.35 20.813,-26.98 42.09,-31.18 17.793,-4.26 27.93,-8.5 40.012,-22.02 1.98,13.45 -0.449,24.38 -7.219,32.51 -7.805,9.37 -21.367,14.64 -38.184,14.87 -10.753,0.34 -22.871,0.7 -36.867,10.72" /><path
         id="path52"
         style="fill:#fcbd00;fill-opacity:1;fill-rule:nonzero;stroke:none"
         d="m 561.313,1045.57 c 10.269,-4.95 21.902,-5.31 30.75,1.42 13.058,-9.88 31.062,-12.37 42.371,-1.42 16.23,-14.47 42.05,-10.59 49.437,17.67 -10.211,-12 -34.926,-25.07 -62.148,5.27 1.402,-5.96 3.531,-11.6 6.347,-15.87 -13.777,-4.22 -32.48,-2.13 -50.488,18.03 1.031,-6.03 3.504,-11.31 7.063,-15.93 -8.141,-2.1 -17.692,-1.05 -28.961,7.44 -1.43,1.43 -1.079,3.88 -1.079,6 l 2.997,17.17 -2.997,12.15 13.055,5.27 c 1.434,2.53 2.492,6.74 4.961,8.49 2.492,-4.24 5.641,-8.49 10.594,-10.21 h 15.187 c 2.141,5.31 4.59,8.12 9.551,10.61 1.422,-8.16 6.012,-15.22 12.34,-19.8 12.379,-9.18 36.039,-9.18 46.641,3.15 7.406,8.49 5.296,25.11 2.492,35.33 -1.785,6 -4.973,11.34 -9.563,15.22 -5.668,4.58 -15.172,10.9 -23.664,15.18 -19.086,8.82 -26.824,-1.42 -45.523,-4.6 -13.801,-2.49 -29.696,-1.76 -41.711,3.18 -0.723,0 -1.774,0.7 -3.203,1.06 -11.641,4.58 -35.649,14.13 -31.41,45.54 7.753,0.72 11.312,3.58 14.128,9.55 -12.699,-1.76 -22.246,5.3 -22.617,17.68 12.02,3.18 42.043,10.6 44.52,11.67 12.707,4.91 26.828,20.46 37.43,29.28 H 765.48 c 7.086,8.13 10.946,10.28 19.098,8.82 5.969,-0.69 12.004,-2.78 18.344,-4.21 -0.371,-11.31 -9.555,-27.89 -20.473,-38.17 -12.039,-10.95 -34.617,-9.85 -45.215,2.49 -22.254,-14.16 -52.64,-15.19 -76.992,-4.95 -8.488,3.89 -16.265,8.83 -20.855,14.83 -0.715,1.06 -2.856,1.79 -3.903,1.39 -15.523,-3.15 -32.492,-3.84 -48.023,-3.84 -3.856,0 -4.57,-6.37 -1.039,-7.43 l 21.191,-7.1 c -1.429,-10.21 3.871,-21.16 14.461,-25.04 19.078,-6.7 44.52,0.37 61.09,9.88 1.09,0.7 2.141,1.43 2.488,2.86 14.121,-1.43 31.067,1.39 44.524,7.06 -0.711,-3.55 -0.711,-7.06 -0.379,-10.64 0.711,-5.28 2.137,-10.22 4.246,-15.19 -3.535,-7.73 -5.305,-16.55 -4.578,-25.05 0.332,-7.06 2.469,-14.12 6.707,-20.12 -4.238,-8.9 -5.32,-21.6 -3.184,-31.48 -5.3,-33.49 1.399,-80.53 41.309,-87.22 12.402,-2.16 23.672,0.36 35.351,-8.13 6.707,-4.97 12.012,-11.64 16.915,-20.13 2.519,-11.28 0.402,-30.742 -2.09,-41.351 -1.028,-4.25 -0.371,-8.098 1.074,-11.641 3.176,-6.668 9.875,-10.59 17.266,-10.918 -4.543,-27.922 -46.602,-26.531 -56.836,-1.789 -7.774,19.11 -6.375,55.419 -36.036,58.969 17.664,-6.699 21.504,-39.199 24.036,-56.852 1.382,-10.207 9.175,-22.609 15.515,-26.488 -8.816,-31.082 -55.793,-19.441 -60.383,7.391 -3.171,20.16 5.989,54.758 -22.261,65 15.547,-10.973 10.625,-43.082 10.625,-61.449 -0.395,-10.942 9.16,-31.801 21.875,-33.563 -26.157,-15.891 -55.094,-4.578 -59.004,26.852 -2.141,20.14 6.351,57.187 -21.871,67.828 15.867,-10.981 10.226,-46.289 10.226,-63.938 -0.344,-18.371 3.531,-31.441 11.645,-37.769 -22.949,-18.051 -52.274,5.957 -52.274,33.879 -0.355,19.781 11.66,56.531 -15.886,69.23 14.836,-12.383 6.679,-46.633 4.578,-64.98 -1.746,-19.063 3.199,-33.192 12.031,-40.993 -5.668,-2.808 -12.391,-3.539 -19.07,-3.179 -22.969,2.492 -41.672,19.472 -41.672,44.172 0,19.769 31.793,57.91 4.57,70.979 14.84,-12.37 -14.484,-48.018 -16.269,-66.429 -1.747,-16.55 3.543,-28.961 10.953,-36.722 -26.121,-4.571 -44.492,29.652 -44.492,51.609 0,33.16 12.73,47.332 24.007,60.022 1.086,1.77 2.473,3.16 3.184,3.89 6.019,6.73 9.211,13.4 10.598,20.49 0.711,3.52 0.711,7.06 0.711,10.59" /><path
         id="path54"
         style="fill:#fcbd00;fill-opacity:1;fill-rule:nonzero;stroke:none"
         d="m 561.664,1111.63 c 3.883,7.06 8.121,9.88 15.899,12.01 2.144,-4.58 3.875,-9.19 7.402,-12.71 h 7.062 c 16.618,25.8 50.879,7.76 69.246,-6.03 5.313,18.74 -10.25,26.86 -26.117,31.07 -41.699,10.98 -71.722,-13.03 -110.238,-13.39 -14.465,0 -26.105,10.61 -25.055,25.76 -13.777,-7.06 -10.25,-24.34 0.34,-32.83 19.094,-14.86 41.328,-9.52 61.461,-3.88" /><path
         id="path56"
         style="fill:#fcbd00;fill-opacity:1;fill-rule:nonzero;stroke:none"
         d="m 674.691,1225.35 c -5.636,1.06 -11.64,3.21 -17.289,5.67 -9.187,3.89 -17.32,8.86 -22.961,15.19 -1.066,0 -2.461,-0.36 -3.898,-0.66 2.832,-3.95 3.898,-8.89 3.898,-13.83 0,-4.97 -1.066,-9.19 -3.179,-12.34 -0.719,-1.1 -1.071,-1.76 -1.782,-2.49 15.563,-2.49 31.083,1.39 45.211,8.46" /><path
         id="path58"
         style="fill:#fcbd00;fill-opacity:1;fill-rule:nonzero;stroke:none"
         d="m 507.969,858.719 c 10.269,-5.641 17.328,-11.278 27.929,-20.86 9.883,8.481 3.532,14.493 -1.777,28.289 -4.242,11.301 -8.492,23.661 -6,36.383 -2.824,2.809 -5.312,6 -7.785,9.508 -2.098,-15.879 -6.016,-33.519 -12.367,-53.32" /><path
         id="path60"
         style="fill:#fcbd00;fill-opacity:1;fill-rule:nonzero;stroke:none"
         d="m 603.004,802.93 c 0,2.09 0,4.582 0.332,7.398 2.137,18.371 14.508,41.652 -0.332,54.063 33.93,-16.621 -1.77,-61.461 21.559,-87.61 3.878,-4.261 9.171,-7.07 15.187,-8.84 13.742,-3.55 25.055,-1.429 38.121,1.399 -26.871,23.32 7.41,78.801 -16.598,95.73 38.856,-14.808 -2.109,-66.05 32.165,-88.66 14.46,-9.898 25.429,-10.93 39.191,1.41 -7.063,4.578 -15.91,17.641 -15.91,30.75 0.351,18.371 10.273,44.828 -5.996,55.821 28.261,-10.59 14.132,-39.243 17.656,-59.692 3.547,-14.129 9.914,-18.051 18.027,-20.14 18.379,-5.297 24.004,-6.368 35.977,10.902 1.472,2.168 2.859,4.289 3.918,5.68 -9.875,3.187 -17.649,21.929 -17.981,32.16 -0.312,17.301 11.641,39.551 -4.968,45.937 25.796,-3.199 14.128,-25.109 14.863,-42.777 1.062,-21.883 19.754,-33.16 40.586,-26.133 3.914,1.434 10.625,3.551 8.836,9.184 -1.407,5.636 -8.106,12.347 -10.227,16.578 -4.246,9.191 -1.785,14.512 2.121,22.629 3.528,8.133 7.434,17.32 8.457,26.16 2.157,11.641 -3.886,20.461 -6.008,31.051 -5.625,-0.371 -12,-0.371 -19.058,0.718 -6.34,-25.109 -29.68,-31.437 -51.574,-24.359 -15.535,-12.75 -42.364,-14.867 -60.391,-8.801 -6.734,-6.066 -15.195,-8.527 -23.684,-8.886 -9.871,-0.692 -20.128,2.117 -27.523,6.039 -9.555,-6.36 -20.508,-8.161 -31.457,-7.071 -13.066,1.032 -26.148,7.071 -33.18,13.399 -3.902,-1.379 -7.808,-2.09 -11.679,-2.09 -7.411,0 -15.192,2.422 -22.25,6.66 0.718,-7.059 3.527,-14.117 6.019,-20.789 7.07,-19.789 13.422,-30.41 -5.672,-45.602 -2.488,-6.687 -2.488,-15.546 2.821,-21.187 3.531,-3.52 18.738,-2.082 28.621,-5.27 10.601,-3.23 19.769,-1.062 30.031,4.239" /><path
         id="path62"
         style="fill:#fcbd00;fill-opacity:1;fill-rule:nonzero;stroke:none"
         d="m 840.359,981.621 c -0.73,-4.582 -1.414,-9.152 -2.461,-13.391 -0.718,-6.371 3.848,-6.71 9.204,-5.64 3.867,0.66 8.777,3.512 10.574,5.269 0,-25.078 -6.336,-42.019 -22.988,-48.757 1.425,-12.692 9.55,-19.43 7.058,-35.981 -1.719,-10.269 -5.633,-20.859 -9.871,-30.082 -6.008,-12.687 9.219,-24.699 11.672,-35.648 3.183,24.379 17.312,41.679 31.101,58.257 16.219,19.813 21.895,32.153 28.965,55.493 5.274,-7.063 9.871,-12.692 13.059,-20.852 11.641,21.922 16.59,44.832 18.738,68.191 8.086,-10.992 12.344,-17.718 14.793,-31.449 10.617,20.098 14.856,34.59 15.918,56.879 5.637,-6 9.875,-9.551 12.695,-17.711 3.227,6.731 6.02,13.473 8.164,20.171 4.915,14.16 7.407,28.28 8.801,43.11 14.489,6.7 28.619,13.43 41.709,22.58 9.88,6.7 18.38,14.5 25.41,23.65 -10.61,10.28 -36.02,35.35 -49.82,48.75 -1.76,-9.15 -7.4,-23.28 -15.885,-27.88 -2.808,-1.4 -5.3,-2.83 -8.113,2.11 -2.793,5.31 0,6.73 2.441,8.16 7.098,3.85 10.617,19.4 10.947,27.89 0.37,7.07 0,14.82 1.07,21.53 1.06,5.34 3.17,11.31 -2.09,14.82 -11.645,8.13 -17.688,-7.06 -24.778,-15.15 -4.914,-6.04 -11.977,-13.8 -17.238,-32.14 -2.168,-6.4 -3.938,-11.68 -5.313,-16.28 -6.055,-15.56 -12.012,-30.35 -17.676,-45.94 l -1.765,-2.45 c -7.063,-6.73 -14.453,-15.89 -23.352,-26.1 -17.961,-21.59 -40.586,-48.06 -70.969,-71.409" /><path
         id="path64"
         style="fill:#fcbd00;fill-opacity:1;fill-rule:nonzero;stroke:none"
         d="m 995.078,1205.23 c 2.481,4.23 4.942,7.45 7.792,9.87 5.97,5.31 13.07,6.73 20.82,7.79 3.52,4.58 8.13,8.82 13.08,12.01 5.3,3.55 10.94,8.13 16.25,12.34 l -21.56,24.05 c -10.95,-14.14 -22.95,-27.54 -36.05,-39.91 -23.308,25.41 -46.262,50.51 -69.582,75.95 -97.832,107.32 -144.098,157.87 -175.547,185.06 -7.398,6.38 -14.461,12.04 -22.613,17.35 4.605,-8.49 9.922,-16.29 15.215,-24.05 19.402,-27.55 48.726,-61.82 106.347,-129.61 40.938,-47.72 81.942,-95.78 122.528,-143.79 -15.52,-13.41 -31.438,-25.77 -47.688,-38.15 l 24.004,-26.1 c 6.047,20.1 14.133,28.92 19.778,35.62 8.847,9.91 16.64,21.23 27.226,21.57" /><path
         id="path66"
         style="fill:#fcbd00;fill-opacity:1;fill-rule:nonzero;stroke:none"
         d="m 1016.99,1200.28 c -0.72,-2.49 -1.05,-5.3 -1.78,-7.76 2.11,-5.64 1.06,-12.37 0,-18.01 -0.74,-4.24 -1.06,-7.79 -1.06,-12.05 8.13,-7.73 58.3,-56.83 63.6,-62.5 0.34,-0.33 1.4,-0.33 2.09,0.4 3.56,3.47 7.44,7.39 11.67,10.57 1.04,0.7 -1.41,4.25 -4.61,8.13 -7.06,-2.17 -14.12,-4.24 -21.19,-7.07 -4.93,11.65 -5.63,25.08 -3.87,37.78 -5.64,-2.45 -17.31,-6 -22.95,-10.58 -2.49,11.97 -1.8,20.83 0,32.47 -6.37,-3.85 -12.74,-8.14 -18.37,-13.77 -3.89,13.77 -4.58,28.26 2.12,41.3 0,0.72 -2.86,0.72 -5.65,1.09" /><path
         id="path68"
         style="fill:#fcbd00;fill-opacity:1;fill-rule:nonzero;stroke:none"
         d="m 1088.67,1168.87 c -6.74,-4.98 -14.79,-14.13 -14.46,-22.62 0.37,-6.34 5.3,-11.67 11.27,-13.06 4.95,-0.74 11.68,5.63 15.22,12 10.59,19.43 -12.03,23.68 -12.03,23.68" /><path
         id="path70"
         style="fill:#fcbd00;fill-opacity:1;fill-rule:nonzero;stroke:none"
         d="m 1080.94,1178.39 c 2.46,12.33 -0.4,20.83 -12.74,22.62 -8.85,-2.83 -14.86,-14.53 -16.97,-23.32 -1.4,-4.94 1.45,-8.16 4.58,-12.01 8.85,-9.55 23.34,2.86 25.13,12.71" /><path
         id="path72"
         style="fill:#fcbd00;fill-opacity:1;fill-rule:nonzero;stroke:none"
         d="m 1056.53,1210.89 c -7.04,25.43 -28.96,4.24 -25.8,-13.43 1.79,-10.25 9.55,-13.8 15.92,-4.25 3.56,5.31 8.49,13.08 9.88,17.68" /><path
         id="path74"
         style="fill:#fcbd00;fill-opacity:1;fill-rule:nonzero;stroke:none"
         d="m 727.688,543.98 c 8.816,18.051 21.558,34.29 31.785,50.18 -13.047,37.078 -35.664,56.149 -55.086,69.25 -38.524,-15.23 -81.621,-21.93 -123.324,-26.531 -41.661,-4.559 -81.184,-12.34 -113.719,-43.41 -18.379,-17.668 -32.141,-41.719 -34.61,-74.93 12.7,2.492 25.094,16.981 33.223,26.883 -17.328,-30.051 -27.93,-74.531 1.746,-100.371 6.024,17.699 -2.816,36.41 19.094,50.539 -8.492,-18.711 -7.063,-41.309 7.07,-56.512 17.996,-19.43 50.16,-30.34 60.039,-54.719 2.11,-6.031 3.883,-12.73 4.239,-19.461 v 0.352 c 1.402,-21.879 0,-51.891 -28.969,-51.891 -26.149,0 -24.762,11.27 -36.738,24.7 -14.133,15.55 -35.653,19.812 -56.52,13.8 4.957,-12.699 20.867,-30.05 32.512,-35.679 -15.172,-19.809 -45.211,28.211 -72.407,-1.071 13.411,-20.16 46.965,-25.07 68.504,-23.679 -2.101,-6.692 -18.722,-10.239 -35.672,-7.059 -12.699,2.117 -19.089,4.238 -30.73,-5.633 16.602,-13.078 37.793,-22.949 58.281,-13.797 13.082,5.668 30.391,10.239 55.789,2.489 -19.757,-1.442 -37.066,-0.711 -39.859,-22.95 21.867,1.391 81.922,4.918 98.852,4.918 19.078,0 24.718,14.481 26.5,30.02 0.359,12.742 -2.114,27.891 -4.219,40.301 11.984,-17.699 16.945,-35.688 38.508,-43.469 9.878,28.609 -8.493,54.75 -28.622,73.121 12.731,-2.473 32.153,-10.98 39.211,-15.883 -5.32,37.442 -41.351,37.442 -47.699,62.524 10.957,-4.981 31.426,-13.071 39.211,-24.75 1.43,11.679 -3.89,30.418 -12.699,38.508 -13.414,12 -37.109,19.058 -37.109,40.628 0,27.551 12.738,50.84 39.57,67.493 23.656,14.781 58.265,24 103.848,26.089" /><path
         id="path76"
         style="fill:#fcbd00;fill-opacity:1;fill-rule:nonzero;stroke:none"
         d="m 1190.37,636.531 c -10.2,22.25 -31.77,24.731 -29.28,51.949 3.56,-16.25 22.95,-30.378 37.79,-37.441 -0.71,8.813 -4.25,15.871 -9.53,22.93 -11.29,14.871 -25.03,22.281 -19.4,61.109 1.4,-23.648 20.11,-44.476 27.2,-51.539 0.69,1.723 -1.47,23.652 -1.47,27.16 -2.09,44.879 -2.45,56.18 -39.53,77.012 -5.63,3.187 -10.6,7.07 -15.91,11.668 -13.4,11.652 -25.78,20.461 -42.71,23.652 -14.13,2.481 -26.87,2.117 -40.67,-2.41 2.86,-6.09 5.71,-12.422 8.88,-18.781 6.71,2.121 13.41,2.82 20.46,2.82 46.28,0.731 50.89,-29.68 46.63,-65.332 -2.48,-20.84 -4.24,-44.148 2.49,-64.617 9.16,-27.211 33.18,-27.211 55.05,-38.18" /><path
         id="path78"
         style="fill:#fcbd00;fill-opacity:1;fill-rule:nonzero;stroke:none"
         d="m 826.602,416.859 c -8.497,9.161 -13.106,23.289 -10.977,45.86 -11.277,-13.758 -17.285,-37.399 1.094,-57.899 -33.938,7.43 -66.406,47.36 -33.203,78.77 -16.985,-2.129 -25.469,-20.129 -32.864,-33.192 -14.129,22.571 -6.714,52.954 20.129,63.93 -13.789,3.563 -31.086,-10.598 -37.785,-23.687 -8.152,34.968 15.52,64.66 34.277,90.789 4.575,6.371 17.27,31.441 10.207,37.109 -3.144,-5.309 -5.996,-9.187 -8.093,-11.66 -14.856,34.973 -36.391,55.101 -69.973,75.57 -21.547,13.449 -39.187,30.371 -57.195,48.449 -4.961,4.911 -9.879,9.493 -14.84,13.731 -5.293,5.312 -14.121,14.859 -24.75,26.5 -4.223,4.91 -8.789,9.883 -14.106,15.519 4.59,0.372 9.551,1.082 14.106,2.493 2.851,-8.86 6.758,-15.93 11.68,-21.563 6.007,-6.328 13.07,-10.578 21.906,-12.726 17.996,-5.282 33.172,0 48.015,2.148 6.727,1.102 13.075,1.102 19.793,-0.359 10.594,-3.231 20.157,-6.012 36.707,9.91 4.29,4.25 8.879,3.148 13.801,2.09 19.805,-4.942 27.852,2.839 39.207,19.089 1.789,2.829 3.176,4.961 4.242,6.348 8.485,-1.387 23.321,2.453 25.079,3.543 12,3.879 17.664,8.098 19.754,12.707 0,-1.387 -0.325,-3.187 -0.325,-4.609 0,-13.41 4.575,-29.68 11.672,-45.239 7.442,-16.55 17.637,-32.468 28.953,-44.812 21.899,-24.367 40.266,-45.559 54.035,-66.746 13.457,-20.871 22.598,-42.391 26.446,-68.902 l 2.168,-3.872 c 11.633,-12 31.472,-15.546 47.318,-15.546 28.63,0 46.3,25.429 46.3,51.898 0,20.172 -11.34,37.109 -24.4,56.551 -15.2,23.269 -32.84,49.777 -32.84,87.219 0,11.699 1.76,21.191 5.3,28.992 2.46,4.91 5.31,9.136 9.19,13.058 l 12.05,-26.84 c -13.81,-27.179 0.66,-56.859 16.91,-80.179 10.24,-14.531 21.55,-28.25 32.16,-42.379 4.26,24.707 3.19,37.437 -4.61,61.449 -7.43,24.348 -19.8,47.731 -31.8,71 -18.7,36.391 -37.07,72.399 -37.07,108.82 0,46.239 28.97,88.637 78.76,88.637 24.7,0 63.58,-1.418 83.38,-18.699 19.77,-16.988 25.78,-36.738 29.64,-61.848 -3.86,2.821 -30.34,20.86 -33.2,40.989 -3.51,-21.52 5.65,-28.981 14.86,-36.739 17.65,-14.461 16.25,-24.39 16.95,-46.961 -13.43,18.371 -38.14,24.711 -41.68,52.258 -6.7,-41.359 51.56,-49.449 33.2,-81.949 -4.26,6 -11.98,10.582 -20.88,16.223 -17.64,10.976 -41.31,25.437 -41.31,56.859 0,22.598 -3.15,36.73 -9.48,45.617 -7.44,9.524 -17.68,12.32 -31.81,12.32 -36.74,0 -59.33,-33.918 -59.33,-67.808 0,-31.442 16.25,-64.969 34.22,-101.75 21.89,-44.141 45.9,-92.852 45.9,-147.949 0,-53.032 -22.94,-110.2 -84.76,-110.2 -21.496,0 -41.66,5.969 -62.16,12.34 -6.375,-25.801 -14.824,-49.453 -2.129,-75.59 8.164,-16.98 24.747,-20.152 43.457,-24.043 10.612,-2.097 21.882,-4.589 31.772,-9.878 l 0.56,-0.25 c 9.18,-4.95 14.3,-11.032 17.11,-19.52 2.49,-6.699 3.89,-14.48 4.95,-24.031 -8.49,3.902 -22.95,8.851 -28.27,15.519 1.11,-14.797 27.21,-25.418 29.73,-50.847 -14.86,1.82 -20.51,7.789 -27.57,20.16 -0.69,-13.09 5.64,-21.192 13.44,-28.66 6.34,-6.692 12.32,-14.821 10.91,-31.039 -1.43,0.339 -2.82,1.027 -4.25,1.398 -15.85,6.012 -22.59,17.68 -28.58,33.191 3.55,-27.179 12.73,-57.191 -3.23,-81.582 -6.33,-9.89 -16.2,-18.039 -29.978,-21.199 -8.855,-2.082 -20.898,-3.172 -28.254,3.16 2.864,5.309 12.004,15.95 20.11,19.77 -16.922,2.519 -25.743,-1.399 -35.293,-8.399 -14.864,-11.703 -19.485,-15.211 -40.965,-15.211 -4.945,0 -11.313,1.051 -17.348,2.489 -2.859,0.32 -5.625,1.351 -8.113,2.09 7.059,9.55 18.398,18.371 32.871,18.371 -12.715,11.629 -31.113,2.492 -49.102,2.121 -10.273,-0.371 -18.718,1.777 -25.128,9.879 2.16,6.699 7.453,13.07 13.468,16.25 14.864,3.179 34.95,-9.192 48.047,1.761 -7.793,5.989 -19.472,5.629 -31.465,7.43 -12.715,1.758 -17.324,2.438 -22.257,14.109 13.429,21.211 44.875,12.711 61.125,0.379 9.152,-7.07 18.371,-14.14 34.96,-14.14 14.844,0 21.551,10.222 24.043,23.992 1.747,11.34 0.684,24.738 -0.371,35.687 -1.074,10.973 -5.976,19.461 -12.375,25.473 -19.429,17.641 -59.324,10.938 -83.711,10.938 -14.824,0 -27.546,4.91 -38.132,15.55" /><path
         id="path80"
         style="fill:#fcbd00;fill-opacity:1;fill-rule:nonzero;stroke:none"
         d="m 325.867,922.621 -0.687,-1.449 -1.301,0.937 c -2.879,2.09 -5.82,3.332 -9.633,4.032 -1.285,-12.461 1.363,-19.121 8.082,-20.34 l 1.281,-0.231 -0.203,-1.281 c -1.105,-7.301 -6.527,-12.398 -13.488,-12.719 -0.223,0 -0.441,0 -0.648,0 -6.989,0 -12.551,5.02 -13.641,12.418 l -0.231,1.551 h 2.848 c 7.363,0.582 10.504,7.152 9.723,20.602 -0.774,-0.11 -1.539,-0.2 -2.321,-0.301 -2.382,-0.281 -4.617,-0.559 -6.601,-1.328 l -1.82,-0.703 v 1.941 c 0,5.25 -4.411,10.34 -9.45,10.93 -4.57,-0.61 -9.066,-5.981 -8.777,-10.84 l 0.121,-2.02 -1.902,0.66 c -2.18,0.79 -4.547,1.079 -6.86,1.348 -0.808,0.102 -1.621,0.203 -2.421,0.313 -0.711,-13.082 2.597,-20.02 9.839,-20.602 h 2.703 L 280.258,904 c -1.11,-7.738 -6.766,-12.738 -14.258,-12.43 -6.859,0.321 -12.039,5.309 -13.191,12.711 l -0.204,1.289 1.282,0.231 c 8.34,1.519 8.711,10.699 8.051,20.347 -3.778,-0.648 -6.508,-1.796 -9.961,-4.07 l -1.309,-0.879 -0.641,1.449 c -3.578,8.043 -11.226,11.082 -17.66,12.153 l 15.422,-66.313 h 80.352 l 15.707,66.313 c -6.399,-1.071 -14.086,-4.121 -17.981,-12.18" /><path
         id="path82"
         style="fill:#fcbd00;fill-opacity:1;fill-rule:nonzero;stroke:none"
         d="m 390.969,829.551 -0.633,-1.442 -1.328,0.871 c -3.512,2.34 -6.332,3.442 -9.969,3.848 -0.66,-9.508 -0.305,-18.578 8.047,-20.109 l 1.273,-0.231 -0.191,-1.269 c -1.102,-7.27 -6.391,-12.367 -13.191,-12.719 -7.539,-0.309 -13.161,4.629 -14.25,12.398 l -0.219,1.512 h 2.836 c 2.535,0.16 4.562,1.11 6.133,2.891 2.808,3.23 4.031,9.269 3.55,17.539 -0.289,-0.02 -0.582,-0.051 -0.859,-0.07 -2.82,-0.168 -5.742,-0.391 -8.359,-1.34 l -1.899,-0.711 0.098,2.019 c 0.277,5.321 -4.457,9.91 -8.981,10.813 -5.14,-0.961 -9.293,-5.789 -9.293,-10.871 v -1.981 l -1.824,0.742 c -2.383,0.95 -5.285,1.161 -8.082,1.34 -0.281,0.028 -0.562,0.039 -0.832,0.059 -0.519,-8.551 0.602,-14.301 3.41,-17.512 1.582,-1.797 3.672,-2.75 6.391,-2.918 h 2.769 l -0.218,-1.519 c -1.137,-7.661 -7.043,-12.731 -14.313,-12.391 -6.969,0.359 -12.379,5.469 -13.445,12.719 l -0.192,1.269 1.27,0.231 c 8.711,1.601 8.922,11.89 8.07,20.109 -3.664,-0.43 -6.601,-1.609 -9.652,-3.816 l -1.289,-0.934 -0.692,1.442 c -3.898,8.101 -11.597,11.121 -17.996,12.179 l 15.727,-66.308 h 80.344 l 15.429,66.308 c -6.429,-1.058 -14.082,-4.058 -17.64,-12.148" /><path
         id="path84"
         style="fill:#fcbd00;fill-opacity:1;fill-rule:nonzero;stroke:none"
         d="m 455.668,922.609 -0.688,-1.449 -1.304,0.961 c -2.856,2.078 -5.793,3.32 -9.617,4.02 -1.301,-12.461 1.351,-19.121 8.07,-20.34 l 1.277,-0.231 -0.199,-1.281 c -1.059,-7.168 -6.598,-12.398 -13.48,-12.719 -7.36,-0.441 -13.161,4.68 -14.266,12.43 l -0.211,1.531 h 2.852 c 7.328,0.59 10.457,7.16 9.668,20.61 -0.762,-0.11 -1.54,-0.2 -2.321,-0.301 -2.367,-0.281 -4.609,-0.559 -6.562,-1.328 l -1.824,-0.711 v 1.949 c 0,5.25 -4.403,10.34 -9.434,10.93 -4.691,-0.61 -9.129,-5.879 -8.82,-10.84 l 0.121,-2.02 -1.899,0.66 c -2.191,0.79 -4.57,1.079 -6.859,1.348 -0.82,0.102 -1.621,0.203 -2.422,0.313 -0.719,-13.082 2.578,-20.02 9.828,-20.61 h 2.699 L 410.059,904 c -1.098,-7.738 -6.746,-12.738 -14.258,-12.43 -6.813,0.321 -12.102,5.418 -13.164,12.731 l -0.188,1.269 1.274,0.231 c 8.367,1.519 8.683,11.078 8.015,20.34 -3.777,-0.653 -6.586,-1.821 -9.953,-4.051 l -1.305,-0.899 -0.64,1.457 c -3.59,8.043 -11.242,11.082 -17.672,12.153 l 15.422,-66.313 h 80.348 l 15.753,66.313 c -6.421,-1.071 -14.128,-4.121 -18.023,-12.192" /><path
         id="path86"
         style="fill:#fcbd00;fill-opacity:1;fill-rule:nonzero;stroke:none"
         d="m 308.07,1020.86 h -6.718 c -2.481,-0.73 -4.59,-1.76 -6.352,-3.15 -1.809,-1.43 -2.848,-3.91 -2.848,-7.07 0,-7.83 1.598,-12.261 5.809,-17.57 4.961,-5.601 8.648,-4.261 13.078,-2.879 3.75,1.18 5.231,1.957 7.731,3.75 2.031,1.45 2.785,2.938 2.863,5.168 0.207,5.641 -0.852,9.041 -4.039,13.611 -2.824,3.56 -4.656,6.99 -9.524,8.14" /><path
         id="path88"
         style="fill:#fcbd00;fill-opacity:1;fill-rule:nonzero;stroke:none"
         d="m 358.965,1025.89 c -5.727,1.47 -9.91,2.43 -14.899,0.97 -9.14,-2.68 -7.773,-16.94 -6.351,-22.25 0.859,-2.68 2.23,-4.622 5.719,-7.348 6.031,-4.711 11.285,-7.461 18.699,-1.442 8.824,7.75 5.441,13.04 4.32,22.02 -0.066,0.52 -2.437,6.74 -7.488,8.05" /><path
         id="path90"
         style="fill:#fcbd00;fill-opacity:1;fill-rule:nonzero;stroke:none"
         d="m 409.449,1027.78 c -2.902,7.8 -11.75,8.39 -12.254,8.47 -4.55,0.75 -9.976,-1.5 -13.168,-5.02 -3.187,-3.22 -5.3,-8.12 -5.3,-13.45 0,-8.81 2.078,-13.73 7.781,-18.94 5.351,-4.899 22.5,-2.238 25.609,8.68 0.41,1.41 0.289,12.63 -2.668,20.26" /><path
         id="path92"
         style="fill:#fcbd00;fill-opacity:1;fill-rule:nonzero;stroke:none"
         d="m 397.883,1047.22 c -5.68,5.29 -32.512,9.48 -43.442,8.85 -9.652,-0.54 -20.492,-4.9 -32.972,-10.7 -6.375,-2.96 -15.629,-8.46 -18.867,-10.18 -5.891,-3.14 -4.809,-3.04 -1.641,-3.04 10.25,0.71 17.691,1.4 24.391,-6.71 h 0.363 c 3.207,6.02 7.777,13.4 18.379,13.4 1.39,0 3.664,0.4 5.094,0.38 9.82,-0.15 18.386,-6.88 20.355,-6.59 1.391,0.19 1.82,7.99 10.656,12.33 l 8.332,1.69 9.352,0.57" /><path
         id="path94"
         style="fill:#fcbd00;fill-opacity:1;fill-rule:nonzero;stroke:none"
         d="m 157.035,1931.88 2.391,-0.25 c 6.226,-0.65 11.929,-3.3 15.629,-7.26 4.672,-5.01 7.031,-11.66 7.031,-19.74 v -185.46 c 0,-8.17 -2.34,-14.67 -7.031,-19.37 -3.508,-3.78 -9.059,-6.24 -15.629,-6.92 l -2.391,-0.25 v -14.6 h 123.649 v 14.6 l -2.399,0.25 c -6.422,0.67 -11.68,3.01 -15.597,6.92 -4.403,4.7 -6.719,11.4 -6.719,19.37 v 185.46 c 0,8.33 2.258,14.97 6.648,19.67 4.199,4.16 9.617,6.7 15.668,7.33 l 2.399,0.25 v 14.26 H 157.035 v -14.26" /><path
         id="path96"
         style="fill:#fcbd00;fill-opacity:1;fill-rule:nonzero;stroke:none"
         d="m 534.98,1931.88 2.387,-0.25 c 6.039,-0.63 11.481,-3.17 15.653,-7.25 4.66,-5.05 7.031,-11.68 7.031,-19.75 v -185.45 c 0,-7.73 -2.43,-14.42 -6.949,-19.31 -4.032,-3.98 -9.325,-6.33 -15.723,-7 l -2.399,-0.24 V 1678 h 123.649 v 14.63 l -2.391,0.24 c -6.418,0.68 -11.687,3.02 -15.609,6.93 -4.609,4.97 -7.059,11.66 -7.059,19.38 v 95.52 h 35.477 c 8.32,0 14.941,-2.26 19.691,-6.71 5,-4.68 7.649,-11.21 7.649,-18.87 v -9.01 h 14.179 v 81.62 h -14.179 v -7.25 c 0,-7.34 -2.715,-13.94 -7.625,-18.57 -4.813,-4.43 -11.442,-6.69 -19.715,-6.69 H 633.57 v 100.64 h 64.782 c 13.906,0 25.222,-2.5 33.64,-7.41 11.465,-6.67 17.039,-17.34 17.039,-32.65 v -9.03 h 14.875 v 65.36 H 534.98 v -14.25" /><path
         id="path98"
         style="fill:#fcbd00;fill-opacity:1;fill-rule:nonzero;stroke:none"
         d="m 1281.27,1692.89 c -18.39,0.59 -32.59,8.02 -49.01,25.65 l -125.11,131.07 c 11.54,13.1 22.87,26.59 33.85,39.65 l 11.21,13.31 c 1.37,1.68 2.69,3.24 3.93,4.7 1.62,1.94 3.15,3.74 4.55,5.51 11.67,14.13 18.57,18.84 36.42,18.84 h 32.69 v 15.94 h -81.84 l -0.78,-1.27 c -12.76,-20.82 -24.38,-37.91 -36.58,-53.79 -13.27,-17.1 -27.41,-33.37 -40.78,-48.45 h -23.33 v 60.55 c 0,8.29 2.27,14.94 6.71,19.77 3.88,4.14 9.13,6.58 15.63,7.26 l 2.4,0.24 v 14.27 H 947.195 v -14.28 l 2.407,-0.23 c 6.765,-0.67 12.007,-3.09 15.679,-7.32 4.66,-4.69 7.024,-11.31 7.024,-19.71 v -185.43 c 0,-7.94 -2.325,-14.64 -6.641,-19.3 -4.043,-4.05 -9.309,-6.33 -16.062,-6.99 l -2.407,-0.24 V 1678 h 124.035 v 14.63 l -2.4,0.25 c -6.46,0.66 -11.74,3.01 -15.61,6.91 -4.41,4.74 -6.73,11.44 -6.73,19.38 v 104.35 h 20.55 l 96.56,-99.23 h -0.48 l 4.58,-4.56 c 5.88,-5.84 9.35,-10.57 10.66,-14.59 1.32,-3.37 1.27,-6.13 -0.14,-8.18 -1.89,-2.76 -6.31,-4.41 -11.82,-4.41 h -4.8 V 1678 h 122.25 v 14.81 l -2.58,0.08" /><path
         id="path100"
         style="fill:#fcbd00;fill-opacity:1;fill-rule:nonzero;stroke:none"
         d="m 403.762,1849.36 c -17.832,0 -32.332,-14.5 -32.332,-32.35 0,-17.83 14.5,-32.33 32.332,-32.33 17.847,0 32.355,14.5 32.355,32.33 0,17.85 -14.508,32.35 -32.355,32.35" /><path
         id="path102"
         style="fill:#fcbd00;fill-opacity:1;fill-rule:nonzero;stroke:none"
         d="m 856.238,1849.36 c -18.125,0 -32.32,-14.2 -32.32,-32.35 0,-17.83 14.5,-32.33 32.32,-32.33 17.825,0 32.325,14.5 32.325,32.33 0,17.85 -14.5,32.35 -32.325,32.35" /></g></g></svg>