<?xml version="1.0" encoding="utf-8"?>
<!-- Generator: Adobe Illustrator 23.0.1, SVG Export Plug-In . SVG Version: 6.00 Build 0)  -->
<svg version="1.1" id="Lager_1" xmlns="http://www.w3.org/2000/svg" xmlns:xlink="http://www.w3.org/1999/xlink" x="0px" y="0px"
	 viewBox="0 0 189.9 189.9" style="enable-background:new 0 0 189.9 189.9;" xml:space="preserve">
<style type="text/css">
	.st0{clip-path:url(#SVGID_2_);fill-rule:evenodd;clip-rule:evenodd;fill:#231F20;}
	.st1{fill-rule:evenodd;clip-rule:evenodd;fill:#FCD109;}
	.st2{fill-rule:evenodd;clip-rule:evenodd;fill:#FFD400;}
	.st3{clip-path:url(#SVGID_4_);fill-rule:evenodd;clip-rule:evenodd;fill:#231F20;}
	.st4{fill:none;stroke:#231F20;stroke-width:4.63;stroke-miterlimit:2.613;}
	.st5{fill-rule:evenodd;clip-rule:evenodd;fill:#231F20;}
	.st6{fill:none;stroke:#231F20;stroke-width:3.087;stroke-miterlimit:2.613;}
</style>
<g>
	<defs>
		<rect id="SVGID_1_" x="7.1" y="24.3" width="175.7" height="141.3"/>
	</defs>
	<clipPath id="SVGID_2_">
		<use xlink:href="#SVGID_1_"  style="overflow:visible;"/>
	</clipPath>
	<path class="st0" d="M153.8,67.1c1.8,2.6,3.4,5.3,4.9,8.6c0,4-0.2,8.2-1,12c-1.3,2.5-2.6,5-3.8,7.5v27c0.2,1.7-0.1,3.7,0.8,4.6
		c0.8,1,2.2,1.2,4.2,1.4c-0.5,0.5-2.6,1.4-4.9,2.4V143c6.5-4.6,11.4-11.5,15.2-18.4l-4.7,1.8c-0.7-1.2,8.2-6.7,12-14.6
		c3.3-6.9,4.3-14.7,6.6-22c-1.5,0.2-3,0.8-4.4,1.6c2.8-5.7,3.8-11.5,3.5-17.4c-0.3-7.2-2.6-14.1-5.3-20.9c-0.1,3.8-0.4,7.1-2,9.8
		c-2.3-10.9-8.3-20.7-14.9-29.5c0,1.7,0.3,3.4-0.1,5.2c-2-1.5-3.9-3.2-5.9-4.7V67.1 M129.6,30.2c-1.1-0.1-2.2-0.3-3.3-0.4V39
		c2.3,2.4,4.6,4.6,7.2,6.7c2.4,2,5.9,2.4,8.8,3.5c2.6,4.4,4.9,8.8,7.9,13c1.2,1.7,2.4,3.3,3.5,4.9V33.8c-1.5-1.2-3.1-2.4-4.7-3.3
		c-4.2-2.5-9.3-5.8-13.4-6.2c3.2,3.7,6.9,7.3,7.8,10.7C142.2,35.1,134.5,30.6,129.6,30.2z M153.8,95.2c-3.9,7.8-7.6,15.6-11.7,23.4
		c-1.4,3.3-3.6,6.1-4.9,10c-3.6,1.2-7.2,2.1-10.9,3.3v10.6c2.3-2.4,4.9-5.5,7.2-9.1c0.4,1.6,0.2,2.7-0.2,4.4
		c-0.9,1.9-2.4,3.2-3.5,4.9c0,0.1-0.6,2.6-0.7,2.7c-0.5,1.4-2.1,1.9-2.8,2.1v14.6c0.4-0.1,0.9-0.1,1.3-0.2
		c8.1-1.8,16.4-4.4,22.6-10.7c-3.9,0.9-7.9,1.6-11.9,1.5c-2.9-0.1-6.7-0.3-8.6-2c7.2-1.9,15.2-2.1,21.6-5.8c0.9-0.5,1.7-1,2.5-1.6
		v-12.4c-1.7,0.7-3.5,1.5-5,2.1c2.1-4.6,4.1-11.1,4.9-11.1c0,0.1,0.1,0.3,0.1,0.4V95.2z M126.3,29.7c-3.6-0.6-7.1-1.7-10.7-2.2
		c3.6,3.8,7.1,7.7,10.7,11.4V29.7z M126.3,131.8c-1.5,0.5-2.9,1-4.4,1.6c-8.2,3.5-16.1,9.2-21.6,16.1c-0.2,3.9-0.2,7.7-0.4,11.6
		c2.1,1.5,4,3.4,6.4,4.1c1.8,0.6,3.8,0.4,5.4-0.5c0.5-2.6-4.4-2.7-3.9-4.4c6.1,1.4,12.4,2.5,18.4,1.5v-14.6
		c-0.3,0.1-0.4,0.1-0.4,0.1c-0.9,0.4-2.4,1.6-3,2.3c-1.8-0.1-4.5,0.3-3.9-0.6c0.4-0.3,3.5-2.6,7.3-6.7V131.8z"/>
</g>
<path class="st1" d="M134,42.8c-4-2.7-6.9-6.9-10.3-10.4c4.5,0,9.4,1.1,13.8,2.6c3,1,5.6,2.4,8.2,4.8c0.8,1.9,1.7,3.9,2.5,5.8
	c-4.2-2.8-8.4-5.6-13.4-8.1c0,0.6-0.1,1.1-0.1,1.7c3.3,2.5,8.2,5.2,10.3,7.7C140.4,46.8,137.2,44.9,134,42.8"/>
<path class="st2" d="M151.9,35.2c-2.4-1.7-4.9-3.3-7.7-4.2c2.4,4.9,4.6,9.6,7.1,13.9c1.5,2.9,5,5.8,4.8,8.4c1.9,2,3.5,4.1,5.1,6.1
	c0.2-1.1,0.2-2.1,0.1-3.2c-3.2-4.8-6.3-9.5-9.1-14.4c0-0.7,0.4-1.4,0.7-1.9c2.4,3.2,4.6,6.8,7.1,9.7c0-2.5,0-5,0-7.6
	C157.3,39.7,154.8,37.2,151.9,35.2"/>
<path class="st2" d="M154.7,55.4c-2.6-2.2-6-4.6-9.1-4.9c0.9,4.8,5.3,8.1,7.9,12.1c2.1,3.2,4.3,5.8,6.2,9.5c0.6-0.5,1.1-1.3,1.3-2.2
	c-3.1-3.7-5.7-7.3-8.1-11.2c-0.1-0.6,0.1-1.2,0.5-1.6c2.8,3.5,5,7.1,8.3,10.5c0.1-1.2,0.1-2.5-0.2-3.8
	C159.5,60.6,157.5,57.7,154.7,55.4"/>
<path class="st2" d="M170.5,57.1c-1.3-4.6-4.9-11.8-6.9-12.5c-0.1,6.3,0,12.1,1.2,18.1c0.9,4.4,2.2,11.6,4.8,12.7
	c-0.3-5.9-2.9-12.3-4-18.4c0.4-0.4,1.1-0.3,1.8,0.3c1.8,4.9,2.8,9.6,4,14.6C173.6,71.5,171.9,61.9,170.5,57.1"/>
<path class="st2" d="M179.2,75.9c0-3.1-0.9-6.3-1.7-9.1c-1.6,3.8-3.9,7.4-4.7,11.4c-0.7,3.7-0.6,10.2,0.4,11.4
	c2.2-3,1.7-6.9,2.6-10.4c0.2-0.5,0.6-0.3,0.9-0.1c0.6,2.1,0.5,4.3,0.8,6.4C179.2,85.3,179.3,79.1,179.2,75.9"/>
<path class="st2" d="M166.9,75.7c-1-1.6-2.1-3.4-3.6-4.4c-0.7,4.8-1.7,9.6-1.1,14.4c0.5,4,2.8,7.6,4.2,11.4c1.3,0.8,0.5-8.4,0-12.6
	c0.6-0.2,1.1,0,1.5,0.4c1.5,5.4,1,15.8,1.4,16c1.1-0.8,1.9-1.8,2.8-3.1c-0.7-2.7-1.5-5.2-1.8-7.9c-0.4-2.6-0.2-5.3-0.3-8
	C169,79.8,168.2,77.7,166.9,75.7"/>
<path class="st2" d="M173.8,110.4c1.9-3.8,3-8,3.8-12.2c-3.7,3.2-7.9,7.5-11,11.9c-2.7,3.9-6,9-6.2,12.7c3.7-3.4,6.6-9.4,10.1-13.9
	c0.3,0.1,0.9,0.4,1,0.9c-1,3.1-3.1,5.9-4.3,8.9C169.4,118.2,172.2,113.5,173.8,110.4"/>
<path class="st2" d="M164.1,102.6c0.4-4.5-1.3-8.8-3-11.6c-1.2,5.3-3.4,10.3-4.5,15.6c-0.9,4.1-1.3,8.8,0,12.6
	c1.7-4.8,2.6-10.2,3.7-15.2c0.4-0.3,0.8-0.1,0.9,0.4c0,3.7-0.7,7.3-0.8,11C162.8,114.4,163.6,107.1,164.1,102.6"/>
<path class="st2" d="M147.2,128.9c2.8-5.2,4-10.9,5.2-16.9c-3.1,3.1-6.8,5.8-9.3,9.4c-2.6,3.8-5.1,9.1-5.8,12.7
	c1.4,0,5.5-7,8.4-10.3c0.6,0.3,0.8,0.2,0.7,1.1c-2.6,5.8-9.2,13-9.1,15C140.2,138.8,144.9,133.3,147.2,128.9"/>
<path class="st2" d="M153.3,140.6c3.2-2.8,6.2-5.1,8.8-9.5c-4.4,0.6-9.1,2.5-13.2,4.7c-4.4,2.3-8.6,5.1-12.1,8.5
	c1.4,2,11.2-5.6,16.9-8.4c0.7,0.2,1.1,0.8,0.9,1.3c-4.4,3.2-8.8,5.6-13.4,8.2C144.5,146,149.9,143.5,153.3,140.6"/>
<path class="st2" d="M121,143.8c3.3-2.7,6.3-5.5,8.1-9.9c-4.4,0.7-9.1,2.5-13.1,4.9c-3.7,2.2-10.4,7.6-9.4,8.6
	c0.7,1.3,13.7-9.6,14.6-8.4c1.4,0.8-11.5,8.8-11.4,10.5C112.9,149.4,117.7,146.4,121,143.8"/>
<path class="st2" d="M121.7,159.9c5.7-0.3,11.5-2.1,16.6-4.6c-5.9-1.3-11.7-2.5-17.6-2.6c-3.9-0.1-12.2,0.5-11.4,1.7
	c-0.2,1.6,23.2-0.6,21.7,1.5c0.7,2.1-15.4,1.2-23.3,1.2C107.5,159,116.9,160.2,121.7,159.9"/>
<g>
	<defs>
		<rect id="SVGID_3_" x="7.1" y="24.3" width="175.7" height="141.3"/>
	</defs>
	<clipPath id="SVGID_4_">
		<use xlink:href="#SVGID_3_"  style="overflow:visible;"/>
	</clipPath>
	<path class="st3" d="M63.6,29.7c3.6-0.6,7.1-1.7,10.7-2.2c-3.6,3.8-7.1,7.7-10.7,11.4V29.7 M63.6,131.8c1.5,0.5,2.9,1,4.4,1.6
		c8.2,3.5,16.1,9.2,21.6,16.1c0.2,3.9,0.2,7.7,0.4,11.6c-2.1,1.5-4,3.4-6.4,4.1c-1.8,0.6-3.8,0.4-5.4-0.5c-0.5-2.6,4.4-2.7,3.9-4.4
		c-6.1,1.4-12.4,2.5-18.4,1.5v-14.6c0.3,0.1,0.4,0.1,0.4,0.1c0.9,0.4,2.4,1.6,3,2.3c1.8-0.1,4.5,0.3,3.9-0.6
		c-0.4-0.3-3.5-2.6-7.3-6.7V131.8z M60.3,30.2c1.1-0.1,2.2-0.3,3.3-0.4V39c-2.3,2.4-4.6,4.6-7.2,6.7c-2.4,2-5.9,2.4-8.8,3.5
		c-2.6,4.4-4.9,8.8-7.9,13c-1.2,1.7-2.4,3.3-3.5,4.9V33.8c1.5-1.2,3.1-2.4,4.7-3.3c4.2-2.5,9.3-5.8,13.4-6.2
		C51,28,47.4,31.5,46.4,35C47.7,35.1,55.4,30.6,60.3,30.2z M36.1,95.2c3.9,7.8,7.6,15.6,11.7,23.4c1.4,3.3,3.6,6.1,4.9,10
		c3.6,1.2,7.2,2.1,10.9,3.3v10.6c-2.3-2.4-4.9-5.5-7.2-9.1c-0.4,1.6-0.2,2.7,0.2,4.4c0.9,1.9,2.4,3.2,3.5,4.9c0,0.1,0.6,2.6,0.7,2.7
		c0.5,1.4,2.1,1.9,2.8,2.1v14.6c-0.4-0.1-0.9-0.1-1.3-0.2c-8.1-1.8-16.4-4.4-22.6-10.7c4,0.9,7.9,1.6,11.9,1.5
		c2.9-0.1,6.7-0.3,8.6-2c-7.2-1.9-15.2-2.1-21.6-5.8c-0.8-0.5-1.7-1-2.5-1.6v-12.4c1.7,0.7,3.5,1.5,5,2.1
		c-2.1-4.6-4.1-11.1-4.9-11.1c0,0.1-0.1,0.3-0.1,0.4V95.2z M36.1,67.1c-1.8,2.6-3.4,5.3-4.9,8.6c0,4,0.2,8.2,1,12
		c1.3,2.5,2.6,5,3.8,7.5v27c-0.2,1.7,0.1,3.7-0.8,4.6c-0.8,1-2.2,1.2-4.2,1.4c0.5,0.5,2.6,1.4,4.9,2.4V143
		c-6.4-4.6-11.4-11.5-15.2-18.4l4.7,1.8c0.7-1.2-8.2-6.7-12-14.6c-3.3-6.9-4.3-14.7-6.6-22c1.5,0.2,3,0.8,4.4,1.6
		C8.7,85.6,7.7,79.8,8,73.9c0.3-7.2,2.6-14.1,5.3-20.9c0.1,3.8,0.4,7.1,2,9.8c2.3-10.9,8.3-20.7,14.9-29.5c0,1.7-0.3,3.4,0.1,5.2
		c2-1.5,3.9-3.2,5.9-4.7V67.1z"/>
</g>
<path class="st2" d="M94.8,133.9c-30.5-0.4-60.9-17.6-61.3-44.4c-0.4-30.1,30.7-45.9,60.8-45.4c29.8,0.4,63.6,14.4,62.8,46.2
	C156.3,120.7,122.7,134.3,94.8,133.9"/>
<path class="st4" d="M94.8,133.9c-30.5-0.4-60.9-17.6-61.3-44.4c-0.4-30.1,30.7-45.9,60.8-45.4c29.8,0.4,63.6,14.4,62.8,46.2
	C156.3,120.7,122.7,134.3,94.8,133.9z"/>
<path class="st5" d="M33.8,84.5c0.9-3.9,2.6-8.4,3.5-12.2c8.3,7.2,38.4,16.6,59,17c19.8,0.4,39.4-5.5,57.7-14.1l2.8,14.4
	c-0.6,3.8-1.2,7.6-1.8,11.3c-15.4,6.9-38.6,12.3-58.5,11.9c-20.9-0.4-43.7-5.2-61.3-14.5L33.8,84.5"/>
<g>
	<path class="st5" d="M98.5,80.6c1.4,0.2,2.8,0.6,4.1,1c0.2-0.5,0.5-1.1,0.7-1.6c0.1-0.4,0.3-0.8,0.4-1.2c0-0.1,0.1-0.2,0.1-0.3
		c0.3-0.9,0.6-1.9,0.9-2.8c0.6-2.4,0.9-4.7,0.9-6.9c-0.1-2.1-0.4-4.1-0.9-6.1c-0.2-0.9-0.5-1.9-0.9-2.8c0-0.1-0.1-0.2-0.1-0.2
		c-0.1-0.4-0.3-0.8-0.4-1.2c-0.4-1.1-0.9-2.1-1.5-3.2c-1.1,0.4-2.2,0.8-3.3,1c-0.2,0.1-0.5,0.1-0.7,0.1c0,0,0,0-0.1,0c0,0,0,0-0.1,0
		c0,0,0,0.1,0.1,0.1c0,0,0,0.1,0.1,0.1c0.2,0.5,0.5,1.1,0.7,1.7c1.2,3.3,1.9,7.9,2,10.4c0,3.3-0.8,6.7-2,9.9
		c-0.2,0.6-0.5,1.2-0.7,1.8c0,0,0,0,0,0.1h0C98,80.5,98.2,80.5,98.5,80.6z"/>
	<path class="st5" d="M91.3,78.6c-0.1-0.2-0.1-0.3-0.2-0.5c-0.1-0.4-0.3-0.8-0.4-1.2c-1-2.8-1.7-5.6-1.7-8.5
		c-0.1-2.9,0.6-6.8,1.7-10.1c0.1-0.4,0.3-0.8,0.4-1.2c0.1-0.1,0.1-0.3,0.2-0.4c0.1-0.1,0.1-0.2,0.2-0.4c-0.1,0-0.1,0-0.2,0
		c-0.1,0-0.1,0-0.2,0c-0.1,0-0.3-0.1-0.4-0.1c-0.7-0.2-1.4-0.3-2.1-0.6c-0.3-0.1-0.7-0.3-1.1-0.4c-0.6,1.3-1.1,2.6-1.6,3.9
		c-0.2,0.6-0.4,1.1-0.5,1.7c-0.2,0.8-0.4,1.5-0.5,2.2c-0.4,1.8-0.6,3.6-0.5,5.4c0,1.5,0.2,3,0.5,4.6c0.1,0.7,0.3,1.4,0.5,2.1
		c0.1,0.6,0.3,1.2,0.5,1.7c0.5,1.6,1.1,3.1,1.7,4.6c0.3-0.1,0.7-0.2,1-0.3c0.7-0.2,1.4-0.4,2.1-0.5c0.1,0,0.3-0.1,0.4-0.1
		c0.1,0,0.1,0,0.2,0c0.1,0,0.2,0,0.3,0c0.1,0,0.3-0.1,0.5-0.1c-0.2-0.4-0.3-0.7-0.5-1.1C91.5,79.1,91.4,78.8,91.3,78.6z"/>
	<path class="st5" d="M95.1,80.2c0.5,0,1,0,1.6,0.1c0.4-1,0.7-2.1,1-3.2c0-0.1,0-0.1,0.1-0.2c0.3-0.9,0.5-1.7,0.7-2.6
		c0.4-1.9,0.7-3.8,0.7-5.6c0-2.1-0.2-4.2-0.7-6.3c-0.2-0.9-0.4-1.8-0.7-2.7c0-0.1,0-0.1-0.1-0.2c-0.3-1-0.7-2-1.1-3
		c-0.6,0.1-1,0.1-1.5,0.1c-0.8,0-1.6,0-2.6-0.1c-0.3,1-0.6,2-0.9,2.9c-0.1,0.4-0.2,0.7-0.3,1c-0.1,0.2-0.1,0.4-0.2,0.7
		c-0.2,0.7-0.3,1.4-0.4,2.1c-0.3,1.8-0.5,3.5-0.4,5.2c0,1.3,0.2,2.5,0.4,3.7c0.1,0.6,0.3,1.3,0.4,1.9c0.1,0.2,0.1,0.4,0.2,0.6
		c0.1,0.3,0.2,0.6,0.3,0.9c0.5,1.6,1,3.2,1.6,4.8C93.9,80.3,94.5,80.2,95.1,80.2z"/>
	<path class="st5" d="M103.8,54.3C103.8,54.3,103.7,54.3,103.8,54.3c-0.2,0.1-0.4,0.2-0.5,0.3c-0.2,0.1-0.3,0.1-0.5,0.2
		c0.2,0.4,0.4,0.7,0.5,1.1c0.1,0.3,0.3,0.6,0.4,0.9c0,0.1,0.1,0.1,0.1,0.2c0.3,0.6,0.6,1.3,0.9,1.9c0.6,1.4,1.1,2.9,1.4,4.6l1.5-1
		l1.4-0.8l1.7-1.1l0.9-0.6c0,0,0.1-0.1,0.1-0.1c-0.3-0.6-0.7-1.2-1.1-1.8c-0.5-0.8-1.1-1.5-1.7-2.2c-0.4-0.5-0.9-0.9-1.4-1.4
		c-0.5-0.5-1.1-0.9-1.7-1.4c-0.4,0.2-0.8,0.5-1.2,0.7C104.4,54,104.1,54.2,103.8,54.3z"/>
	<path class="st5" d="M85.9,52.9c0.8,0.5,1.7,0.9,2.7,1.3c0.7,0.3,1.4,0.5,2.1,0.7c0.1,0.1,0.3,0.1,0.4,0.1c0.1,0,0.1,0,0.2,0
		c0.1,0,0.2,0.1,0.3,0.1c1.1,0.3,2.2,0.4,3.2,0.4c0.1,0,0.2,0,0.3,0c0.9,0,1.8-0.1,2.6-0.3c0,0,0,0,0.1,0c0.2-0.1,0.5-0.1,0.7-0.2
		c1.6-0.4,3.1-1.1,4.8-1.9c0.1-0.1,0.3-0.1,0.4-0.2c0,0,0.1,0,0.1-0.1c0.3-0.1,0.6-0.3,0.9-0.4c0.1,0,0.1-0.1,0.2-0.1
		c-0.1,0-0.1-0.1-0.2-0.1c-0.3-0.2-0.6-0.3-0.9-0.5c0,0-0.1,0-0.1,0c-0.1-0.1-0.3-0.1-0.4-0.2c-1.5-0.7-3.1-1.3-4.8-1.6
		c-0.2,0-0.5-0.1-0.7-0.1c0,0,0,0-0.1,0c-0.9-0.1-1.7-0.2-2.6-0.2c-0.1,0-0.1,0-0.2,0c-1.1,0-2.3,0.1-3.3,0.3c-0.1,0-0.2,0-0.3,0.1
		c-0.1,0-0.1,0-0.2,0c-0.1,0-0.3,0.1-0.4,0.1c-0.7,0.2-1.4,0.4-2.1,0.6c-0.9,0.3-1.8,0.7-2.7,1.2c-0.2,0.1-0.4,0.2-0.5,0.3
		c-0.1,0.1-0.1,0.1-0.2,0.1c0.1,0.1,0.1,0.1,0.2,0.1C85.5,52.7,85.7,52.8,85.9,52.9z"/>
	<path class="st5" d="M112,60.7c-0.5,0.3-0.9,0.6-1.4,0.9c-0.6,0.4-1.1,0.7-1.7,1.1c-0.5,0.3-0.9,0.5-1.4,0.8
		c-0.4,0.3-0.8,0.5-1.3,0.8c0,0-0.1,0.1-0.1,0.1c0.4,2.5,0.5,5.1,0.2,7.6c0.1,0,0.1,0,0.1,0l1,0.4l1.4,0.6l1.7,0.7l2,0.9
		c0.6-1.8,1-3.6,1-5.5v-1.4C113.6,65.4,113,63,112,60.7z"/>
	<path class="st5" d="M108.9,74.1c-0.5-0.2-0.9-0.4-1.4-0.6c-0.4-0.2-0.8-0.4-1.2-0.6c-0.3,2.3-0.9,4.6-1.7,6.8
		c-0.3,0.6-0.5,1.3-0.9,1.9c0,0.1-0.1,0.1-0.1,0.2c0,0.1-0.1,0.1-0.1,0.1c0,0,0.1,0,0.1,0c0,0,0.1,0,0.1,0.1
		c0.3,0.1,0.6,0.2,0.9,0.4c0.6,0.3,1.2,0.6,1.9,0.9c0.4-0.3,0.7-0.6,1.1-0.9c0.5-0.4,0.9-0.9,1.4-1.4c0.6-0.7,1.2-1.4,1.7-2.2
		c0.7-1,1.2-2.1,1.7-3.2c-0.5-0.2-1.1-0.4-1.7-0.6C110.1,74.6,109.5,74.4,108.9,74.1z"/>
	<path class="st5" d="M80.4,61.3c0.5,0.2,1,0.5,1.4,0.7c0.5,0.3,1.1,0.5,1.6,0.8c0.3-1.7,0.8-3.4,1.4-5c0.2-0.4,0.3-0.9,0.5-1.3
		c0.2-0.4,0.3-0.7,0.5-1.1c0.1-0.3,0.3-0.6,0.5-0.9c-0.2-0.1-0.3-0.2-0.5-0.3c-0.2-0.1-0.4-0.2-0.5-0.3c-0.2-0.1-0.4-0.2-0.5-0.4
		c-0.3-0.2-0.5-0.3-0.7-0.5c-0.8,0.6-1.6,1.2-2.3,1.9c-0.5,0.5-1,1-1.4,1.6c-0.4,0.5-0.8,1-1.1,1.6c-0.4,0.6-0.8,1.3-1.2,2
		c0.4,0.2,0.8,0.4,1.2,0.5C79.6,60.9,80,61.1,80.4,61.3z"/>
	<path class="st5" d="M103.8,83.2C103.8,83.2,103.7,83.2,103.8,83.2c-0.2-0.1-0.4-0.1-0.5-0.2c-1.6-0.6-3.2-1-4.8-1.3
		c-0.2,0-0.5-0.1-0.7-0.1c0,0,0,0-0.1,0c-0.9-0.1-1.7-0.1-2.6-0.2c-1.2,0-2.4,0.1-3.5,0.3c-0.1,0-0.2,0-0.3,0c-0.1,0-0.1,0-0.2,0
		c-0.1,0-0.3,0.1-0.4,0.1c-0.7,0.1-1.4,0.3-2.1,0.5c-0.9,0.2-1.8,0.5-2.7,0.9c-0.2,0.1-0.4,0.1-0.5,0.2c-0.2,0.1-0.4,0.1-0.5,0.2
		c-0.1,0.1-0.3,0.1-0.4,0.2c0.1,0.1,0.3,0.2,0.4,0.3c0.2,0.1,0.4,0.2,0.5,0.4c0.2,0.1,0.4,0.2,0.5,0.3c0.9,0.5,1.8,0.9,2.7,1.3
		c0.7,0.2,1.4,0.5,2.1,0.6c0.1,0,0.3,0.1,0.4,0.1c0.1,0,0.1,0,0.2,0c0.1,0,0.2,0,0.3,0.1c1.1,0.2,2.3,0.3,3.5,0.3
		c0.9,0,1.8-0.1,2.6-0.2c0,0,0,0,0.1,0c0.2,0,0.5-0.1,0.7-0.1c1.6-0.3,3.3-0.9,4.8-1.6c0.1-0.1,0.3-0.1,0.4-0.2c0,0,0.1,0,0.1,0
		c0.3-0.1,0.6-0.3,0.9-0.5c0.3-0.2,0.6-0.4,0.9-0.6c-0.3-0.1-0.6-0.3-0.9-0.4C104.4,83.5,104.1,83.3,103.8,83.2z"/>
	<path class="st5" d="M85.3,82.2c0.2-0.1,0.3-0.1,0.5-0.2c0.2-0.1,0.4-0.1,0.5-0.2c-0.2-0.4-0.4-0.8-0.5-1.2
		c-0.2-0.4-0.4-0.8-0.5-1.3c-0.2-0.4-0.4-0.9-0.5-1.4c-0.6-1.6-1.1-3.3-1.5-5.1l-1.5,0.7l-1.4,0.6l-1.1,0.5l-1.7,0.8
		c0.5,1.1,1,2.2,1.7,3.3c0.4,0.5,0.7,1.1,1.1,1.6c0.4,0.5,0.9,1,1.4,1.5c0.5,0.4,0.9,0.9,1.4,1.3c0.4-0.2,0.9-0.4,1.6-0.7
		C85,82.4,85.2,82.3,85.3,82.2z"/>
	<path class="st5" d="M80.4,73.2l1.4-0.7L83,72c0.1,0,0.1,0,0.2,0c-0.4-2.6-0.4-5.5,0.1-8.3c0,0-0.1,0-0.1,0L81.8,63l-1.4-0.7
		l-1.1-0.6L77.7,61c-0.9,2.2-1.5,4.6-1.6,6.9v1.2c0.1,1.9,0.4,3.8,1.1,5.6l2-0.9L80.4,73.2z"/>
</g>
<polyline class="st2" points="56,102.3 53.6,101.3 55,93 49.1,99.8 48.2,99.5 48.3,90.4 43.8,97.6 41.3,96.6 49.8,83.3 51.1,83.8 
	50.5,94.7 57.3,86.2 58.6,86.7 56,102.3 "/>
<path class="st2" d="M60.1,99.8l2.4,0.6c0,0.9,0.6,1.6,1.8,1.9c0.9,0.2,1.6,0.1,2.1-0.4c0.5-0.5,0.9-1.3,1.2-2.4l2.5-9.3l2.6,0.7
	l-2.5,9.3c-0.5,2-1.4,3.4-2.4,4.1c-1.1,0.7-2.6,0.9-4.4,0.4c-1.2-0.3-2.1-0.9-2.7-1.8C60,102,59.9,101,60.1,99.8"/>
<path class="st2" d="M83.2,108.4l-0.7-3.3l-2.3-0.3v-2.1l1.8,0.3L81,97l-0.8,1.6v-4.9l0.9-1.5l1.2,0.2l4,16.4L83.2,108.4 M80.2,89.6
	v-0.6C80.3,89.2,80.3,89.4,80.2,89.6C80.2,89.6,80.2,89.6,80.2,89.6z M85.4,88.8c0.4,0.1,0.7,0.3,1,0.6c0.2,0.3,0.3,0.7,0.3,1.1
	c-0.1,0.4-0.2,0.7-0.6,1c-0.3,0.2-0.7,0.3-1.1,0.3c-0.4-0.1-0.7-0.2-1-0.6c-0.2-0.3-0.4-0.7-0.3-1.1c0.1-0.4,0.3-0.7,0.6-1
	C84.6,88.8,85,88.7,85.4,88.8z M80.2,104.8l-2.9-0.4l-1.5,3l-3-0.4l7.4-13.1v4.9l-1.8,3.8l1.8,0.3V104.8z M80.2,89.1v0.6
	c-0.1,0.4-0.3,0.7-0.6,0.9c-0.3,0.3-0.7,0.4-1.1,0.3c-0.4-0.1-0.7-0.3-1-0.6c-0.3-0.3-0.4-0.7-0.3-1.1c0.1-0.4,0.2-0.7,0.6-1
	c0.3-0.3,0.7-0.4,1.1-0.3c0.4,0.1,0.7,0.3,1,0.6C80.1,88.6,80.2,88.9,80.2,89.1z"/>
<polyline class="st2" points="90.9,109.1 91.1,93.6 93.9,93.7 93.6,106.7 100.6,106.8 100.6,109.3 90.9,109.1 "/>
<polyline class="st2" points="105.6,109.1 104,93.7 106.8,93.5 108.1,106.4 115.1,105.7 115.3,108.1 105.6,109.1 "/>
<path class="st2" d="M124.8,106l-2.5,0.5v-2.9l0.1,0.5c0.6-0.1,1-0.1,1.3-0.2c1.2-0.3,2-0.6,2.5-1.2c0.4-0.5,0.6-1.3,0.4-2.2
	c-0.2-0.9-0.6-1.4-1.1-1.7c-0.6-0.3-1.5-0.3-2.8,0c-0.1,0-0.2,0.1-0.4,0.1v-2.1c1.7-0.4,2.4-1.2,2.1-2.5c-0.2-1-0.9-1.4-2.1-1.3
	v-2.3c1.1-0.1,2.1,0,2.8,0.4c1,0.5,1.7,1.3,1.9,2.6c0.3,1.2-0.2,2.3-1.3,3.2c2,0.2,3.2,1.4,3.7,3.4c0.3,1.4,0,2.6-0.9,3.6
	C127.7,105,126.5,105.7,124.8,106 M122.3,106.6l-2.1,0.4L117,91.9c2-0.5,3.4-0.9,4.3-1c0.4-0.1,0.7-0.1,1.1-0.2V93
	c-0.2,0-0.4,0-0.6,0.1c-0.4,0.1-0.9,0.2-1.5,0.4l0.8,3.6c0.4-0.1,0.9-0.1,1.3-0.2c0,0,0.1,0,0.1,0V99c-0.3,0.1-0.6,0.1-1,0.2l1,4.5
	V106.6z"/>
<polyline class="st2" points="139.9,95.4 141.6,101.4 139,102.2 137.3,96.1 129.7,88.8 132.5,88 137.9,93.3 139.6,86 142.4,85.2 
	139.9,95.4 "/>
<path class="st5" d="M74.1,126.9l-0.3-3.1l-1.9-0.5v-2.1l1.7,0.5l-0.3-5.7l-1.4,2.2v-3.9l2-2.7l1.1,0.3l1.9,15.9L74.1,126.9
	 M71.9,123.2l-2.9-0.8l-1.8,2.6l-2.8-0.7l7.5-10.2v3.9l-1.7,2.6l1.7,0.5V123.2z"/>
<polyline class="st5" points="92.2,129.7 93.4,115.1 96,115.3 94.8,129.9 92.2,129.7 "/>
<polyline class="st5" points="109,116.6 109.6,120 114.7,119 115.1,121.2 110,122.2 111.3,128.8 108.8,129.3 106,114.9 115.5,113 
	115.9,115.3 109,116.6 "/>
<path class="st2" d="M55.9,42.8c4-2.7,6.9-6.9,10.3-10.4c-4.5,0-9.4,1.1-13.8,2.6c-3,1-5.6,2.4-8.2,4.8c-0.8,1.9-1.7,3.9-2.5,5.8
	c4.2-2.8,8.4-5.6,13.4-8.1c0,0.6,0,1.1,0.1,1.7c-3.3,2.5-8.2,5.2-10.3,7.7C49.5,46.8,52.7,44.9,55.9,42.8"/>
<path class="st2" d="M38,35.2c2.4-1.7,4.9-3.3,7.7-4.2c-2.4,4.9-4.6,9.6-7.1,13.9c-1.5,2.9-5,5.8-4.8,8.4c-1.9,2-3.5,4.1-5.1,6.1
	c-0.2-1.1-0.2-2.1-0.1-3.2c3.2-4.8,6.3-9.5,9.1-14.4c0-0.7-0.4-1.4-0.7-1.9c-2.4,3.2-4.6,6.8-7.1,9.7c0-2.5,0-5,0-7.6
	C32.5,39.7,35.1,37.2,38,35.2"/>
<path class="st2" d="M35.2,55.4c2.6-2.2,6-4.6,9.1-4.9c-0.9,4.8-5.3,8.1-7.9,12.1c-2.1,3.2-4.3,5.8-6.2,9.5
	c-0.6-0.5-1.1-1.3-1.3-2.2c3.1-3.7,5.7-7.3,8.1-11.2c0.1-0.6-0.1-1.2-0.5-1.6c-2.8,3.5-5,7.1-8.3,10.5c-0.1-1.2-0.1-2.5,0.2-3.8
	C30.4,60.6,32.3,57.7,35.2,55.4"/>
<path class="st2" d="M19.3,57.1c1.3-4.6,4.9-11.8,6.9-12.5c0.1,6.3-0.1,12.1-1.2,18.1c-0.9,4.4-2.2,11.6-4.8,12.7
	c0.4-5.9,2.9-12.3,4-18.4c-0.4-0.4-1.1-0.3-1.8,0.3c-1.8,4.9-2.8,9.6-4,14.6C16.3,71.5,18,61.9,19.3,57.1"/>
<path class="st2" d="M10.6,75.9c0-3.1,0.9-6.3,1.7-9.1c1.6,3.8,3.9,7.4,4.7,11.4c0.7,3.7,0.6,10.2-0.4,11.4c-2.2-3-1.7-6.9-2.6-10.4
	c-0.2-0.5-0.6-0.3-0.9-0.1c-0.6,2.1-0.5,4.3-0.8,6.4C10.7,85.3,10.6,79.1,10.6,75.9"/>
<path class="st2" d="M22.9,75.7c1-1.6,2.1-3.4,3.6-4.4c0.7,4.8,1.7,9.6,1.1,14.4c-0.5,4-2.8,7.6-4.2,11.4c-1.3,0.8-0.5-8.4,0-12.6
	c-0.6-0.2-1.1,0-1.5,0.4c-1.5,5.4-1,15.8-1.4,16c-1.1-0.8-1.9-1.8-2.8-3.1c0.7-2.7,1.5-5.2,1.8-7.9c0.4-2.6,0.2-5.3,0.3-8
	C20.9,79.8,21.7,77.7,22.9,75.7"/>
<path class="st2" d="M16.1,110.4c-1.9-3.8-3-8-3.8-12.2c3.7,3.2,7.9,7.5,11,11.9c2.7,3.9,6,9,6.2,12.7c-3.7-3.4-6.6-9.4-10.1-13.9
	c-0.3,0.1-0.9,0.4-1,0.9c1,3.1,3.1,5.9,4.3,8.9C20.5,118.2,17.7,113.5,16.1,110.4"/>
<path class="st2" d="M25.8,102.6c-0.4-4.5,1.3-8.8,3-11.6c1.2,5.3,3.4,10.3,4.5,15.6c0.9,4.1,1.3,8.8,0,12.6
	c-1.7-4.8-2.6-10.2-3.7-15.2c-0.4-0.3-0.8-0.1-0.9,0.4c0,3.7,0.7,7.3,0.8,11C27.1,114.4,26.2,107.1,25.8,102.6"/>
<path class="st2" d="M42.6,128.9c-2.8-5.2-4-10.9-5.1-16.9c3.1,3.1,6.8,5.8,9.3,9.4c2.6,3.8,5.1,9.1,5.8,12.7c-1.4,0-5.5-7-8.4-10.3
	c-0.5,0.3-0.8,0.2-0.7,1.1c2.6,5.8,9.2,13,9.1,15C49.7,138.8,45,133.3,42.6,128.9"/>
<path class="st2" d="M36.6,140.6c-3.2-2.8-6.2-5.1-8.8-9.5c4.4,0.6,9.1,2.5,13.2,4.7c4.4,2.3,8.6,5.1,12.1,8.5
	c-1.4,2-11.3-5.6-16.9-8.4c-0.7,0.2-1.1,0.8-0.9,1.3c4.4,3.2,8.9,5.6,13.4,8.2C45.4,146,39.9,143.5,36.6,140.6"/>
<path class="st2" d="M68.9,143.8c-3.3-2.7-6.3-5.5-8.1-9.9c4.4,0.7,9.1,2.5,13.1,4.9c3.7,2.2,10.4,7.6,9.4,8.6
	c-0.7,1.3-13.7-9.6-14.6-8.4c-1.4,0.8,11.5,8.8,11.4,10.5C76.9,149.4,72.2,146.4,68.9,143.8"/>
<path class="st2" d="M68.2,159.9c-5.7-0.3-11.5-2.1-16.6-4.6c5.9-1.3,11.7-2.5,17.6-2.6c3.8-0.1,12.2,0.5,11.4,1.7
	c0.2,1.6-23.2-0.6-21.7,1.5c-0.7,2.1,15.4,1.2,23.3,1.2C82.4,159,73,160.2,68.2,159.9"/>
<path class="st2" d="M95,163.5c3.3,0,6-3.7,6-8.2c0-4.5-2.7-8.2-6-8.2c-3.3,0-6,3.7-6,8.2C89,159.9,91.7,163.5,95,163.5"/>
<path class="st6" d="M95,163.5c3.3,0,6-3.7,6-8.2c0-4.5-2.7-8.2-6-8.2c-3.3,0-6,3.7-6,8.2C89,159.9,91.7,163.5,95,163.5z"/>
</svg>
